SplineFontDB: 3.2
FontName: BesleyCondensed-Regular
FullName: Besley Condensed Regular
FamilyName: Besley Condensed
Weight: Regular
Version: 002.100
ItalicAngle: 0
UnderlinePosition: -200
UnderlineWidth: 100
Ascent: 1600
Descent: 400
InvalidEm: 0
LayerCount: 2
Layer: 0 0 "Back" 1
Layer: 1 0 "Fore" 0
XUID: [1021 31 -699969567 16487490]
FSType: 0
OS2Version: 0
OS2_WeightWidthSlopeOnly: 0
OS2_UseTypoMetrics: 1
CreationTime: 1460762150
PfmFamily: 17
TTFWeight: 400
TTFWidth: 3
LineGap: 0
VLineGap: 0
OS2TypoAscent: 2500
OS2TypoAOffset: 0
OS2TypoDescent: -850
OS2TypoDOffset: 0
OS2TypoLinegap: 0
OS2WinAscent: 2500
OS2WinAOffset: 0
OS2WinDescent: 850
OS2WinDOffset: 0
HheadAscent: 2500
HheadAOffset: 0
HheadDescent: -850
HheadDOffset: 0
OS2CapHeight: 1500
OS2XHeight: 1040
OS2FamilyClass: 1024
OS2Vendor: 'it* '
OS2UnicodeRanges: 00000001.00000000.00000000.00000000
Lookup: 1 0 0 "'smcp' Lowercase to Small Capitals in Latin lookup 0" { "'smcp' Lowercase to Small Capitals in Latin lookup 0 subtable"  } ['smcp' ('latn' <'dflt' > ) ]
Lookup: 1 0 0 "'c2sc' Capitals to Small Capitals in Latin lookup 1" { "'c2sc' Capitals to Small Capitals in Latin lookup 1 subtable"  } ['c2sc' ('latn' <'dflt' > ) ]
Lookup: 1 0 0 "'ss01' Style Set 1 lookup 2" { "'ss01' Style Set 1 lookup 2 subtable"  } ['ss01' ('DFLT' <'dflt' > 'grek' <'dflt' > 'latn' <'dflt' > ) ]
Lookup: 6 0 0 "'calt' Contextual Alternates lookup 3" { "'calt' Contextual Alternates lookup 3 subtable"  } ['calt' ('DFLT' <'dflt' > 'grek' <'dflt' > 'latn' <'dflt' > ) ]
Lookup: 4 0 1 "'liga' Standard Ligatures lookup 4" { "'liga' Standard Ligatures lookup 4 subtable"  } ['liga' ('DFLT' <'dflt' > 'grek' <'dflt' > 'latn' <'dflt' > ) ]
Lookup: 1 0 0 "'onum' Oldstyle Figures lookup 5" { "'onum' Oldstyle Figures lookup 5 subtable" ("oldstyle") } ['onum' ('DFLT' <'dflt' > 'grek' <'dflt' > 'latn' <'dflt' > ) ]

StartChar: ampersand
Encoding: 38 38 0
Width: 1740
Flags: MW
LayerCount: 2
Fore
SplineSet
1117 920 m 2
 1540 920 l 2
 1561 920 1570 915 1570 892 c 2
 1570 834 l 2
 1570 810 1570 810 1546 810 c 2
 1414 810 l 2
 1389 810 1390 808 1387 787 c 0
 1358 607 1290 434 1176 293 c 0
 1154 266 1139 273 1161 238 c 2
 1228 132 l 2
 1240 113 1243 110 1275 110 c 2
 1510 110 l 2
 1537 110 1540 103 1540 75 c 2
 1540 35 l 2
 1540 8 1538 0 1512 0 c 2
 1120 0 l 2
 1074 0 1069 4 1052 31 c 2
 1010 97 l 2
 989 130 988 122 957 102 c 0
 837 25 696 -20 540 -20 c 0
 274 -20 42 114 42 400 c 0
 42 686 261 787 483 873 c 0
 520 887 504 894 486 923 c 2
 450 980 l 2
 400 1058 358 1156 358 1226 c 0
 358 1406 528 1520 760 1520 c 0
 974 1520 1132 1430 1132 1270 c 0
 1132 1064 972 970 789 892 c 0
 754 877 761 870 781 839 c 2
 1053 408 l 2
 1080 365 1080 359 1111 401 c 0
 1195 516 1254 652 1276 781 c 0
 1280 807 1273 810 1242 810 c 2
 1128 810 l 2
 1093 810 1090 817 1090 853 c 2
 1090 888 l 2
 1090 913 1093 920 1117 920 c 2
529 783 m 0
 380 711 262 617 262 440 c 0
 262 216 422 110 610 110 c 0
 716 110 816 144 905 202 c 0
 935 221 930 224 912 253 c 2
 585 769 l 2
 565 800 563 800 529 783 c 0
944 1280 m 0
 944 1374 868 1440 758 1440 c 0
 644 1440 554 1386 554 1280 c 0
 554 1210 608 1110 690 980 c 0
 703 960 706 965 727 976 c 0
 852 1041 944 1127 944 1280 c 0
EndSplineSet
EndChar

StartChar: period
Encoding: 46 46 1
Width: 564
Flags: MW
LayerCount: 2
Fore
SplineSet
150 100 m 0
 150 173 209 232 282 232 c 0
 355 232 414 173 414 100 c 0
 414 27 355 -32 282 -32 c 0
 209 -32 150 27 150 100 c 0
EndSplineSet
EndChar

StartChar: zero
Encoding: 48 48 2
Width: 880
Flags: MW
LayerCount: 2
Fore
SplineSet
80 750 m 0
 80 1316 194 1520 440 1520 c 0
 706 1520 800 1316 800 750 c 0
 800 184 666 -20 440 -20 c 0
 194 -20 80 184 80 750 c 0
300 750 m 0
 300 216 332 80 440 80 c 0
 568 80 580 216 580 750 c 0
 580 1284 568 1420 440 1420 c 0
 332 1420 300 1284 300 750 c 0
EndSplineSet
Substitution2: "'onum' Oldstyle Figures lookup 5 subtable" zero.oldstyle
Substitution2: "'tnum' Tabular Numbers lookup 6 subtable" uniFF10
EndChar

StartChar: one
Encoding: 49 49 3
Width: 700
Flags: MW
LayerCount: 2
Fore
SplineSet
80 38 m 2
 80 80 l 2
 80 109 91 110 120 110 c 2
 228 110 l 2
 264 110 270 118 270 152 c 2
 270 1173 l 2
 270 1209 267 1220 232 1220 c 2
 128 1220 l 2
 99 1220 84 1222 84 1254 c 2
 84 1284 l 2
 84 1320 88 1329 126 1330 c 0
 200 1331 305 1345 352 1538 c 0
 358 1561 360 1580 394 1580 c 2
 422 1580 l 2
 447 1580 460 1579 460 1554 c 2
 460 162 l 2
 460 115 466 110 514 110 c 2
 586 110 l 2
 612 110 630 109 630 80 c 2
 630 40 l 2
 630 8 627 0 596 0 c 2
 114 0 l 2
 84 0 80 7 80 38 c 2
EndSplineSet
Substitution2: "'onum' Oldstyle Figures lookup 5 subtable" one.oldstyle
Substitution2: "'tnum' Tabular Numbers lookup 6 subtable" uniFF11
EndChar

StartChar: two
Encoding: 50 50 4
Width: 840
Flags: MW
LayerCount: 2
Fore
SplineSet
770 325 m 0
 785 63 723 -20 600 -20 c 0
 436 -20 396 100 300 100 c 0
 241 100 210 73 190 30 c 0
 183 13 178 0 151 0 c 2
 103 0 l 2
 82 0 80 10 80 29 c 0
 89 307 185 501 364 698 c 0
 466 810 554 942 554 1170 c 0
 554 1348 512 1426 384 1426 c 0
 277 1426 240 1358 240 1324 c 0
 240 1278 364 1258 364 1146 c 0
 364 1072 299 1030 245 1030 c 0
 187 1030 102 1086 102 1212 c 0
 102 1346 190 1520 454 1520 c 0
 686 1520 776 1390 776 1170 c 0
 776 930 648 755 414 580 c 0
 298 493 223 339 200 204 c 0
 193 163 170 134 186 134 c 0
 205 134 211 157 230 191 c 0
 256 238 300 269 380 269 c 0
 480 269 510 181 602 181 c 0
 659 181 668 235 675 327 c 0
 678 350 677 354 703 354 c 2
 744 354 l 2
 767 354 769 349 770 325 c 0
EndSplineSet
Substitution2: "'onum' Oldstyle Figures lookup 5 subtable" two.oldstyle
Substitution2: "'tnum' Tabular Numbers lookup 6 subtable" uniFF12
EndChar

StartChar: three
Encoding: 51 51 5
Width: 780
Flags: MW
LayerCount: 2
Fore
SplineSet
50 248 m 0
 50 344 100 430 178 430 c 0
 252 430 292 388 292 314 c 0
 292 202 188 202 188 156 c 0
 188 102 254 63 322 63 c 0
 490 63 528 232 528 380 c 0
 528 564 472 705 324 717 c 0
 278 721 234 703 234 762 c 2
 234 780 l 2
 234 839 279 823 324 826 c 0
 465 834 496 1026 496 1142 c 0
 496 1290 470 1436 332 1436 c 0
 234 1436 198 1390 198 1336 c 0
 198 1290 322 1300 322 1188 c 0
 322 1114 282 1072 208 1072 c 0
 130 1072 80 1158 80 1254 c 0
 80 1378 158 1520 382 1520 c 0
 604 1520 690 1382 690 1182 c 0
 690 896 601 881 532 834 c 0
 489 805 446 792 446 770 c 0
 446 754 483 746 526 733 c 0
 684 683 730 534 730 380 c 0
 730 160 604 -20 322 -20 c 0
 148 -20 50 94 50 248 c 0
EndSplineSet
Substitution2: "'onum' Oldstyle Figures lookup 5 subtable" three.oldstyle
Substitution2: "'tnum' Tabular Numbers lookup 6 subtable" uniFF13
EndChar

StartChar: four
Encoding: 52 52 6
Width: 870
Flags: MW
LayerCount: 2
Fore
SplineSet
800 84 m 2
 800 26 l 2
 800 3 793 0 769 0 c 2
 432 0 l 2
 407 0 400 5 400 32 c 2
 400 77 l 2
 400 103 405 110 430 110 c 2
 462 110 l 2
 483 110 490 115 490 135 c 2
 490 422 l 2
 490 453 487 460 457 460 c 2
 154 460 l 2
 124 460 117 463 103 477 c 2
 77 503 l 2
 58 522 63 528 74 555 c 0
 214 886 426 1050 528 1447 c 0
 536 1477 528 1500 569 1500 c 2
 678 1500 l 2
 719 1500 727 1496 722 1459 c 0
 667 1047 392 874 234 618 c 0
 215 587 223 570 280 570 c 2
 472 570 l 2
 493 570 490 575 490 595 c 2
 490 720 l 2
 490 753 498 752 515 765 c 0
 562 801 590 848 620 938 c 0
 626 955 623 970 648 970 c 2
 654 970 l 2
 680 970 680 963 680 939 c 2
 680 614 l 2
 680 576 685 570 722 570 c 2
 799 570 l 2
 826 570 830 563 830 535 c 2
 830 490 l 2
 830 463 822 460 794 460 c 2
 715 460 l 2
 684 460 680 450 680 421 c 2
 680 146 l 2
 680 115 686 110 718 110 c 2
 765 110 l 2
 790 110 800 109 800 84 c 2
EndSplineSet
Substitution2: "'onum' Oldstyle Figures lookup 5 subtable" four.oldstyle
Substitution2: "'tnum' Tabular Numbers lookup 6 subtable" uniFF14
EndChar

StartChar: five
Encoding: 53 53 7
Width: 840
Flags: MW
LayerCount: 2
Fore
SplineSet
60 258 m 0
 60 364 130 410 188 410 c 0
 242 410 302 368 302 294 c 0
 302 222 208 182 208 136 c 0
 208 102 254 64 332 64 c 0
 510 64 568 252 568 460 c 0
 568 728 560 902 422 902 c 0
 339 902 286 869 234 803 c 0
 219 783 211 774 173 774 c 2
 131 774 l 2
 93 774 96 788 100 818 c 2
 183 1462 l 2
 187 1493 194 1500 228 1500 c 2
 374 1500 l 2
 446 1500 538 1469 598 1536 c 0
 608 1547 612 1564 637 1564 c 2
 694 1564 l 2
 708 1564 711 1562 708 1550 c 2
 696 1500 l 2
 660 1336 624 1320 350 1320 c 2
 306 1320 l 2
 276 1320 265 1316 261 1288 c 2
 219 966 l 2
 213 918 203 894 211 890 c 0
 224 884 233 902 266 934 c 0
 297 964 368 1000 446 1000 c 0
 718 1000 770 780 770 500 c 0
 770 200 634 -20 352 -20 c 0
 128 -20 60 124 60 258 c 0
EndSplineSet
Substitution2: "'onum' Oldstyle Figures lookup 5 subtable" five.oldstyle
Substitution2: "'tnum' Tabular Numbers lookup 6 subtable" uniFF15
EndChar

StartChar: six
Encoding: 54 54 8
Width: 840
Flags: MW
LayerCount: 2
Fore
SplineSet
556 1392 m 0
 556 1418 516 1436 468 1436 c 0
 306 1436 279 1193 263 900 c 0
 261 867 257 854 264 850 c 0
 272 846 277 859 293 879 c 0
 330 923 390 960 492 960 c 0
 694 960 800 800 800 470 c 0
 800 160 650 -20 438 -20 c 0
 186 -20 60 180 60 740 c 0
 60 1220 186 1520 488 1520 c 0
 622 1520 720 1426 720 1312 c 0
 720 1196 650 1150 592 1150 c 0
 538 1150 478 1192 478 1266 c 0
 478 1338 556 1366 556 1392 c 0
600 470 m 0
 600 698 536 862 428 862 c 0
 302 862 260 720 260 560 c 0
 260 262 280 70 438 70 c 0
 566 70 600 252 600 470 c 0
EndSplineSet
Substitution2: "'tnum' Tabular Numbers lookup 6 subtable" uniFF16
EndChar

StartChar: seven
Encoding: 55 55 9
Width: 818
Flags: MW
LayerCount: 2
Fore
SplineSet
50 1162 m 0
 54 1439 145 1520 300 1520 c 0
 414 1520 464 1400 560 1400 c 0
 634 1400 666 1433 686 1483 c 0
 691 1496 692 1500 711 1500 c 2
 780 1500 l 2
 803 1500 799 1494 796 1473 c 0
 772 1323 650 1008 546 736 c 0
 474 548 438 472 438 384 c 0
 438 238 504 208 504 116 c 0
 504 42 464 -20 376 -20 c 0
 298 -20 244 54 244 192 c 0
 244 370 336 554 428 762 c 0
 497 918 558 1097 611 1254 c 0
 618 1276 625 1291 620 1296 c 0
 615 1301 603 1283 582 1277 c 0
 556 1269 526 1266 490 1266 c 0
 390 1266 350 1334 268 1334 c 0
 167 1334 148 1281 144 1166 c 0
 144 1151 143 1146 128 1146 c 2
 72 1146 l 2
 57 1146 50 1147 50 1162 c 0
EndSplineSet
Substitution2: "'onum' Oldstyle Figures lookup 5 subtable" seven.oldstyle
Substitution2: "'tnum' Tabular Numbers lookup 6 subtable" uniFF17
EndChar

StartChar: eight
Encoding: 56 56 10
Width: 740
Flags: MW
LayerCount: 2
Fore
SplineSet
240 420 m 0
 240 182 292 70 370 70 c 0
 448 70 500 182 500 420 c 0
 500 668 448 760 370 760 c 0
 292 760 240 668 240 420 c 0
90 1140 m 0
 90 1410 178 1520 370 1520 c 0
 562 1520 650 1410 650 1140 c 0
 650 937 579 860 498 827 c 0
 478 819 465 818 465 811 c 0
 465 805 473 801 496 794 c 0
 639 754 700 638 700 420 c 0
 700 180 652 -20 370 -20 c 0
 88 -20 40 180 40 420 c 0
 40 635 107 732 236 784 c 0
 255 792 282 799 282 808 c 0
 282 817 265 819 234 833 c 0
 158 867 90 940 90 1140 c 0
270 1140 m 0
 270 912 322 860 370 860 c 0
 418 860 470 912 470 1140 c 0
 470 1368 418 1430 370 1430 c 0
 322 1430 270 1368 270 1140 c 0
EndSplineSet
Substitution2: "'tnum' Tabular Numbers lookup 6 subtable" uniFF18
EndChar

StartChar: nine
Encoding: 57 57 11
Width: 840
Flags: MW
LayerCount: 2
Fore
SplineSet
284 108 m 0
 284 82 324 64 372 64 c 0
 534 64 561 307 577 600 c 0
 579 633 583 646 576 650 c 0
 568 654 563 641 547 621 c 0
 510 577 450 540 348 540 c 0
 146 540 40 700 40 1030 c 0
 40 1340 190 1520 402 1520 c 0
 654 1520 780 1320 780 760 c 0
 780 280 654 -20 352 -20 c 0
 218 -20 120 74 120 188 c 0
 120 304 190 350 248 350 c 0
 302 350 362 308 362 234 c 0
 362 162 284 134 284 108 c 0
240 1030 m 0
 240 802 304 638 412 638 c 0
 538 638 580 780 580 940 c 0
 580 1238 560 1430 402 1430 c 0
 274 1430 240 1248 240 1030 c 0
EndSplineSet
Substitution2: "'onum' Oldstyle Figures lookup 5 subtable" nine.oldstyle
Substitution2: "'tnum' Tabular Numbers lookup 6 subtable" uniFF19
EndChar

StartChar: A
Encoding: 65 65 12
Width: 1210
Flags: MW
AnchorPoint: "Anchor-0" 593 1500 basechar 0
AnchorPoint: "Anchor-1" 536 0 basechar 0
AnchorPoint: "Anchor-2" 536 0 basechar 0
AnchorPoint: "Anchor-3" 996 0 basechar 0
LayerCount: 2
Fore
SplineSet
546 1322 m 258
 360 578 l 258
 354 554 352 550 388 550 c 258
 714 550 l 258
 755 550 763 552 752 596 c 258
 578 1316 l 258
 568 1357 555 1357 546 1322 c 258
0 42 m 258
 0 84 l 258
 0 104 6 110 28 110 c 258
 54 110 l 258
 96 110 107 121 115 150 c 266
 478 1500 l 258
 482 1509 486 1510 499 1510 c 258
 679 1510 l 258
 695 1510 701 1509 705 1498 c 258
 1068 154 l 258
 1077 121 1078 110 1124 110 c 258
 1182 110 l 258
 1209 110 1210 106 1210 79 c 258
 1210 35 l 258
 1210 4 1209 0 1178 0 c 258
 798 0 l 258
 772 0 760 3 760 32 c 258
 760 78 l 258
 760 106 770 110 796 110 c 258
 858 110 l 258
 880 110 880 127 875 146 c 258
 811 386 l 258
 799 431 796 440 732 440 c 258
 377 440 l 258
 331 440 318 432 310 400 c 258
 246 158 l 274
 237 125 243 110 277 110 c 258
 328 110 l 258
 352 110 360 105 360 80 c 258
 360 32 l 258
 360 0 360 0 328 0 c 258
 50 0 l 258
 13 0 0 2 0 42 c 258
EndSplineSet
Substitution2: "'c2sc' Capitals to Small Capitals in Latin lookup 1 subtable" a.sc
EndChar

StartChar: B
Encoding: 66 66 13
Width: 1018
Flags: MW
AnchorPoint: "Anchor-0" 467 1500 basechar 0
AnchorPoint: "Anchor-1" 479 0 basechar 0
AnchorPoint: "Anchor-2" 479 0 basechar 0
LayerCount: 2
Fore
SplineSet
528 110 m 258
 690 110 768 212 768 410 c 256
 768 608 710 720 528 720 c 258
 387 720 l 258
 344 720 338 711 338 666 c 258
 338 148 l 258
 338 115 349 110 384 110 c 258
 528 110 l 258
357 830 m 258
 508 830 l 258
 690 830 738 912 738 1110 c 256
 738 1308 670 1390 488 1390 c 258
 373 1390 l 258
 341 1390 338 1378 338 1345 c 258
 338 870 l 258
 338 831 342 830 357 830 c 258
578 0 m 258
 79 0 l 258
 48 0 38 1 38 32 c 258
 38 76 l 258
 38 106 47 110 75 110 c 258
 118 110 l 258
 146 110 158 113 158 140 c 258
 158 1352 l 258
 158 1388 150 1390 113 1390 c 258
 79 1390 l 258
 45 1390 38 1393 38 1426 c 258
 38 1468 l 258
 38 1495 46 1500 71 1500 c 258
 508 1500 l 258
 760 1500 938 1390 938 1130 c 256
 938 917 840 835 741 793 c 256
 713 781 715 773 739 766 c 256
 872 728 978 630 978 390 c 256
 978 90 770 0 578 0 c 258
EndSplineSet
Substitution2: "'c2sc' Capitals to Small Capitals in Latin lookup 1 subtable" b.sc
EndChar

StartChar: C
Encoding: 67 67 14
Width: 1109
Flags: MW
AnchorPoint: "Anchor-0" 571 1500 basechar 0
AnchorPoint: "Anchor-1" 592 0 basechar 0
AnchorPoint: "Anchor-2" 592 0 basechar 0
LayerCount: 2
Fore
SplineSet
55 750 m 256
 55 1196 239 1520 545 1520 c 256
 738 1520 823 1426 879 1333 c 256
 887 1319 893 1330 898 1349 c 258
 940 1492 l 258
 944 1506 942 1510 961 1510 c 258
 1015 1510 l 258
 1032 1510 1035 1507 1035 1491 c 258
 1035 1016 l 258
 1035 994 1029 990 1006 990 c 258
 945 990 l 258
 919 990 925 998 921 1019 c 256
 887 1213 789 1404 615 1404 c 256
 347 1404 255 1114 255 750 c 256
 255 386 327 98 595 98 c 256
 816 98 916 335 943 574 c 256
 944 586 949 590 963 590 c 258
 1033 590 l 258
 1047 590 1055 589 1054 576 c 256
 1029 236 886 -20 585 -20 c 256
 179 -20 55 304 55 750 c 256
EndSplineSet
Substitution2: "'c2sc' Capitals to Small Capitals in Latin lookup 1 subtable" c.sc
EndChar

StartChar: D
Encoding: 68 68 15
Width: 1124
Flags: MW
AnchorPoint: "Anchor-0" 548 1500 basechar 0
AnchorPoint: "Anchor-1" 547 0 basechar 0
AnchorPoint: "Anchor-2" 547 0 basechar 0
LayerCount: 2
Fore
SplineSet
39 34 m 258
 39 72 l 258
 39 104 43 110 74 110 c 258
 128 110 l 258
 158 110 159 119 159 150 c 258
 159 1346 l 258
 159 1380 158 1390 124 1390 c 258
 96 1390 l 258
 54 1390 39 1391 39 1426 c 258
 39 1471 l 258
 39 1496 63 1500 94 1500 c 258
 579 1500 l 258
 905 1500 1069 1176 1069 750 c 256
 1069 324 885 0 579 0 c 258
 74 0 l 258
 44 0 39 6 39 34 c 258
370 110 m 258
 499 110 l 258
 767 110 869 296 869 750 c 256
 869 1214 747 1390 499 1390 c 258
 372 1390 l 258
 355 1390 339 1385 339 1346 c 258
 339 144 l 258
 339 112 337 110 370 110 c 258
EndSplineSet
Substitution2: "'c2sc' Capitals to Small Capitals in Latin lookup 1 subtable" d.sc
EndChar

StartChar: E
Encoding: 69 69 16
Width: 1013
Flags: MW
AnchorPoint: "Anchor-0" 527 1500 basechar 0
AnchorPoint: "Anchor-1" 559 0 basechar 0
AnchorPoint: "Anchor-2" 559 0 basechar 0
AnchorPoint: "Anchor-3" 869 50 basechar 0
LayerCount: 2
Fore
SplineSet
109 1390 m 258
 74 1390 l 258
 41 1390 38 1401 38 1432 c 258
 38 1462 l 258
 38 1493 42 1500 72 1500 c 258
 874 1500 l 258
 920 1500 928 1498 928 1452 c 258
 928 1070 l 258
 928 1038 934 1030 900 1030 c 258
 890 1030 l 258
 861 1030 859 1042 858 1068 c 256
 852 1312 701 1390 528 1390 c 258
 392 1390 l 258
 356 1390 348 1384 348 1346 c 258
 348 860 l 258
 348 831 350 816 362 816 c 258
 434 816 l 258
 544 816 597 897 597 1014 c 256
 596 1041 604 1046 624 1046 c 258
 657 1046 l 258
 679 1046 688 1039 688 1016 c 258
 688 536 l 258
 688 504 685 496 656 496 c 258
 623 496 l 258
 611 496 595 499 596 530 c 256
 595 647 567 736 428 736 c 258
 381 736 l 258
 356 736 348 728 348 692 c 258
 348 154 l 258
 348 117 353 110 392 110 c 258
 508 110 l 258
 722 110 873 190 878 478 c 256
 878 504 884 510 902 510 c 258
 910 510 l 258
 935 510 948 507 948 480 c 258
 948 34 l 258
 948 6 943 0 916 0 c 258
 78 0 l 258
 48 0 38 4 38 36 c 258
 38 82 l 258
 38 109 47 110 74 110 c 258
 104 110 l 258
 153 110 158 116 158 166 c 258
 158 1348 l 258
 158 1389 150 1390 109 1390 c 258
EndSplineSet
Substitution2: "'c2sc' Capitals to Small Capitals in Latin lookup 1 subtable" e.sc
EndChar

StartChar: F
Encoding: 70 70 17
Width: 978
Flags: MW
AnchorPoint: "Anchor-0" 527 1500 basechar 0
AnchorPoint: "Anchor-1" 249 0 basechar 0
AnchorPoint: "Anchor-2" 249 0 basechar 0
LayerCount: 2
Fore
SplineSet
129 1390 m 258
 62 1390 l 258
 43 1390 38 1392 38 1412 c 258
 38 1481 l 258
 38 1495 39 1500 53 1500 c 258
 904 1500 l 258
 925 1500 928 1493 928 1471 c 258
 928 1050 l 258
 928 1031 919 1030 900 1030 c 258
 878 1030 l 258
 858 1030 858 1035 858 1054 c 256
 855 1313 737 1390 508 1390 c 258
 382 1390 l 258
 357 1390 348 1376 348 1353 c 258
 348 836 l 258
 348 802 354 796 387 796 c 258
 478 796 l 258
 573 796 623 856 636 964 c 256
 639 992 639 1006 673 1006 c 258
 697 1006 l 258
 720 1006 728 1004 728 982 c 258
 728 503 l 258
 728 485 727 476 709 476 c 258
 657 476 l 258
 638 476 639 481 638 499 c 256
 632 623 584 696 478 696 c 258
 378 696 l 258
 350 696 348 688 348 659 c 258
 348 150 l 258
 348 118 352 110 386 110 c 258
 460 110 l 258
 479 110 488 109 488 90 c 258
 488 30 l 258
 488 4 479 0 455 0 c 258
 63 0 l 258
 43 0 38 0 38 20 c 258
 38 92 l 258
 38 109 47 110 65 110 c 258
 131 110 l 258
 153 110 158 117 158 140 c 258
 158 1360 l 258
 158 1387 155 1390 129 1390 c 258
EndSplineSet
Substitution2: "'c2sc' Capitals to Small Capitals in Latin lookup 1 subtable" f.sc
EndChar

StartChar: G
Encoding: 71 71 18
Width: 1150
Flags: MW
AnchorPoint: "Anchor-0" 661 1500 basechar 0
AnchorPoint: "Anchor-1" 632 0 basechar 0
AnchorPoint: "Anchor-2" 632 0 basechar 0
LayerCount: 2
Fore
SplineSet
752 740 m 258
 1086 740 l 258
 1126 740 1135 737 1135 694 c 258
 1135 644 l 258
 1135 615 1129 610 1098 610 c 258
 1068 610 l 258
 1038 610 1035 603 1035 572 c 258
 1035 462 l 258
 1035 428 1033 414 1030 382 c 256
 1012 170 871 -20 585 -20 c 256
 169 -20 55 304 55 750 c 256
 55 1196 219 1520 595 1520 c 256
 756 1520 851 1447 888 1379 c 256
 899 1358 909 1361 917 1394 c 258
 934 1464 l 258
 939 1483 947 1500 964 1500 c 258
 1008 1500 l 258
 1024 1500 1035 1491 1035 1474 c 258
 1035 1034 l 258
 1035 1013 1033 990 1010 990 c 258
 962 990 l 258
 927 990 924 997 921 1026 c 256
 897 1218 855 1408 609 1408 c 256
 351 1408 245 1114 245 750 c 256
 245 386 327 80 585 80 c 256
 715 80 812 215 839 344 c 256
 843 363 845 374 845 400 c 258
 845 578 l 258
 845 608 841 610 814 610 c 258
 746 610 l 258
 712 610 715 613 715 646 c 258
 715 702 l 258
 715 734 721 740 752 740 c 258
EndSplineSet
Substitution2: "'c2sc' Capitals to Small Capitals in Latin lookup 1 subtable" g.sc
EndChar

StartChar: H
Encoding: 72 72 19
Width: 1196
Flags: MW
AnchorPoint: "Anchor-0" 604 1500 basechar 0
AnchorPoint: "Anchor-1" 599 0 basechar 0
AnchorPoint: "Anchor-2" 599 0 basechar 0
LayerCount: 2
Fore
SplineSet
348 1347 m 258
 348 888 l 258
 348 837 352 830 405 830 c 258
 795 830 l 258
 847 830 848 841 848 894 c 258
 848 1338 l 258
 848 1380 857 1390 815 1390 c 258
 742 1390 l 258
 714 1390 708 1403 708 1429 c 258
 708 1458 l 258
 708 1494 713 1500 748 1500 c 258
 1118 1500 l 258
 1150 1500 1158 1496 1158 1462 c 258
 1158 1424 l 258
 1158 1396 1149 1390 1119 1390 c 258
 1093 1390 l 258
 1049 1390 1038 1388 1038 1344 c 258
 1038 144 l 258
 1038 116 1045 110 1075 110 c 258
 1119 110 l 258
 1146 110 1158 107 1158 78 c 258
 1158 44 l 258
 1158 2 1147 0 1108 0 c 258
 748 0 l 258
 712 0 708 7 708 44 c 258
 708 74 l 258
 708 102 710 110 737 110 c 258
 826 110 l 258
 845 110 848 123 848 160 c 258
 848 672 l 258
 848 715 839 720 799 720 c 258
 395 720 l 258
 355 720 348 717 348 678 c 258
 348 150 l 258
 348 119 353 110 386 110 c 258
 455 110 l 258
 482 110 488 105 488 76 c 258
 488 50 l 258
 488 5 482 0 438 0 c 258
 78 0 l 258
 45 0 38 5 38 40 c 258
 38 68 l 258
 38 104 44 110 79 110 c 258
 117 110 l 258
 149 110 158 112 158 144 c 258
 158 1351 l 258
 158 1383 149 1390 119 1390 c 258
 73 1390 l 258
 39 1390 38 1401 38 1436 c 258
 38 1462 l 258
 38 1494 48 1500 78 1500 c 258
 448 1500 l 258
 475 1500 488 1497 488 1468 c 258
 488 1428 l 258
 488 1396 482 1390 451 1390 c 258
 387 1390 l 258
 353 1390 348 1383 348 1347 c 258
EndSplineSet
Substitution2: "'c2sc' Capitals to Small Capitals in Latin lookup 1 subtable" h.sc
EndChar

StartChar: I
Encoding: 73 73 20
Width: 520
Flags: MW
AnchorPoint: "Anchor-0" 262 1500 basechar 0
AnchorPoint: "Anchor-1" 268 0 basechar 0
AnchorPoint: "Anchor-2" 268 0 basechar 0
AnchorPoint: "Anchor-3" 268 0 basechar 0
LayerCount: 2
Fore
SplineSet
355 1354 m 258
 355 154 l 258
 355 121 364 110 393 110 c 258
 453 110 l 258
 472 110 475 97 475 78 c 258
 475 32 l 258
 475 8 463 0 435 0 c 258
 85 0 l 258
 57 0 45 7 45 32 c 258
 45 82 l 258
 45 103 53 110 91 110 c 258
 97 110 l 258
 132 110 165 114 165 160 c 258
 165 1356 l 258
 165 1382 165 1390 135 1390 c 258
 79 1390 l 258
 53 1390 45 1399 45 1420 c 258
 45 1474 l 258
 45 1500 52 1500 75 1500 c 258
 439 1500 l 258
 469 1500 475 1497 475 1466 c 258
 475 1432 l 258
 475 1397 458 1390 433 1390 c 258
 393 1390 l 258
 361 1390 355 1387 355 1354 c 258
EndSplineSet
Substitution2: "'c2sc' Capitals to Small Capitals in Latin lookup 1 subtable" i.sc
EndChar

StartChar: J
Encoding: 74 74 21
Width: 844
Flags: MW
AnchorPoint: "Anchor-0" 586 1500 basechar 0
AnchorPoint: "Anchor-1" 338 0 basechar 0
AnchorPoint: "Anchor-2" 338 0 basechar 0
LayerCount: 2
Fore
SplineSet
10 280 m 256
 10 404 75 470 155 470 c 256
 225 470 266 424 266 352 c 256
 266 222 198 244 198 160 c 256
 198 126 228 90 322 90 c 256
 454 90 492 200 492 480 c 258
 492 1331 l 258
 492 1376 490 1390 445 1390 c 258
 357 1390 l 258
 315 1390 312 1397 312 1440 c 258
 312 1460 l 258
 312 1499 326 1500 362 1500 c 258
 782 1500 l 258
 805 1500 822 1498 822 1472 c 258
 822 1424 l 258
 822 1397 819 1390 793 1390 c 258
 727 1390 l 258
 684 1390 682 1382 682 1338 c 258
 682 540 l 258
 682 220 624 -20 302 -20 c 256
 108 -20 10 120 10 280 c 256
EndSplineSet
Substitution2: "'c2sc' Capitals to Small Capitals in Latin lookup 1 subtable" j.sc
EndChar

StartChar: K
Encoding: 75 75 22
Width: 1253
Flags: MW
AnchorPoint: "Anchor-0" 609 1500 basechar 0
AnchorPoint: "Anchor-1" 613 0 basechar 0
AnchorPoint: "Anchor-2" 613 0 basechar 0
LayerCount: 2
Fore
SplineSet
38 38 m 258
 38 78 l 258
 38 105 45 110 70 110 c 258
 116 110 l 258
 155 110 158 120 158 156 c 258
 158 1358 l 258
 158 1390 158 1390 126 1390 c 258
 70 1390 l 258
 41 1390 38 1388 38 1418 c 258
 38 1470 l 258
 38 1494 43 1500 66 1500 c 258
 458 1500 l 258
 481 1500 488 1495 488 1470 c 258
 488 1432 l 258
 488 1393 478 1390 442 1390 c 258
 396 1390 l 258
 350 1390 348 1380 348 1334 c 258
 348 732 l 258
 348 675 364 663 387 705 c 256
 844 1356 l 258
 861 1382 841 1390 816 1390 c 258
 748 1390 l 258
 712 1390 718 1398 718 1432 c 258
 718 1464 l 258
 718 1497 729 1500 760 1500 c 258
 1112 1500 l 258
 1144 1500 1148 1493 1148 1460 c 258
 1148 1434 l 258
 1148 1397 1144 1390 1108 1390 c 258
 1050 1390 l 258
 1001 1390 1002 1382 984 1356 c 258
 716 966 l 274
 698 941 709 905 723 880 c 266
 1103 146 l 258
 1118 119 1133 110 1179 110 c 258
 1213 110 l 258
 1246 110 1253 105 1253 70 c 258
 1253 34 l 258
 1253 0 1253 0 1219 0 c 258
 812 0 l 258
 783 0 778 7 778 34 c 258
 778 66 l 258
 778 102 771 110 806 110 c 258
 819 110 l 258
 866 110 892 129 879 150 c 258
 596 720 l 258
 579 747 552 757 531 726 c 258
 372 490 l 256
 360 463 348 439 348 394 c 258
 348 150 l 258
 348 115 354 110 390 110 c 258
 452 110 l 258
 484 110 488 102 488 72 c 258
 488 40 l 258
 488 6 483 0 450 0 c 258
 72 0 l 258
 42 0 38 7 38 38 c 258
EndSplineSet
Substitution2: "'c2sc' Capitals to Small Capitals in Latin lookup 1 subtable" k.sc
EndChar

StartChar: L
Encoding: 76 76 23
Width: 976
Flags: MW
AnchorPoint: "Anchor-0" 257 1500 basechar 0
AnchorPoint: "Anchor-1" 742 943 basechar 0
AnchorPoint: "Anchor-2" 639 0 basechar 0
AnchorPoint: "Anchor-3" 742 943 basechar 0
LayerCount: 2
Fore
SplineSet
116 1390 m 258
 69 1390 l 258
 43 1390 38 1396 38 1424 c 258
 38 1471 l 258
 38 1496 45 1500 71 1500 c 258
 427 1500 l 258
 459 1500 468 1498 468 1466 c 258
 468 1424 l 258
 468 1395 460 1390 433 1390 c 258
 389 1390 l 258
 359 1390 348 1384 348 1351 c 258
 348 142 l 258
 348 113 360 110 390 110 c 258
 558 110 l 258
 726 110 835 230 838 482 c 256
 838 501 840 510 859 510 c 258
 901 510 l 258
 928 510 938 509 938 482 c 258
 938 46 l 258
 938 9 936 0 899 0 c 258
 81 0 l 258
 50 0 38 3 38 36 c 258
 38 78 l 258
 38 102 40 110 63 110 c 258
 111 110 l 258
 149 110 158 112 158 150 c 258
 158 1352 l 258
 158 1385 151 1390 116 1390 c 258
EndSplineSet
Substitution2: "'c2sc' Capitals to Small Capitals in Latin lookup 1 subtable" l.sc
EndChar

StartChar: M
Encoding: 77 77 24
Width: 1440
Flags: MW
AnchorPoint: "Anchor-0" 731 1500 basechar 0
AnchorPoint: "Anchor-1" 680 0 basechar 0
AnchorPoint: "Anchor-2" 680 0 basechar 0
LayerCount: 2
Fore
SplineSet
183 1390 m 258
 129 1390 l 258
 102 1390 95 1394 95 1420 c 258
 95 1466 l 258
 95 1498 108 1500 137 1500 c 258
 469 1500 l 258
 513 1500 508 1485 518 1454 c 258
 694 478 l 258
 704 439 702 411 713 411 c 256
 722 411 723 433 731 468 c 258
 956 1466 l 258
 965 1493 962 1500 999 1500 c 258
 1309 1500 l 258
 1338 1500 1345 1495 1345 1464 c 258
 1345 1440 l 258
 1345 1397 1341 1390 1299 1390 c 258
 1272 1390 l 258
 1235 1390 1230 1370 1231 1336 c 258
 1279 152 l 258
 1280 119 1285 110 1321 110 c 258
 1367 110 l 258
 1405 110 1405 110 1405 72 c 258
 1405 42 l 258
 1405 8 1402 0 1369 0 c 258
 998 0 l 258
 967 0 950 5 950 38 c 258
 950 62 l 258
 950 101 951 110 990 110 c 258
 1046 110 l 258
 1081 110 1086 120 1085 152 c 258
 1050 1079 l 258
 1048 1131 1053 1246 1044 1246 c 256
 1022 1246 1006 1143 1000 1082 c 256
 742 16 l 258
 734 -8 728 -20 694 -20 c 258
 653 -20 l 258
 605 -20 600 0 589 34 c 256
 363 1228 l 256
 359 1271 374 1360 349 1360 c 256
 342 1360 339 1340 336 1278 c 258
 291 175 l 258
 289 120 300 110 357 110 c 258
 379 110 l 258
 417 110 425 106 425 66 c 258
 425 40 l 258
 425 5 409 0 373 0 c 258
 79 0 l 258
 42 0 35 4 35 40 c 258
 35 68 l 258
 35 105 41 110 77 110 c 258
 115 110 l 258
 148 110 161 125 162 154 c 258
 219 1350 l 258
 220 1377 213 1390 183 1390 c 258
EndSplineSet
Substitution2: "'c2sc' Capitals to Small Capitals in Latin lookup 1 subtable" m.sc
EndChar

StartChar: N
Encoding: 78 78 25
Width: 1090
Flags: MW
AnchorPoint: "Anchor-0" 566 1500 basechar 0
AnchorPoint: "Anchor-1" 556 0 basechar 0
AnchorPoint: "Anchor-2" 556 0 basechar 0
LayerCount: 2
Fore
SplineSet
94 1390 m 258
 74 1390 l 258
 45 1390 40 1398 40 1425 c 258
 40 1455 l 258
 40 1490 41 1500 76 1500 c 258
 260 1500 l 258
 337 1500 331 1486 362 1445 c 256
 792 368 l 258
 808 329 830 317 830 397 c 258
 830 1343 l 258
 830 1387 820 1390 778 1390 c 258
 780 1390 l 258
 750 1390 710 1387 710 1421 c 258
 710 1443 l 258
 710 1483 717 1500 758 1500 c 258
 1020 1500 l 258
 1045 1500 1070 1500 1070 1471 c 258
 1070 1434 l 258
 1070 1400 1068 1390 1054 1390 c 258
 1008 1390 l 258
 966 1390 960 1383 960 1339 c 258
 960 25 l 258
 960 1 959 -20 932 -20 c 258
 806 -20 l 258
 775 -20 764 -12 751 5 c 256
 332 1075 l 258
 315 1120 280 1116 280 1017 c 258
 280 153 l 258
 280 116 285 110 324 110 c 258
 376 110 l 258
 407 110 410 98 410 69 c 258
 410 39 l 258
 410 4 401 0 368 0 c 258
 82 0 l 258
 47 0 40 3 40 37 c 258
 40 73 l 258
 40 107 55 110 86 110 c 258
 95 110 l 258
 142 110 150 116 150 161 c 258
 150 1341 l 258
 150 1387 141 1390 94 1390 c 258
EndSplineSet
Substitution2: "'c2sc' Capitals to Small Capitals in Latin lookup 1 subtable" n.sc
EndChar

StartChar: O
Encoding: 79 79 26
Width: 1050
Flags: MW
AnchorPoint: "Anchor-0" 526 1500 basechar 0
AnchorPoint: "Anchor-1" 526 0 basechar 0
AnchorPoint: "Anchor-2" 526 0 basechar 0
LayerCount: 2
Fore
SplineSet
55 750 m 256
 55 1276 199 1520 525 1520 c 256
 851 1520 995 1276 995 750 c 256
 995 224 831 -20 525 -20 c 256
 199 -20 55 224 55 750 c 256
260 750 m 256
 260 286 327 80 525 80 c 256
 743 80 790 286 790 750 c 256
 790 1214 723 1420 525 1420 c 256
 327 1420 260 1214 260 750 c 256
EndSplineSet
Substitution2: "'c2sc' Capitals to Small Capitals in Latin lookup 1 subtable" o.sc
EndChar

StartChar: P
Encoding: 80 80 27
Width: 1006
Flags: MW
AnchorPoint: "Anchor-0" 509 1500 basechar 0
AnchorPoint: "Anchor-1" 265 0 basechar 0
AnchorPoint: "Anchor-2" 265 0 basechar 0
LayerCount: 2
Fore
SplineSet
126 1390 m 258
 63 1390 l 258
 39 1390 38 1399 38 1423 c 258
 38 1464 l 258
 38 1495 46 1500 75 1500 c 258
 548 1500 l 258
 860 1500 968 1340 968 1080 c 256
 968 820 860 660 548 660 c 258
 412 660 l 258
 357 660 348 659 348 604 c 258
 348 173 l 258
 348 118 352 110 406 110 c 258
 456 110 l 258
 487 110 488 101 488 70 c 258
 488 48 l 258
 488 8 486 0 446 0 c 258
 92 0 l 258
 51 0 38 2 38 46 c 258
 38 82 l 258
 38 106 45 110 70 110 c 258
 112 110 l 258
 153 110 158 120 158 158 c 258
 158 1364 l 258
 158 1387 150 1390 126 1390 c 258
388 770 m 258
 518 770 l 258
 680 770 748 872 748 1080 c 256
 748 1288 680 1390 518 1390 c 258
 367 1390 l 258
 341 1390 348 1378 348 1351 c 258
 348 814 l 258
 348 772 346 770 388 770 c 258
EndSplineSet
Substitution2: "'c2sc' Capitals to Small Capitals in Latin lookup 1 subtable" p.sc
EndChar

StartChar: Q
Encoding: 81 81 28
Width: 1050
Flags: MW
AnchorPoint: "Anchor-0" 526 1500 basechar 0
LayerCount: 2
Fore
SplineSet
55 750 m 256
 55 1276 189 1520 525 1520 c 256
 861 1520 995 1276 995 750 c 256
 995 477 963 208 805 72 c 256
 774 45 784 43 796 20 c 256
 834 -51 856 -74 911 -74 c 256
 996 -74 1007 34 1004 139 c 256
 1003 157 1010 164 1031 164 c 258
 1067 164 l 258
 1098 164 1099 160 1104 131 c 256
 1127 -82 1084 -250 905 -250 c 256
 772 -250 750 -144 712 -20 c 256
 702 12 701 4 658 -5 c 256
 621 -13 584 -20 525 -20 c 256
 189 -20 55 224 55 750 c 256
380 137 m 256
 417 100 469 80 525 80 c 256
 574 80 610 86 641 106 c 256
 671 125 675 129 669 161 c 256
 647 275 603 430 493 430 c 256
 387 430 353 304 352 196 c 256
 352 157 365 152 380 137 c 256
757 302 m 256
 780 416 790 544 790 750 c 256
 790 1114 753 1420 525 1420 c 256
 297 1420 260 1114 260 750 c 256
 260 589 268 431 292 324 c 256
 302 278 306 291 306 345 c 256
 306 465 363 606 489 606 c 256
 616 606 680 402 713 273 c 256
 728 214 747 251 757 302 c 256
EndSplineSet
Substitution2: "'c2sc' Capitals to Small Capitals in Latin lookup 1 subtable" q.sc
EndChar

StartChar: R
Encoding: 82 82 29
Width: 1073
Flags: MW
AnchorPoint: "Anchor-0" 479 1500 basechar 0
AnchorPoint: "Anchor-1" 549 0 basechar 0
AnchorPoint: "Anchor-2" 549 0 basechar 0
LayerCount: 2
Fore
SplineSet
1098 230 m 256
 1089 79 1052 -20 888 -20 c 256
 492 -20 921 690 528 690 c 258
 394 690 l 258
 350 690 348 682 348 638 c 258
 348 144 l 258
 348 113 356 110 388 110 c 258
 457 110 l 258
 485 110 488 103 488 74 c 258
 488 29 l 258
 488 4 481 0 455 0 c 258
 69 0 l 258
 44 0 38 6 38 32 c 258
 38 75 l 258
 38 105 46 110 74 110 c 258
 110 110 l 258
 151 110 158 113 158 153 c 258
 158 1342 l 258
 158 1385 151 1390 109 1390 c 258
 74 1390 l 258
 39 1390 38 1399 38 1435 c 258
 38 1466 l 258
 38 1492 41 1500 66 1500 c 258
 578 1500 l 258
 870 1500 948 1260 948 1090 c 256
 948 926 881 834 771 766 c 256
 737 745 744 718 785 690 c 256
 1009 533 820 110 970 110 c 256
 1002 110 1028 142 1034 242 c 256
 1035 255 1040 258 1047 258 c 266
 1081 258 l 274
 1088 258 1099 255 1098 230 c 256
384 810 m 258
 557 810 l 258
 659 810 748 902 748 1100 c 256
 748 1298 659 1390 557 1390 c 258
 384 1390 l 258
 337 1390 348 1390 348 1343 c 258
 348 858 l 258
 348 817 341 810 384 810 c 258
EndSplineSet
Substitution2: "'c2sc' Capitals to Small Capitals in Latin lookup 1 subtable" r.sc
Substitution2: "'ss01' Style Set 1 lookup 2 subtable" R.alt
EndChar

StartChar: S
Encoding: 83 83 30
Width: 912
Flags: MW
AnchorPoint: "Anchor-0" 471 1500 basechar 0
AnchorPoint: "Anchor-1" 480 0 basechar 0
AnchorPoint: "Anchor-2" 480 0 basechar 0
LayerCount: 2
Fore
SplineSet
694 1047 m 256
 668 1235 561 1408 435 1408 c 256
 323 1408 285 1338 285 1220 c 256
 285 849 865 920 865 340 c 256
 865 140 757 -30 545 -30 c 256
 374 -30 309 49 259 109 c 256
 238 144 233 135 217 95 c 258
 186 18 l 258
 175 -9 173 -10 134 -10 c 258
 103 -10 l 258
 72 -10 65 -6 65 24 c 258
 65 482 l 258
 65 510 75 510 103 510 c 258
 145 510 l 258
 172 510 174 499 177 476 c 256
 194 316 323 72 485 72 c 256
 647 72 695 202 695 320 c 256
 695 760 125 700 125 1180 c 256
 125 1390 223 1520 425 1520 c 256
 521 1520 580 1466 627 1407 c 256
 645 1381 644 1381 659 1417 c 258
 690 1488 l 258
 695 1499 697 1500 713 1500 c 258
 777 1500 l 258
 802 1500 805 1493 805 1467 c 258
 805 1036 l 258
 805 1011 796 1010 771 1010 c 258
 727 1010 l 258
 691 1010 701 1015 694 1047 c 256
EndSplineSet
Substitution2: "'c2sc' Capitals to Small Capitals in Latin lookup 1 subtable" s.sc
EndChar

StartChar: T
Encoding: 84 84 31
Width: 1128
Flags: MW
AnchorPoint: "Anchor-0" 564 1500 basechar 0
AnchorPoint: "Anchor-1" 573 0 basechar 0
AnchorPoint: "Anchor-2" 573 0 basechar 0
LayerCount: 2
Fore
SplineSet
309 41 m 258
 309 75 l 258
 309 107 321 110 351 110 c 258
 415 110 l 258
 463 110 469 115 469 165 c 258
 469 1355 l 258
 469 1393 472 1400 435 1400 c 258
 379 1400 l 258
 267 1400 165 1312 159 1031 c 256
 158 1000 155 990 121 990 c 258
 93 990 l 258
 59 990 59 1011 59 1041 c 258
 59 1447 l 258
 59 1493 62 1500 107 1500 c 258
 1027 1500 l 258
 1066 1500 1069 1493 1069 1453 c 258
 1069 1021 l 258
 1069 992 1061 990 1031 990 c 258
 1007 990 l 258
 970 990 969 1005 968 1037 c 256
 961 1314 879 1400 759 1400 c 258
 687 1400 l 258
 652 1400 659 1393 659 1357 c 258
 659 167 l 258
 659 116 664 110 713 110 c 258
 777 110 l 258
 817 110 819 102 819 61 c 258
 819 42 l 258
 819 2 797 0 761 0 c 258
 355 0 l 258
 316 0 309 3 309 41 c 258
EndSplineSet
Substitution2: "'c2sc' Capitals to Small Capitals in Latin lookup 1 subtable" t.sc
EndChar

StartChar: U
Encoding: 85 85 32
Width: 1130
Flags: MW
AnchorPoint: "Anchor-0" 591 1500 basechar 0
AnchorPoint: "Anchor-1" 581 0 basechar 0
AnchorPoint: "Anchor-2" 581 0 basechar 0
AnchorPoint: "Anchor-3" 866 190 basechar 0
LayerCount: 2
Fore
SplineSet
823 1390 m 258
 755 1390 l 258
 730 1390 725 1396 725 1423 c 258
 725 1461 l 258
 725 1495 733 1500 765 1500 c 258
 1061 1500 l 258
 1095 1500 1105 1497 1105 1461 c 258
 1105 1427 l 258
 1105 1393 1095 1390 1073 1390 c 258
 1029 1390 l 258
 992 1390 985 1387 985 1351 c 258
 985 600 l 258
 985 170 891 -30 555 -30 c 256
 209 -30 145 234 145 600 c 258
 145 1349 l 258
 145 1387 130 1390 95 1390 c 258
 59 1390 l 258
 26 1390 25 1399 25 1433 c 258
 25 1465 l 258
 25 1497 37 1500 67 1500 c 258
 419 1500 l 258
 451 1500 465 1498 465 1463 c 258
 465 1435 l 258
 465 1394 456 1390 417 1390 c 258
 385 1390 l 258
 342 1390 335 1387 335 1345 c 258
 335 620 l 258
 335 316 347 90 585 90 c 256
 823 90 865 236 865 600 c 258
 865 1345 l 258
 865 1384 861 1390 823 1390 c 258
EndSplineSet
Substitution2: "'c2sc' Capitals to Small Capitals in Latin lookup 1 subtable" u.sc
EndChar

StartChar: V
Encoding: 86 86 33
Width: 1210
Flags: MW
AnchorPoint: "Anchor-0" 655 1500 basechar 0
AnchorPoint: "Anchor-1" 601 0 basechar 0
AnchorPoint: "Anchor-2" 601 0 basechar 0
LayerCount: 2
Fore
SplineSet
671 208 m 266
 966 1353 l 258
 974 1382 965 1390 928 1390 c 258
 868 1390 l 258
 852 1390 850 1397 850 1414 c 258
 850 1485 l 258
 850 1492 854 1500 868 1500 c 258
 1171 1500 l 258
 1209 1500 1210 1495 1210 1462 c 258
 1210 1434 l 258
 1210 1406 1205 1390 1175 1390 c 258
 1133 1390 l 258
 1111 1390 1103 1376 1098 1361 c 258
 733 4 l 258
 732 1 730 -10 718 -10 c 258
 527 -10 l 258
 511 -10 505 5 501 16 c 258
 143 1341 l 258
 134 1366 139 1390 101 1390 c 258
 34 1390 l 258
 16 1390 0 1383 0 1409 c 258
 0 1465 l 258
 0 1490 3 1500 25 1500 c 258
 435 1500 l 258
 477 1500 470 1495 470 1454 c 258
 470 1435 l 258
 470 1395 466 1390 431 1390 c 258
 383 1390 l 258
 330 1390 328 1380 339 1334 c 258
 630 194 l 258
 644 134 657 153 671 208 c 266
EndSplineSet
Substitution2: "'c2sc' Capitals to Small Capitals in Latin lookup 1 subtable" v.sc
EndChar

StartChar: W
Encoding: 87 87 34
Width: 1680
Flags: MW
AnchorPoint: "Anchor-0" 846 1500 basechar 0
AnchorPoint: "Anchor-1" 876 0 basechar 0
AnchorPoint: "Anchor-2" 876 0 basechar 0
LayerCount: 2
Fore
SplineSet
628 451 m 258
 791 1146 l 258
 800 1190 795 1212 792 1240 c 258
 764 1352 l 258
 757 1384 745 1390 705 1390 c 258
 717 1390 l 258
 682 1390 680 1398 680 1434 c 258
 680 1452 l 258
 680 1495 686 1500 727 1500 c 258
 1023 1500 l 258
 1054 1500 1060 1494 1060 1462 c 258
 1060 1436 l 258
 1060 1391 1040 1390 1029 1390 c 258
 1001 1390 l 258
 978 1390 956 1385 965 1341 c 258
 1140 486 l 258
 1150 436 1151 364 1164 364 c 256
 1173 364 1185 370 1196 414 c 258
 1382 1358 l 258
 1391 1388 1377 1390 1365 1390 c 258
 1287 1390 l 258
 1272 1390 1270 1398 1270 1434 c 258
 1270 1450 l 258
 1270 1491 1272 1500 1313 1500 c 258
 1601 1500 l 258
 1641 1500 1650 1498 1650 1458 c 258
 1650 1434 l 258
 1650 1395 1643 1390 1605 1390 c 258
 1567 1390 l 258
 1524 1390 1521 1384 1516 1352 c 258
 1234 8 l 258
 1229 -19 1225 -20 1190 -20 c 258
 1118 -20 l 258
 1082 -20 1069 -16 1068 16 c 256
 908 826 l 258
 902 882 889 885 877 885 c 256
 858 886 848 851 840 796 c 258
 650 20 l 258
 648 -13 641 -20 596 -20 c 258
 534 -20 l 258
 496 -20 487 -7 481 20 c 258
 159 1350 l 258
 147 1383 137 1390 93 1390 c 258
 71 1390 l 258
 36 1390 30 1394 30 1428 c 258
 30 1454 l 258
 30 1494 34 1500 73 1500 c 258
 423 1500 l 258
 460 1500 478 1490 478 1450 c 258
 478 1425 l 258
 478 1404 462 1390 447 1390 c 266
 359 1390 l 258
 332 1390 340 1376 353 1338 c 258
 545 527 l 258
 565 464 570 375 593 375 c 256
 612 375 618 409 628 451 c 258
EndSplineSet
Substitution2: "'c2sc' Capitals to Small Capitals in Latin lookup 1 subtable" w.sc
EndChar

StartChar: X
Encoding: 88 88 35
Width: 1250
Flags: MW
AnchorPoint: "Anchor-0" 646 1500 basechar 0
AnchorPoint: "Anchor-1" 616 0 basechar 0
AnchorPoint: "Anchor-2" 616 0 basechar 0
LayerCount: 2
Fore
SplineSet
10 34 m 258
 10 87 l 258
 10 105 19 110 35 110 c 258
 103 110 l 258
 150 110 161 112 174 141 c 258
 513 697 l 258
 536 740 523 776 502 817 c 258
 207 1360 l 258
 194 1385 188 1390 176 1390 c 258
 126 1390 l 258
 95 1390 80 1392 80 1426 c 258
 80 1468 l 258
 80 1494 85 1500 110 1500 c 258
 507 1500 l 258
 530 1500 540 1499 540 1476 c 258
 540 1421 l 258
 540 1396 535 1390 511 1390 c 258
 447 1390 l 258
 419 1390 406 1385 418 1361 c 258
 629 930 l 258
 661 875 648 873 682 930 c 258
 895 1358 l 258
 906 1381 905 1390 875 1390 c 258
 790 1390 l 258
 780 1390 770 1390 770 1420 c 258
 770 1469 l 258
 770 1495 777 1500 801 1500 c 258
 1125 1500 l 258
 1160 1500 1170 1497 1170 1459 c 258
 1170 1421 l 258
 1170 1395 1162 1390 1137 1390 c 258
 1071 1390 l 258
 1035 1390 1029 1384 1018 1362 c 258
 761 859 l 258
 742 808 718 800 755 727 c 258
 1099 148 l 258
 1114 115 1135 110 1169 110 c 258
 1211 110 l 258
 1230 110 1240 106 1240 75 c 258
 1240 38 l 258
 1240 8 1237 0 1208 0 c 258
 811 0 l 258
 787 0 780 4 780 27 c 258
 780 79 l 258
 780 106 791 110 796 110 c 258
 894 110 l 258
 907 110 893 124 884 141 c 258
 634 601 l 258
 604 655 605 648 576 601 c 258
 310 154 l 258
 289 119 318 110 338 110 c 258
 406 110 l 258
 413 110 420 106 420 79 c 258
 420 32 l 258
 420 7 416 0 392 0 c 258
 40 0 l 258
 14 0 10 7 10 34 c 258
EndSplineSet
Substitution2: "'c2sc' Capitals to Small Capitals in Latin lookup 1 subtable" x.sc
EndChar

StartChar: Y
Encoding: 89 89 36
Width: 1140
Flags: MW
AnchorPoint: "Anchor-0" 576 1500 basechar 0
AnchorPoint: "Anchor-1" 591 0 basechar 0
AnchorPoint: "Anchor-2" 591 0 basechar 0
LayerCount: 2
Fore
SplineSet
370 34 m 258
 370 70 l 258
 370 107 380 110 414 110 c 258
 450 110 l 258
 484 110 490 115 490 148 c 258
 490 540 l 258
 490 600 481 623 463 658 c 258
 118 1354 l 258
 103 1387 94 1390 40 1390 c 258
 34 1390 l 258
 9 1390 0 1391 0 1416 c 258
 0 1462 l 258
 0 1493 4 1500 34 1500 c 258
 421 1500 l 258
 450 1500 455 1494 455 1464 c 258
 455 1432 l 258
 455 1397 447 1390 427 1390 c 258
 369 1390 l 258
 325 1390 321 1380 334 1352 c 258
 576 820 l 274
 606 769 607 769 634 822 c 266
 846 1348 l 258
 863 1391 858 1390 810 1390 c 258
 724 1390 l 258
 714 1390 710 1395 710 1424 c 258
 710 1458 l 258
 710 1492 713 1500 746 1500 c 258
 1108 1500 l 258
 1139 1500 1140 1491 1140 1460 c 258
 1140 1432 l 258
 1140 1394 1133 1390 1094 1390 c 258
 1028 1390 l 258
 1000 1390 993 1375 975 1332 c 258
 712 704 l 258
 697 666 680 653 680 592 c 258
 680 150 l 258
 680 110 680 110 720 110 c 258
 790 110 l 258
 812 110 820 107 820 86 c 258
 820 40 l 258
 820 1 806 0 770 0 c 258
 416 0 l 258
 386 0 370 1 370 34 c 258
EndSplineSet
Substitution2: "'c2sc' Capitals to Small Capitals in Latin lookup 1 subtable" y.sc
EndChar

StartChar: Z
Encoding: 90 90 37
Width: 1015
Flags: MW
AnchorPoint: "Anchor-0" 531 1500 basechar 0
AnchorPoint: "Anchor-1" 571 0 basechar 0
AnchorPoint: "Anchor-2" 571 0 basechar 0
LayerCount: 2
Fore
SplineSet
133 1500 m 258
 897 1500 l 258
 922 1500 925 1492 925 1466 c 258
 925 1364 l 258
 925 1316 900 1268 884 1238 c 258
 343 234 l 258
 317 185 299 160 299 132 c 256
 299 119 307 110 337 110 c 258
 595 110 l 258
 856 110 859 188 865 468 c 256
 866 494 866 510 896 510 c 258
 931 510 l 258
 963 510 965 497 965 468 c 258
 965 58 l 258
 965 4 959 0 903 0 c 258
 83 0 l 258
 55 0 45 -6 45 24 c 258
 45 62 l 258
 45 100 54 114 67 137 c 258
 699 1278 l 258
 721 1319 728 1339 728 1373 c 256
 728 1388 715 1390 703 1390 c 258
 475 1390 l 258
 264 1390 181 1312 175 1068 c 256
 175 1031 170 1030 133 1030 c 258
 115 1030 l 258
 78 1030 75 1041 75 1076 c 258
 75 1452 l 258
 75 1500 85 1500 133 1500 c 258
EndSplineSet
Substitution2: "'c2sc' Capitals to Small Capitals in Latin lookup 1 subtable" z.sc
EndChar

StartChar: a
Encoding: 97 97 38
Width: 852
Flags: MW
AnchorPoint: "Anchor-0" 450 1040 basechar 0
AnchorPoint: "Anchor-1" 373 0 basechar 0
AnchorPoint: "Anchor-2" 843 90 basechar 0
AnchorPoint: "Anchor-3" 843 90 basechar 0
LayerCount: 2
Fore
SplineSet
58 246 m 0
 58 434 182 598 476 598 c 2
 524 598 l 2
 547 598 550 600 550 624 c 2
 550 734 l 2
 550 868 524 968 394 968 c 0
 326 968 260 940 260 900 c 0
 260 864 346 864 346 786 c 0
 346 718 304 670 236 670 c 0
 174 670 118 728 118 816 c 0
 118 950 232 1060 434 1060 c 0
 684 1060 730 906 730 744 c 2
 730 142 l 2
 730 102 733 74 752 74 c 0
 777 74 790 153 793 208 c 0
 794 222 798 227 820 225 c 2
 844 223 l 2
 855 222 857 213 857 199 c 0
 856 110 825 -20 704 -20 c 0
 703 -20 l 0
 582 -20 566 65 558 114 c 0
 554 138 544 143 533 113 c 0
 517 69 469 -20 328 -20 c 0
 150 -20 58 78 58 246 c 0
252 276 m 0
 252 142 298 92 368 92 c 0
 464 92 550 200 550 382 c 2
 550 502 l 2
 550 519 547 522 530 522 c 2
 476 522 l 2
 344 522 252 430 252 276 c 0
EndSplineSet
Substitution2: "'smcp' Lowercase to Small Capitals in Latin lookup 0 subtable" a.sc
EndChar

StartChar: b
Encoding: 98 98 39
Width: 923
Flags: MW
AnchorPoint: "Anchor-0" 739 1040 basechar 0
AnchorPoint: "Anchor-1" 552 0 basechar 0
AnchorPoint: "Anchor-2" 552 0 basechar 0
LayerCount: 2
Fore
SplineSet
292 520 m 256
 292 222 376 84 478 84 c 256
 596 84 668 222 668 520 c 256
 668 818 606 956 488 956 c 256
 386 956 292 818 292 520 c 256
49 1450 m 258
 36 1450 32 1456 32 1470 c 258
 32 1545 l 258
 32 1555 33 1560 43 1560 c 258
 276 1560 l 258
 286 1560 292 1558 292 1547 c 258
 292 927 l 258
 292 897 294 893 302 910 c 256
 338 981 410 1058 544 1058 c 256
 762 1058 868 860 868 520 c 256
 868 180 782 -20 544 -20 c 256
 424 -20 344 42 308 117 c 256
 296 142 292 140 292 92 c 258
 292 36 l 258
 292 16 288 0 267 0 c 258
 51 0 l 258
 35 0 32 1 32 17 c 258
 32 94 l 258
 32 107 37 110 51 110 c 258
 95 110 l 258
 109 110 112 113 112 128 c 258
 112 1430 l 258
 112 1446 108 1450 96 1450 c 258
 49 1450 l 258
EndSplineSet
Substitution2: "'smcp' Lowercase to Small Capitals in Latin lookup 0 subtable" b.sc
EndChar

StartChar: c
Encoding: 99 99 40
Width: 787
Flags: MW
AnchorPoint: "Anchor-0" 423 1040 basechar 0
AnchorPoint: "Anchor-1" 421 0 basechar 0
AnchorPoint: "Anchor-2" 421 0 basechar 0
LayerCount: 2
Fore
SplineSet
52 520 m 0
 52 820 158 1060 460 1060 c 0
 664 1060 742 926 742 782 c 0
 742 686 672 630 614 630 c 0
 560 630 500 672 500 746 c 0
 500 828 594 828 594 874 c 0
 594 928 548 966 470 966 c 0
 272 966 254 748 254 520 c 0
 254 292 282 78 440 78 c 0
 549 78 612 188 624 327 c 0
 625 341 633 346 652 346 c 2
 714 346 l 2
 735 346 734 344 733 328 c 0
 719 134 621 -20 426 -20 c 0
 114 -20 52 220 52 520 c 0
EndSplineSet
Substitution2: "'smcp' Lowercase to Small Capitals in Latin lookup 0 subtable" c.sc
EndChar

StartChar: d
Encoding: 100 100 41
Width: 924
Flags: MW
AnchorPoint: "Anchor-0" 364 1040 basechar 0
AnchorPoint: "Anchor-1" 485 0 basechar 0
AnchorPoint: "Anchor-2" 485 0 basechar 0
AnchorPoint: "Anchor-3" 972 1040 basechar 0
LayerCount: 2
Fore
SplineSet
258 520 m 256
 258 212 320 84 448 84 c 256
 570 84 634 212 634 520 c 256
 634 828 570 956 448 956 c 256
 330 956 258 828 258 520 c 256
58 520 m 256
 58 860 164 1059 392 1058 c 256
 511 1058 579 995 616 925 c 256
 630 899 634 900 634 953 c 258
 634 1423 l 258
 634 1449 629 1450 602 1450 c 258
 572 1450 l 258
 556 1450 554 1458 554 1475 c 258
 554 1541 l 258
 554 1557 562 1560 577 1560 c 258
 775 1560 l 258
 800 1560 814 1557 814 1530 c 258
 814 142 l 258
 814 113 819 110 849 110 c 258
 862 110 l 258
 887 110 894 109 894 84 c 258
 894 29 l 258
 894 4 892 0 868 0 c 258
 668 0 l 258
 639 0 634 7 634 36 c 258
 634 97 l 258
 634 131 623 143 608 113 c 256
 571 40 511 -20 402 -20 c 256
 164 -20 58 180 58 520 c 256
EndSplineSet
Substitution2: "'smcp' Lowercase to Small Capitals in Latin lookup 0 subtable" d.sc
EndChar

StartChar: e
Encoding: 101 101 42
Width: 794
Flags: MW
AnchorPoint: "Anchor-0" 380 1040 basechar 0
AnchorPoint: "Anchor-1" 412 0 basechar 0
AnchorPoint: "Anchor-2" 643 102 basechar 0
AnchorPoint: "Anchor-3" 643 102 basechar 0
LayerCount: 2
Fore
SplineSet
50 500 m 0
 50 820 143 1060 425 1060 c 0
 701 1060 744 788 744 551 c 0
 744 524 736 522 708 522 c 2
 285 522 l 2
 263 522 252 516 252 493 c 0
 252 272 273 78 440 78 c 0
 578 78 626 205 636 322 c 0
 637 337 643 346 663 346 c 2
 721 346 l 2
 741 346 742 340 741 325 c 0
 726 152 659 -20 416 -20 c 0
 114 -20 50 220 50 500 c 0
284 608 m 2
 526 608 l 2
 552 608 555 610 555 624 c 0
 555 756 552 972 420 972 c 0
 285 972 256 790 256 633 c 0
 256 613 260 608 284 608 c 2
EndSplineSet
Substitution2: "'smcp' Lowercase to Small Capitals in Latin lookup 0 subtable" e.sc
EndChar

StartChar: f
Encoding: 102 102 43
Width: 523
Flags: MW
AnchorPoint: "Anchor-0" 410 1692 basechar 0
AnchorPoint: "Anchor-1" 192 0 basechar 0
AnchorPoint: "Anchor-2" 192 0 basechar 0
LayerCount: 2
Fore
SplineSet
288 900 m 2
 288 146 l 2
 288 114 289 110 321 110 c 2
 389 110 l 2
 408 110 428 109 428 88 c 2
 428 30 l 2
 428 5 420 0 396 0 c 2
 51 0 l 2
 30 0 28 4 28 26 c 2
 28 88 l 2
 28 108 38 110 56 110 c 2
 86 110 l 2
 107 110 108 117 108 137 c 2
 108 896 l 2
 108 921 107 930 82 930 c 2
 53 930 l 2
 33 930 28 932 28 954 c 2
 28 1016 l 2
 28 1037 35 1040 55 1040 c 2
 82 1040 l 2
 106 1040 108 1043 108 1068 c 2
 108 1144 l 2
 108 1406 142 1580 382 1580 c 0
 554 1580 638 1472 638 1358 c 0
 638 1272 590 1226 520 1226 c 0
 450 1226 404 1266 404 1322 c 0
 404 1392 456 1396 456 1436 c 0
 456 1460 430 1490 366 1490 c 0
 186 1490 288 1254 288 1100 c 2
 288 1068 l 2
 288 1048 292 1040 313 1040 c 2
 432 1040 l 2
 459 1040 468 1039 468 1010 c 2
 468 959 l 2
 468 931 465 930 437 930 c 2
 313 930 l 2
 291 930 288 923 288 900 c 2
EndSplineSet
Substitution2: "'smcp' Lowercase to Small Capitals in Latin lookup 0 subtable" f.sc
EndChar

StartChar: g
Encoding: 103 103 44
Width: 769
Flags: MW
AnchorPoint: "Anchor-0" 107 1040 basechar 0
AnchorPoint: "Anchor-1" 311 -565 basechar 0
AnchorPoint: "Anchor-2" 311 -565 basechar 0
LayerCount: 2
Fore
SplineSet
235 690 m 0
 235 492 270 400 368 400 c 0
 466 400 501 492 501 690 c 0
 501 888 466 980 368 980 c 0
 270 980 235 888 235 690 c 0
55 690 m 0
 55 910 156 1060 368 1060 c 0
 387 1060 391 1059 398 1058 c 0
 414 1056 419 1052 420 1068 c 0
 428 1254 485 1340 605 1340 c 0
 697 1340 769 1272 769 1168 c 0
 769 1100 723 1058 663 1058 c 0
 607 1058 567 1096 567 1146 c 0
 567 1210 605 1204 605 1236 c 0
 605 1250 598 1256 584 1256 c 0
 557 1256 506 1229 505 1051 c 0
 505 1038 499 1031 511 1025 c 0
 581 990 681 872 681 690 c 0
 681 470 550 320 368 320 c 0
 361 320 355 320 351 320 c 0
 343 320 340 319 320 310 c 0
 259 282 205 251 205 212 c 0
 205 138 289 138 349 138 c 0
 359 138 435 138 441 138 c 0
 621 138 735 78 735 -144 c 0
 735 -366 605 -520 345 -520 c 0
 149 -520 35 -410 35 -240 c 0
 35 -127 88 -66 169 -10 c 0
 194 8 189 1 163 13 c 0
 106 38 69 84 69 168 c 0
 69 244 126 309 220 350 c 0
 256 365 248 365 218 380 c 0
 114 433 55 554 55 690 c 0
613 -214 m 0
 613 -86 575 -18 465 -18 c 0
 423 -18 371 -18 357 -18 c 0
 337 -18 333 -18 287 -14 c 0
 271 -12 266 -13 260 -23 c 0
 230 -74 210 -130 210 -214 c 0
 210 -350 275 -426 397 -426 c 0
 505 -426 613 -358 613 -214 c 0
EndSplineSet
Substitution2: "'smcp' Lowercase to Small Capitals in Latin lookup 0 subtable" g.sc
EndChar

StartChar: h
Encoding: 104 104 45
Width: 922
Flags: MW
AnchorPoint: "Anchor-0" 800 1059 basechar 0
AnchorPoint: "Anchor-1" 551 0 basechar 0
AnchorPoint: "Anchor-2" 551 0 basechar 0
LayerCount: 2
Fore
SplineSet
82 1450 m 258
 60 1450 l 258
 32 1450 32 1459 32 1498 c 258
 32 1513 l 258
 32 1551 41 1560 75 1560 c 258
 225 1560 l 258
 265 1560 288 1552 288 1501 c 258
 288 954 l 258
 288 886 283 883 313 926 c 256
 360 995 450 1060 558 1060 c 256
 762 1060 807 942 807 728 c 258
 807 156 l 258
 807 116 818 110 850 110 c 258
 868 110 l 258
 894 110 897 103 897 75 c 258
 897 42 l 258
 897 -2 899 0 856 0 c 258
 548 0 l 258
 520 0 515 4 515 33 c 258
 515 69 l 258
 515 91 514 110 531 110 c 258
 601 110 l 258
 618 110 632 115 632 153 c 258
 632 706 l 258
 632 854 601 936 499 936 c 256
 383 936 292 802 292 646 c 258
 292 144 l 258
 292 120 293 110 303 110 c 258
 381 110 l 258
 404 110 403 105 403 68 c 258
 403 31 l 258
 403 8 391 0 369 0 c 258
 64 0 l 258
 31 0 32 0 32 34 c 258
 32 79 l 258
 32 109 32 110 63 110 c 258
 82 110 l 258
 104 110 112 106 112 141 c 258
 112 1411 l 258
 112 1445 106 1450 82 1450 c 258
EndSplineSet
Substitution2: "'smcp' Lowercase to Small Capitals in Latin lookup 0 subtable" h.sc
EndChar

StartChar: i
Encoding: 105 105 46
Width: 420
Flags: MW
AnchorPoint: "Anchor-1" 212 0 basechar 0
AnchorPoint: "Anchor-2" 212 0 basechar 0
LayerCount: 2
Fore
SplineSet
90 1400 m 0
 90 1466 144 1520 210 1520 c 0
 276 1520 330 1466 330 1400 c 0
 330 1334 276 1280 210 1280 c 0
 144 1280 90 1334 90 1400 c 0
106 930 m 2
 71 930 l 2
 51 930 50 934 50 954 c 2
 50 1014 l 2
 50 1034 55 1040 74 1040 c 2
 291 1040 l 2
 307 1040 310 1036 310 1019 c 2
 310 134 l 2
 310 117 315 110 331 110 c 2
 366 110 l 2
 385 110 390 109 390 90 c 2
 390 24 l 2
 390 5 390 0 371 0 c 2
 81 0 l 2
 58 0 50 2 50 24 c 2
 50 80 l 2
 50 106 59 110 83 110 c 2
 107 110 l 2
 129 110 130 116 130 138 c 2
 130 906 l 2
 130 926 124 930 106 930 c 2
EndSplineSet
Substitution2: "'smcp' Lowercase to Small Capitals in Latin lookup 0 subtable" i.sc
EndChar

StartChar: j
Encoding: 106 106 47
Width: 436
Flags: MW
AnchorPoint: "Anchor-1" 117 -565 basechar 0
AnchorPoint: "Anchor-2" 117 -565 basechar 0
LayerCount: 2
Fore
SplineSet
99 1400 m 0
 99 1466 153 1520 219 1520 c 0
 285 1520 339 1466 339 1400 c 0
 339 1334 285 1280 219 1280 c 0
 153 1280 99 1334 99 1400 c 0
125 930 m 2
 88 930 l 2
 69 930 65 931 65 950 c 2
 65 1017 l 2
 65 1037 68 1040 88 1040 c 2
 301 1040 l 2
 319 1040 325 1037 325 1018 c 2
 325 22 l 2
 325 -278 323 -520 61 -520 c 0
 -87 -520 -151 -404 -151 -280 c 0
 -151 -204 -93 -138 -23 -138 c 0
 45 -138 83 -184 83 -250 c 0
 83 -320 25 -338 25 -378 c 0
 25 -404 37 -423 81 -423 c 0
 293 -423 145 40 145 228 c 2
 145 911 l 2
 145 926 139 930 125 930 c 2
EndSplineSet
Substitution2: "'smcp' Lowercase to Small Capitals in Latin lookup 0 subtable" j.sc
EndChar

StartChar: k
Encoding: 107 107 48
Width: 894
Flags: MW
AnchorPoint: "Anchor-0" 602 1040 basechar 0
AnchorPoint: "Anchor-1" 428 0 basechar 0
AnchorPoint: "Anchor-2" 428 0 basechar 0
LayerCount: 2
Fore
SplineSet
73 1450 m 2
 58 1450 l 2
 34 1450 32 1453 32 1476 c 2
 32 1524 l 2
 32 1552 34 1560 61 1560 c 2
 245 1560 l 2
 275 1560 292 1554 292 1521 c 2
 292 648 l 2
 292 612 292 587 311 610 c 2
 551 899 l 2
 566 917 569 930 541 930 c 2
 483 930 l 2
 451 930 450 939 450 972 c 2
 450 1010 l 2
 450 1033 453 1040 475 1040 c 2
 787 1040 l 2
 810 1040 816 1034 816 1010 c 2
 816 960 l 2
 816 932 808 930 779 930 c 2
 751 930 l 2
 721 930 704 925 691 910 c 2
 469 643 l 2
 459 631 468 617 485 592 c 2
 800 134 l 2
 817 116 822 110 859 110 c 2
 871 110 l 2
 889 110 894 104 894 85 c 2
 894 38 l 2
 894 6 885 0 855 0 c 2
 509 0 l 2
 481 0 480 9 480 38 c 2
 480 75 l 2
 480 104 483 110 511 110 c 2
 560 110 l 2
 604 110 597 118 580 136 c 2
 311 546 l 2
 299 564 292 554 292 518 c 2
 292 146 l 2
 292 119 296 110 325 110 c 2
 345 110 l 2
 366 110 382 107 382 84 c 2
 382 22 l 2
 382 2 374 0 353 0 c 2
 57 0 l 2
 36 0 32 11 32 30 c 2
 32 92 l 2
 32 109 41 110 59 110 c 2
 77 110 l 2
 104 110 112 112 112 138 c 2
 112 1418 l 2
 112 1447 100 1450 73 1450 c 2
EndSplineSet
Substitution2: "'smcp' Lowercase to Small Capitals in Latin lookup 0 subtable" k.sc
EndChar

StartChar: l
Encoding: 108 108 49
Width: 400
Flags: MW
AnchorPoint: "Anchor-0" 189 1696 basechar 0
AnchorPoint: "Anchor-1" 196 0 basechar 0
AnchorPoint: "Anchor-2" 196 0 basechar 0
AnchorPoint: "Anchor-3" 672 1040 basechar 0
LayerCount: 2
Fore
SplineSet
88 1450 m 258
 53 1450 l 258
 42 1450 30 1464 30 1492 c 258
 30 1530 l 258
 30 1558 46 1560 71 1560 c 258
 245 1560 l 258
 280 1560 290 1559 290 1524 c 258
 290 154 l 258
 290 119 284 110 311 110 c 258
 343 110 l 258
 362 110 370 105 370 84 c 258
 370 40 l 258
 370 2 358 0 323 0 c 258
 69 0 l 258
 39 0 30 4 30 36 c 258
 30 76 l 258
 30 100 31 110 55 110 c 258
 99 110 l 258
 109 110 110 112 110 144 c 258
 110 1416 l 258
 110 1445 99 1450 88 1450 c 258
EndSplineSet
Substitution2: "'smcp' Lowercase to Small Capitals in Latin lookup 0 subtable" l.sc
EndChar

StartChar: m
Encoding: 109 109 50
Width: 1239
Flags: MW
AnchorPoint: "Anchor-0" 677 1040 basechar 0
AnchorPoint: "Anchor-1" 638 0 basechar 0
AnchorPoint: "Anchor-2" 638 0 basechar 0
LayerCount: 2
Fore
SplineSet
48 30 m 2
 48 88 l 2
 48 106 55 110 74 110 c 2
 76 110 l 2
 101 110 108 114 108 148 c 2
 108 898 l 2
 108 927 106 930 80 930 c 2
 78 930 l 2
 55 930 48 934 48 966 c 2
 48 998 l 2
 48 1033 52 1040 86 1040 c 2
 248 1040 l 2
 277 1040 288 1037 288 1006 c 2
 288 946 l 2
 288 852 296 877 318 915 c 0
 368 1001 432 1060 526 1060 c 0
 621 1060 667 1003 696 910 c 0
 707 873 718 891 732 913 c 0
 786 999 848 1060 948 1060 c 0
 1102 1060 1152 952 1152 738 c 2
 1152 154 l 2
 1152 118 1156 110 1184 110 c 2
 1192 110 l 2
 1211 110 1214 102 1214 82 c 2
 1214 44 l 2
 1214 4 1206 0 1168 0 c 2
 936 0 l 2
 897 0 886 2 886 44 c 2
 886 72 l 2
 886 104 891 110 922 110 c 2
 926 110 l 2
 964 110 972 113 972 150 c 2
 972 716 l 2
 972 864 964 936 892 936 c 0
 796 936 720 772 720 566 c 2
 720 148 l 2
 720 111 735 110 748 110 c 2
 758 110 l 2
 767 110 782 108 782 76 c 2
 782 40 l 2
 782 8 778 0 744 0 c 2
 518 0 l 2
 490 0 480 4 480 34 c 2
 480 64 l 2
 480 103 494 110 512 110 c 2
 516 110 l 2
 533 110 540 114 540 150 c 2
 540 716 l 2
 540 864 522 936 460 936 c 0
 394 936 288 772 288 566 c 2
 288 152 l 2
 288 110 288 110 330 110 c 2
 338 110 l 2
 366 110 374 106 374 76 c 2
 374 36 l 2
 374 17 371 0 350 0 c 2
 76 0 l 2
 54 0 48 6 48 30 c 2
EndSplineSet
Substitution2: "'smcp' Lowercase to Small Capitals in Latin lookup 0 subtable" m.sc
EndChar

StartChar: n
Encoding: 110 110 51
Width: 938
Flags: MW
AnchorPoint: "Anchor-0" 474 1040 basechar 0
AnchorPoint: "Anchor-1" 463 0 basechar 0
AnchorPoint: "Anchor-2" 463 0 basechar 0
LayerCount: 2
Fore
SplineSet
98 930 m 258
 76 930 l 258
 48 930 48 939 48 978 c 258
 48 993 l 258
 48 1031 57 1040 91 1040 c 258
 241 1040 l 258
 281 1040 304 1032 304 981 c 258
 304 934 l 258
 304 866 299 863 329 906 c 256
 376 975 466 1060 574 1060 c 256
 778 1060 823 942 823 728 c 258
 823 156 l 258
 823 116 834 110 866 110 c 258
 884 110 l 258
 910 110 913 103 913 75 c 258
 913 42 l 258
 913 -2 915 0 872 0 c 258
 564 0 l 258
 536 0 531 4 531 33 c 258
 531 69 l 258
 531 91 530 110 547 110 c 258
 637 110 l 258
 654 110 648 115 648 153 c 258
 648 706 l 258
 648 854 617 936 515 936 c 256
 399 936 308 802 308 646 c 258
 308 144 l 258
 308 120 309 110 319 110 c 258
 397 110 l 258
 420 110 419 105 419 68 c 258
 419 31 l 258
 419 8 407 0 385 0 c 258
 80 0 l 258
 47 0 48 0 48 34 c 258
 48 79 l 258
 48 109 48 110 79 110 c 258
 98 110 l 258
 120 110 128 106 128 141 c 258
 128 891 l 258
 128 925 122 930 98 930 c 258
EndSplineSet
Substitution2: "'smcp' Lowercase to Small Capitals in Latin lookup 0 subtable" n.sc
EndChar

StartChar: o
Encoding: 111 111 52
Width: 860
Flags: MW
AnchorPoint: "Anchor-0" 430 1040 basechar 0
AnchorPoint: "Anchor-1" 427 0 basechar 0
AnchorPoint: "Anchor-2" 427 0 basechar 0
LayerCount: 2
Fore
SplineSet
252 540 m 0
 252 292 282 70 430 70 c 0
 578 70 608 292 608 500 c 0
 608 748 578 970 430 970 c 0
 282 970 252 748 252 540 c 0
52 500 m 0
 52 820 158 1060 430 1060 c 0
 702 1060 808 820 808 540 c 0
 808 220 702 -20 430 -20 c 0
 158 -20 52 220 52 500 c 0
EndSplineSet
Substitution2: "'smcp' Lowercase to Small Capitals in Latin lookup 0 subtable" o.sc
EndChar

StartChar: p
Encoding: 112 112 53
Width: 920
Flags: MW
AnchorPoint: "Anchor-0" 655 1040 basechar 0
AnchorPoint: "Anchor-1" 694 0 basechar 0
AnchorPoint: "Anchor-2" 694 0 basechar 0
LayerCount: 2
Fore
SplineSet
292 520 m 256
 292 192 366 84 488 84 c 256
 606 84 668 192 668 520 c 256
 668 848 606 956 488 956 c 256
 376 956 292 848 292 520 c 256
32 970 m 258
 32 1008 l 258
 32 1037 43 1040 69 1040 c 258
 255 1040 l 258
 286 1040 292 1036 292 1006 c 258
 292 952 l 258
 292 902 298 903 310 926 c 256
 355 1014 439 1060 544 1060 c 256
 762 1060 868 860 868 520 c 256
 868 180 762 -18 544 -18 c 256
 440 -18 379 19 332 78 c 256
 298 120 292 124 292 18 c 258
 292 -344 l 258
 292 -385 299 -390 329 -390 c 258
 337 -390 l 258
 367 -390 372 -396 372 -428 c 258
 372 -469 l 258
 372 -498 369 -500 341 -500 c 258
 63 -500 l 258
 36 -500 32 -489 32 -464 c 258
 32 -424 l 258
 32 -398 34 -390 59 -390 c 258
 83 -390 l 258
 110 -390 112 -382 112 -344 c 258
 112 892 l 258
 112 927 100 930 87 930 c 258
 47 930 l 258
 35 930 32 940 32 970 c 258
EndSplineSet
Substitution2: "'smcp' Lowercase to Small Capitals in Latin lookup 0 subtable" p.sc
EndChar

StartChar: q
Encoding: 113 113 54
Width: 911
Flags: MW
AnchorPoint: "Anchor-0" 453 1040 basechar 0
AnchorPoint: "Anchor-1" 362 0 basechar 0
AnchorPoint: "Anchor-2" 362 0 basechar 0
LayerCount: 2
Fore
SplineSet
628 520 m 256
 628 828 554 956 422 956 c 256
 314 956 252 828 252 520 c 256
 252 212 314 84 422 84 c 256
 554 84 628 212 628 520 c 256
864 -390 m 258
 887 -390 l 258
 888 -390 888 -396 888 -416 c 258
 888 -464 l 258
 888 -498 880 -500 845 -500 c 258
 585 -500 l 258
 554 -500 548 -494 548 -462 c 258
 548 -430 l 258
 548 -397 551 -390 583 -390 c 258
 581 -390 l 258
 625 -390 628 -381 628 -336 c 258
 628 64 l 258
 628 136 618 129 601 99 c 256
 554 17 479 -18 366 -18 c 256
 158 -18 52 180 52 520 c 256
 52 860 178 1060 386 1060 c 256
 497 1060 562 1007 599 946 c 256
 617 917 628 912 628 988 c 258
 628 998 l 258
 628 1037 645 1040 685 1040 c 258
 847 1040 l 258
 874 1040 888 1038 888 1008 c 258
 888 970 l 258
 888 939 870 930 857 930 c 258
 842 930 l 258
 829 930 808 924 808 892 c 258
 808 -348 l 258
 808 -389 822 -390 864 -390 c 258
EndSplineSet
Substitution2: "'smcp' Lowercase to Small Capitals in Latin lookup 0 subtable" q.sc
EndChar

StartChar: r
Encoding: 114 114 55
Width: 631
Flags: MW
AnchorPoint: "Anchor-0" 355 1040 basechar 0
AnchorPoint: "Anchor-1" 137 0 basechar 0
AnchorPoint: "Anchor-2" 137 0 basechar 0
LayerCount: 2
Fore
SplineSet
130 892 m 2
 130 924 125 930 94 930 c 2
 80 930 l 2
 51 930 50 938 50 968 c 2
 50 1005 l 2
 50 1033 54 1040 82 1040 c 2
 255 1040 l 2
 278 1040 291 1037 291 1012 c 2
 291 977 l 2
 291 943 298 942 320 973 c 0
 363 1034 409 1060 470 1060 c 0
 542 1060 606 1004 606 918 c 0
 606 844 562 800 492 800 c 0
 424 800 390 850 390 902 c 0
 390 911 391 914 391 920 c 0
 391 930 386 932 380 932 c 0
 354 932 310 862 310 656 c 2
 310 151 l 2
 310 120 311 110 342 110 c 2
 374 110 l 2
 399 110 400 101 400 76 c 2
 400 31 l 2
 400 7 397 0 374 0 c 2
 78 0 l 2
 60 0 50 1 50 19 c 2
 50 82 l 2
 50 104 58 110 78 110 c 2
 89 110 l 2
 119 110 130 116 130 145 c 2
 130 892 l 2
EndSplineSet
Substitution2: "'smcp' Lowercase to Small Capitals in Latin lookup 0 subtable" r.sc
EndChar

StartChar: s
Encoding: 115 115 56
Width: 728
Flags: MW
AnchorPoint: "Anchor-0" 503 1040 basechar 0
AnchorPoint: "Anchor-1" 373 0 basechar 0
AnchorPoint: "Anchor-2" 373 0 basechar 0
LayerCount: 2
Fore
SplineSet
524 729 m 0
 476 877 429 952 344 952 c 0
 288 952 238 921 238 837 c 0
 238 617 678 580 678 244 c 0
 678 56 578 -24 434 -24 c 0
 344 -24 281 17 230 81 c 0
 212 103 198 103 189 76 c 2
 166 4 l 2
 161 -11 150 -20 129 -20 c 2
 83 -20 l 2
 63 -20 58 -13 58 7 c 2
 58 315 l 2
 58 339 63 346 86 346 c 2
 147 346 l 2
 169 346 174 335 179 319 c 0
 231 158 302 80 398 80 c 0
 468 80 512 124 512 206 c 0
 512 440 82 448 82 810 c 0
 82 958 172 1064 312 1064 c 0
 392 1064 448 1021 481 966 c 0
 497 940 501 933 512 969 c 2
 535 1038 l 2
 541 1056 546 1060 571 1060 c 2
 616 1060 l 2
 636 1060 642 1054 642 1032 c 2
 642 725 l 2
 642 703 636 700 613 700 c 2
 557 700 l 2
 529 700 530 709 524 729 c 0
EndSplineSet
Substitution2: "'smcp' Lowercase to Small Capitals in Latin lookup 0 subtable" s.sc
EndChar

StartChar: t
Encoding: 116 116 57
Width: 515
Flags: MW
AnchorPoint: "Anchor-0" 302 1277 basechar 0
AnchorPoint: "Anchor-1" 315 0 basechar 0
AnchorPoint: "Anchor-2" 315 0 basechar 0
AnchorPoint: "Anchor-3" 492 1153 basechar 0
LayerCount: 2
Fore
SplineSet
499 225 m 0
 488 104 459 -24 293 -24 c 0
 149 -24 101 62 101 172 c 2
 101 896 l 2
 101 920 93 930 69 930 c 2
 50 930 l 2
 22 930 15 933 15 960 c 2
 15 1014 l 2
 15 1039 20 1040 45 1040 c 0
 119 1040 126 1058 179 1291 c 0
 184 1313 186 1320 215 1320 c 2
 255 1320 l 2
 275 1320 281 1311 281 1291 c 2
 281 1071 l 2
 281 1043 294 1040 320 1040 c 2
 462 1040 l 2
 488 1040 495 1035 495 1007 c 2
 495 955 l 2
 495 931 486 930 462 930 c 2
 322 930 l 2
 294 930 281 928 281 897 c 2
 281 214 l 2
 281 134 294 80 338 80 c 0
 395 80 412 162 417 238 c 0
 418 260 429 254 451 253 c 2
 483 252 l 2
 499 251 501 243 499 225 c 0
EndSplineSet
Substitution2: "'smcp' Lowercase to Small Capitals in Latin lookup 0 subtable" t.sc
EndChar

StartChar: u
Encoding: 117 117 58
Width: 925
Flags: MW
AnchorPoint: "Anchor-0" 465 1040 basechar 0
AnchorPoint: "Anchor-1" 417 0 basechar 0
AnchorPoint: "Anchor-2" 767 0 basechar 0
AnchorPoint: "Anchor-3" 767 0 basechar 0
LayerCount: 2
Fore
SplineSet
120 332 m 258
 120 884 l 258
 120 924 109 930 77 930 c 258
 59 930 l 258
 33 930 30 937 30 965 c 258
 30 994 l 258
 30 1038 31 1040 74 1040 c 258
 262 1040 l 258
 290 1040 295 1028 295 1007 c 258
 295 334 l 258
 295 186 326 104 428 104 c 256
 544 104 635 238 635 394 c 258
 635 896 l 258
 635 920 634 930 624 930 c 258
 549 930 l 258
 526 930 524 935 524 972 c 258
 524 1016 l 258
 524 1039 526 1040 548 1040 c 258
 783 1040 l 258
 816 1040 815 1040 815 1006 c 258
 815 149 l 258
 815 115 821 110 845 110 c 258
 867 110 l 258
 895 110 895 101 895 62 c 258
 895 47 l 258
 895 9 886 0 852 0 c 258
 702 0 l 258
 662 0 639 8 639 59 c 258
 639 106 l 258
 639 174 644 177 614 134 c 256
 567 65 477 -20 369 -20 c 256
 165 -20 120 118 120 332 c 258
EndSplineSet
Substitution2: "'smcp' Lowercase to Small Capitals in Latin lookup 0 subtable" u.sc
EndChar

StartChar: v
Encoding: 118 118 59
Width: 808
Flags: MW
AnchorPoint: "Anchor-0" 454 1040 basechar 0
AnchorPoint: "Anchor-1" 417 0 basechar 0
AnchorPoint: "Anchor-2" 417 0 basechar 0
LayerCount: 2
Fore
SplineSet
453 345 m 258
 602 897 l 258
 609 924 604 930 590 930 c 258
 536 930 l 258
 515 930 515 936 515 959 c 258
 515 1013 l 258
 515 1030 521 1040 538 1040 c 258
 767 1040 l 258
 795 1040 803 1036 803 1006 c 258
 803 953 l 258
 803 932 795 930 773 930 c 258
 748 930 l 258
 719 930 720 924 714 903 c 258
 476 -1 l 258
 473 -18 461 -20 438 -20 c 258
 393 -20 l 258
 370 -20 358 -18 354 -1 c 258
 105 909 l 258
 98 929 87 930 59 930 c 258
 29 930 l 258
 12 930 5 938 5 954 c 258
 5 1005 l 258
 5 1035 20 1040 47 1040 c 258
 359 1040 l 258
 380 1040 387 1035 387 1012 c 258
 387 962 l 258
 387 930 377 930 345 930 c 258
 329 930 l 258
 310 930 300 922 305 900 c 258
 436 348 l 258
 442 324 437 314 444 314 c 256
 451 314 447 323 453 345 c 258
EndSplineSet
Substitution2: "'smcp' Lowercase to Small Capitals in Latin lookup 0 subtable" v.sc
EndChar

StartChar: w
Encoding: 119 119 60
Width: 1170
Flags: MW
AnchorPoint: "Anchor-0" 617 1040 basechar 0
AnchorPoint: "Anchor-1" 607 0 basechar 0
AnchorPoint: "Anchor-2" 607 0 basechar 0
LayerCount: 2
Fore
SplineSet
430 323 m 258
 549 1017 l 258
 551 1038 564 1040 590 1040 c 258
 643 1040 l 258
 671 1040 681 1038 687 1017 c 258
 815 299 l 258
 820 282 819 279 824 279 c 256
 829 279 827 289 829 299 c 258
 931 901 l 258
 934 919 921 930 913 930 c 258
 844 930 l 258
 820 930 812 932 812 955 c 258
 812 1012 l 258
 812 1032 815 1040 834 1040 c 258
 1137 1040 l 258
 1159 1040 1160 1032 1160 1009 c 258
 1160 955 l 258
 1160 935 1154 930 1132 930 c 258
 1063 930 l 258
 1051 930 1050 929 1043 904 c 258
 884 8 l 258
 878 -14 872 -20 842 -20 c 258
 760 -20 l 258
 733 -20 724 -17 720 5 c 258
 612 676 l 258
 610 687 608 693 602 693 c 256
 596 693 596 688 594 676 c 258
 483 9 l 258
 479 -14 471 -20 441 -20 c 258
 358 -20 l 258
 328 -20 315 -20 308 3 c 258
 123 910 l 258
 119 924 110 930 92 930 c 258
 46 930 l 258
 31 930 30 938 30 954 c 258
 30 1015 l 258
 30 1031 31 1040 47 1040 c 258
 405 1040 l 258
 429 1040 433 1033 433 1008 c 258
 433 968 l 258
 433 940 432 930 404 930 c 258
 323 930 l 258
 302 930 286 927 287 911 c 258
 400 323 l 258
 403 311 403 295 415 295 c 280
 427 295 427 306 430 323 c 258
EndSplineSet
Substitution2: "'smcp' Lowercase to Small Capitals in Latin lookup 0 subtable" w.sc
EndChar

StartChar: x
Encoding: 120 120 61
Width: 848
Flags: MW
AnchorPoint: "Anchor-0" 450 1040 basechar 0
AnchorPoint: "Anchor-1" 392 2 basechar 0
AnchorPoint: "Anchor-2" 392 2 basechar 0
LayerCount: 2
Fore
SplineSet
528 749 m 2
 606 906 l 2
 622 924 614 930 596 930 c 2
 535 930 l 2
 519 930 510 931 510 947 c 2
 510 1014 l 2
 510 1033 514 1040 532 1040 c 2
 806 1040 l 2
 824 1040 828 1033 828 1014 c 2
 828 952 l 2
 828 934 822 930 803 930 c 2
 792 930 l 2
 763 930 745 925 732 911 c 2
 561 613 l 2
 539 575 527 563 527 545 c 0
 527 527 532 511 554 473 c 2
 750 133 l 2
 764 114 764 110 798 110 c 2
 800 110 l 2
 820 110 828 107 828 88 c 2
 828 22 l 2
 828 0 818 0 796 0 c 2
 458 0 l 2
 438 0 436 8 436 29 c 2
 436 83 l 2
 436 104 445 110 466 110 c 2
 513 110 l 2
 551 110 543 128 537 149 c 2
 459 335 l 2
 443 372 423 426 410 426 c 0
 397 426 372 374 351 338 c 2
 232 135 l 2
 216 117 218 110 260 110 c 2
 324 110 l 2
 345 110 348 103 348 81 c 2
 348 27 l 2
 348 8 346 0 328 0 c 2
 52 0 l 2
 27 0 20 3 20 27 c 2
 20 79 l 2
 20 97 24 110 44 110 c 2
 64 110 l 2
 93 110 95 117 108 131 c 2
 302 443 l 2
 326 482 333 498 333 517 c 0
 333 538 322 554 301 600 c 2
 165 897 l 2
 154 925 134 930 98 930 c 2
 56 930 l 2
 26 930 20 935 20 966 c 2
 20 1012 l 2
 20 1036 32 1040 54 1040 c 2
 418 1040 l 2
 441 1040 442 1031 442 1008 c 2
 442 958 l 2
 442 935 435 930 414 930 c 2
 389 930 l 2
 357 930 359 913 362 897 c 2
 411 747 l 2
 423 709 449 660 463 660 c 0
 478 660 508 709 528 749 c 2
EndSplineSet
Substitution2: "'smcp' Lowercase to Small Capitals in Latin lookup 0 subtable" x.sc
EndChar

StartChar: y
Encoding: 121 121 62
Width: 950
Flags: MW
AnchorPoint: "Anchor-0" 508 1040 basechar 0
AnchorPoint: "Anchor-1" 270 -565 basechar 0
AnchorPoint: "Anchor-2" 270 -565 basechar 0
LayerCount: 2
Fore
SplineSet
30 -282 m 0
 30 -170 90 -116 152 -116 c 0
 212 -116 252 -152 252 -214 c 0
 252 -310 153 -290 153 -332 c 0
 153 -378 180 -420 236 -420 c 0
 314 -420 380 -358 420 -180 c 2
 433 -122 l 2
 449 -81 448 -70 430 -30 c 2
 97 898 l 2
 85 924 85 930 45 930 c 2
 39 930 l 2
 9 930 4 936 4 964 c 2
 4 1020 l 2
 4 1038 12 1040 31 1040 c 2
 369 1040 l 2
 401 1040 406 1034 406 1000 c 2
 406 975 l 2
 406 935 402 930 363 930 c 2
 329 930 l 2
 287 930 281 928 294 900 c 2
 498 314 l 2
 516 274 525 255 533 255 c 0
 543 255 550 279 568 326 c 2
 725 896 l 2
 736 925 735 930 692 930 c 2
 653 930 l 2
 624 930 620 939 620 966 c 2
 620 1000 l 2
 620 1035 628 1040 661 1040 c 2
 919 1040 l 2
 942 1040 950 1038 950 1016 c 2
 950 970 l 2
 950 940 949 930 919 930 c 2
 897 930 l 2
 851 930 854 920 841 888 c 2
 498 -264 l 2
 445 -440 372 -520 236 -520 c 0
 92 -520 30 -416 30 -282 c 0
EndSplineSet
Substitution2: "'smcp' Lowercase to Small Capitals in Latin lookup 0 subtable" y.sc
EndChar

StartChar: z
Encoding: 122 122 63
Width: 821
Flags: MW
AnchorPoint: "Anchor-0" 521 1040 basechar 0
AnchorPoint: "Anchor-1" 502 0 basechar 0
AnchorPoint: "Anchor-2" 502 0 basechar 0
LayerCount: 2
Fore
SplineSet
450 940 m 2
 217 940 196 850 194 671 c 0
 194 648 195 636 169 636 c 2
 130 636 l 2
 101 636 94 639 94 667 c 2
 94 990 l 2
 94 1036 101 1040 148 1040 c 2
 722 1040 l 2
 747 1040 756 1036 756 1009 c 2
 756 976 l 2
 756 935 744 926 727 905 c 2
 289 142 l 2
 258 105 243 100 316 100 c 2
 376 100 l 2
 662 100 677 176 678 408 c 0
 678 428 687 428 707 428 c 2
 744 428 l 2
 770 428 778 425 778 400 c 2
 778 60 l 2
 778 7 774 0 722 0 c 2
 84 0 l 2
 55 0 48 8 48 36 c 2
 48 73 l 2
 48 114 68 124 86 146 c 2
 519 893 l 2
 535 921 544 940 480 940 c 2
 450 940 l 2
EndSplineSet
Substitution2: "'smcp' Lowercase to Small Capitals in Latin lookup 0 subtable" z.sc
EndChar

StartChar: comma
Encoding: 44 44 65
Width: 578
Flags: MW
LayerCount: 2
Fore
SplineSet
154 98 m 0
 154 164 212 216 288 216 c 0
 366 216 428 154 428 8 c 0
 428 -126 338 -296 173 -311 c 0
 158 -312 150 -313 150 -296 c 2
 150 -253 l 2
 150 -235 160 -232 175 -230 c 0
 266 -216 344 -124 333 -9 c 0
 331 7 322 -1 311 -8 c 0
 295 -19 281 -20 260 -20 c 0
 194 -20 154 32 154 98 c 0
EndSplineSet
EndChar

StartChar: exclam
Encoding: 33 33 67
Width: 638
Flags: MW
LayerCount: 2
Fore
SplineSet
200 98 m 0
 200 164 252 216 318 216 c 0
 384 216 436 164 436 98 c 0
 436 32 384 -20 318 -20 c 0
 252 -20 200 32 200 98 c 0
436 1318 m 0
 415 977 360 732 356 445 c 0
 356 423 356 416 332 416 c 2
 301 416 l 2
 282 416 280 422 280 440 c 0
 277 729 221 975 200 1318 c 0
 200 1332 200 1344 200 1356 c 0
 200 1448 224 1516 318 1516 c 0
 412 1516 438 1448 438 1356 c 0
 438 1344 436 1332 436 1318 c 0
EndSplineSet
EndChar

StartChar: quotesingle
Encoding: 39 39 70
Width: 400
Flags: MW
LayerCount: 2
Fore
SplineSet
298 1358 m 0
 277 1216 241 1107 238 994 c 0
 238 978 231 976 214 976 c 2
 184 976 l 2
 166 976 163 983 162 999 c 0
 158 1111 123 1218 102 1358 c 0
 100 1372 100 1382 100 1394 c 0
 100 1472 142 1516 200 1516 c 0
 258 1516 300 1472 300 1394 c 0
 300 1382 300 1372 298 1358 c 0
EndSplineSet
EndChar

StartChar: quoteleft
Encoding: 8216 8216 71
Width: 478
Flags: MW
LayerCount: 2
Fore
SplineSet
374 1190 m 0
 374 1124 316 1072 240 1072 c 0
 162 1072 100 1134 100 1280 c 0
 100 1414 190 1584 355 1599 c 0
 370 1600 378 1601 378 1584 c 2
 378 1541 l 2
 378 1523 368 1520 353 1518 c 0
 262 1504 184 1412 195 1297 c 0
 197 1281 206 1289 217 1296 c 0
 233 1307 247 1308 268 1308 c 0
 334 1308 374 1256 374 1190 c 0
EndSplineSet
EndChar

StartChar: quotedblleft
Encoding: 8220 8220 72
Width: 878
Flags: MW
LayerCount: 2
Fore
SplineSet
374 1190 m 0
 374 1124 316 1072 240 1072 c 0
 162 1072 100 1134 100 1280 c 0
 100 1414 190 1584 355 1599 c 0
 370 1600 378 1601 378 1584 c 2
 378 1541 l 2
 378 1523 368 1520 353 1518 c 0
 262 1504 184 1412 195 1297 c 0
 197 1281 206 1289 217 1296 c 0
 233 1307 247 1308 268 1308 c 0
 334 1308 374 1256 374 1190 c 0
774 1190 m 0
 774 1124 716 1072 640 1072 c 0
 562 1072 500 1134 500 1280 c 0
 500 1414 590 1584 755 1599 c 0
 770 1600 778 1601 778 1584 c 2
 778 1541 l 2
 778 1523 768 1520 753 1518 c 0
 662 1504 584 1412 595 1297 c 0
 597 1281 606 1289 617 1296 c 0
 633 1307 647 1308 668 1308 c 0
 734 1308 774 1256 774 1190 c 0
EndSplineSet
EndChar

StartChar: quotedblright
Encoding: 8221 8221 73
Width: 878
Flags: MW
LayerCount: 2
Fore
SplineSet
104 1402 m 0
 104 1468 162 1520 238 1520 c 0
 316 1520 378 1458 378 1312 c 0
 378 1178 288 1008 123 993 c 0
 108 992 100 991 100 1008 c 2
 100 1051 l 2
 100 1069 110 1072 125 1074 c 0
 216 1088 294 1180 283 1295 c 0
 281 1311 272 1303 261 1296 c 0
 245 1285 231 1284 210 1284 c 0
 144 1284 104 1336 104 1402 c 0
504 1402 m 0
 504 1468 562 1520 638 1520 c 0
 716 1520 778 1458 778 1312 c 0
 778 1178 688 1008 523 993 c 0
 508 992 500 991 500 1008 c 2
 500 1051 l 2
 500 1069 510 1072 525 1074 c 0
 616 1088 694 1180 683 1295 c 0
 681 1311 672 1303 661 1296 c 0
 645 1285 631 1284 610 1284 c 0
 544 1284 504 1336 504 1402 c 0
EndSplineSet
EndChar

StartChar: quoteright
Encoding: 8217 8217 74
Width: 478
Flags: MW
LayerCount: 2
Fore
SplineSet
104 1402 m 0
 104 1468 162 1520 238 1520 c 0
 316 1520 378 1458 378 1312 c 0
 378 1178 288 1008 123 993 c 0
 108 992 100 991 100 1008 c 2
 100 1051 l 2
 100 1069 110 1072 125 1074 c 0
 216 1088 294 1180 283 1295 c 0
 281 1311 272 1303 261 1296 c 0
 245 1285 231 1284 210 1284 c 0
 144 1284 104 1336 104 1402 c 0
EndSplineSet
EndChar

StartChar: question
Encoding: 63 63 75
Width: 1100
Flags: MW
LayerCount: 2
Fore
SplineSet
298 1324 m 0
 298 1264 360 1262 360 1160 c 0
 360 1076 294 1040 224 1040 c 0
 154 1040 90 1086 90 1182 c 0
 90 1346 238 1520 522 1520 c 0
 844 1520 1000 1360 1000 1100 c 0
 1000 901 847 703 601 640 c 0
 569 632 554 630 554 587 c 2
 554 451 l 2
 554 421 546 418 515 418 c 2
 478 418 l 2
 443 418 434 420 434 455 c 2
 434 651 l 2
 434 694 443 700 473 711 c 0
 667 783 798 947 798 1140 c 0
 798 1288 720 1436 522 1436 c 0
 354 1436 298 1368 298 1324 c 0
EndSplineSet
Refer: 1 46 N 1 0 0 1 298 0 2
EndChar

StartChar: parenleft
Encoding: 40 40 76
Width: 740
Flags: MW
LayerCount: 2
Fore
SplineSet
673 -276 m 2
 664 -318 l 2
 659 -342 658 -341 635 -334 c 0
 305 -226 110 134 110 650 c 0
 110 1155 294 1474 607 1587 c 0
 635 1597 658 1604 665 1569 c 2
 674 1530 l 2
 681 1497 676 1503 648 1490 c 0
 423 1382 340 1099 340 650 c 0
 340 198 425 -123 654 -232 c 0
 682 -245 679 -245 673 -276 c 2
EndSplineSet
EndChar

StartChar: parenright
Encoding: 41 41 77
Width: 740
Flags: MW
LayerCount: 2
Fore
SplineSet
67 1536 m 2
 76 1578 l 2
 81 1602 82 1601 105 1594 c 0
 435 1486 630 1126 630 610 c 0
 630 105 446 -214 133 -327 c 0
 105 -337 82 -344 75 -309 c 2
 66 -270 l 2
 59 -237 64 -243 92 -230 c 0
 317 -122 400 161 400 610 c 0
 400 1062 315 1383 86 1492 c 0
 58 1505 61 1505 67 1536 c 2
EndSplineSet
EndChar

StartChar: asterisk
Encoding: 42 42 78
Width: 1270
Flags: MW
LayerCount: 2
Fore
SplineSet
165 772 m 0
 136 822 153 881 221 920 c 0
 317 975 435 998 524 1032 c 0
 549 1041 552 1042 526 1052 c 0
 437 1086 319 1110 223 1165 c 0
 155 1204 138 1262 167 1312 c 0
 196 1362 255 1377 323 1338 c 0
 422 1281 497 1193 570 1133 c 0
 589 1118 596 1108 590 1142 c 0
 575 1235 536 1339 536 1458 c 0
 536 1536 578 1580 636 1580 c 0
 694 1580 736 1536 736 1458 c 0
 736 1340 698 1235 682 1142 c 0
 675 1099 689 1119 709 1136 c 0
 780 1196 852 1278 947 1333 c 0
 1015 1372 1074 1358 1103 1308 c 0
 1132 1258 1115 1199 1047 1160 c 0
 955 1107 842 1083 754 1051 c 0
 723 1040 713 1039 748 1026 c 0
 837 993 951 969 1045 915 c 0
 1113 876 1130 818 1101 768 c 0
 1072 718 1013 703 945 742 c 0
 846 799 771 887 698 947 c 0
 677 965 673 970 679 933 c 0
 695 841 732 739 732 622 c 0
 732 544 690 500 632 500 c 0
 574 500 532 544 532 622 c 0
 532 741 570 845 586 939 c 0
 592 975 586 966 566 950 c 0
 493 890 419 804 321 747 c 0
 253 708 194 722 165 772 c 0
EndSplineSet
EndChar

StartChar: at
Encoding: 64 64 79
Width: 2120
Flags: MW
LayerCount: 2
Fore
SplineSet
1328 692 m 0
 1328 776 1300 956 1168 956 c 0
 1020 956 870 728 870 480 c 0
 870 346 900 244 1028 244 c 0
 1150 244 1328 436 1328 692 c 0
1640 -161 m 0
 1474 -336 1245 -428 938 -428 c 0
 652 -428 130 -224 130 442 c 0
 130 1108 624 1580 1170 1580 c 0
 1716 1580 2010 1208 2010 842 c 0
 2010 522 1824 140 1482 140 c 0
 1376 140 1322 198 1289 267 c 0
 1269 309 1272 325 1223 271 c 0
 1148 188 1057 140 968 140 c 0
 810 140 668 251 668 460 c 0
 668 760 898 1058 1136 1058 c 0
 1239 1058 1311 1004 1351 912 c 0
 1379 848 1378 841 1393 905 c 2
 1417 1010 l 2
 1422 1033 1429 1040 1459 1040 c 2
 1550 1040 l 2
 1596 1040 1601 1027 1591 986 c 2
 1460 420 l 2
 1456 394 1432 264 1526 264 c 0
 1728 264 1884 542 1884 850 c 0
 1884 1204 1572 1474 1204 1474 c 0
 716 1474 340 1006 340 462 c 0
 340 -142 702 -318 990 -318 c 0
 1185 -318 1385 -255 1557 -86 c 0
 1588 -56 1588 -46 1620 -78 c 2
 1649 -107 l 2
 1674 -132 1664 -136 1640 -161 c 0
EndSplineSet
EndChar

StartChar: dollar
Encoding: 36 36 80
Width: 1320
Flags: MW
LayerCount: 2
Fore
SplineSet
660 1670 m 1
 770 1670 l 1
 760 1513 l 1
 967 1489 1148 1393 1148 1158 c 0
 1148 1062 1078 1026 1020 1026 c 0
 966 1026 906 1068 906 1142 c 0
 906 1214 970 1224 970 1270 c 0
 970 1319 911 1391 753 1412 c 1
 720 896 l 1
 958 842 1220 779 1220 430 c 0
 1220 150 1022 -20 660 -20 c 1
 650 -170 l 1
 540 -170 l 1
 550 -15 l 1
 249 16 92 175 92 372 c 0
 92 468 162 504 220 504 c 0
 274 504 334 462 334 388 c 0
 334 316 270 306 270 260 c 0
 270 210 347 112 557 88 c 1
 597 701 l 1
 378 753 160 821 160 1110 c 0
 160 1395 402 1520 650 1520 c 1
 660 1670 l 1
1040 380 m 0
 1040 573 885 630 705 675 c 1
 666 82 l 1
 933 85 1040 243 1040 380 c 0
340 1170 m 0
 340 1015 460 961 611 922 c 1
 644 1418 l 1
 443 1412 340 1304 340 1170 c 0
EndSplineSet
EndChar

StartChar: numbersign
Encoding: 35 35 81
Width: 1320
Flags: MW
LayerCount: 2
Fore
SplineSet
486 1610 m 2
 546 1610 l 2
 568 1610 569 1605 567 1584 c 2
 513 1121 l 2
 509 1085 508 1080 550 1080 c 2
 817 1080 l 2
 859 1080 859 1082 863 1119 c 2
 917 1581 l 2
 920 1606 917 1610 946 1610 c 2
 998 1610 l 2
 1031 1610 1029 1608 1026 1579 c 2
 973 1120 l 2
 968 1080 968 1080 1013 1080 c 2
 1317 1080 l 2
 1336 1080 1340 1073 1340 1053 c 2
 1340 996 l 2
 1340 976 1333 970 1314 970 c 2
 985 970 l 2
 957 970 956 970 953 945 c 2
 912 597 l 2
 909 568 909 560 945 560 c 2
 1255 560 l 2
 1276 560 1280 553 1280 531 c 2
 1280 485 l 2
 1280 453 1269 450 1239 450 c 2
 922 450 l 2
 895 450 895 449 892 425 c 2
 833 -84 l 2
 830 -109 830 -110 802 -110 c 2
 753 -110 l 2
 719 -110 721 -109 724 -79 c 2
 782 420 l 2
 785 446 782 450 746 450 c 2
 471 450 l 2
 439 450 435 452 432 423 c 2
 373 -86 l 2
 370 -109 371 -110 345 -110 c 2
 282 -110 l 2
 256 -110 260 -105 263 -83 c 2
 321 414 l 2
 324 442 323 450 289 450 c 2
 4 450 l 2
 -18 450 -20 457 -20 480 c 2
 -20 535 l 2
 -20 558 -13 560 11 560 c 2
 308 560 l 2
 344 560 338 568 342 598 c 2
 383 943 l 2
 386 967 387 970 359 970 c 2
 72 970 l 2
 42 970 40 978 40 1009 c 2
 40 1047 l 2
 40 1070 41 1080 64 1080 c 2
 356 1080 l 2
 395 1080 399 1084 402 1114 c 2
 457 1585 l 2
 460 1609 459 1610 486 1610 c 2
801 970 m 2
 544 970 l 2
 499 970 495 962 491 931 c 2
 452 596 l 2
 448 562 455 560 488 560 c 2
 756 560 l 2
 794 560 799 568 802 593 c 2
 841 927 l 2
 846 969 838 970 801 970 c 2
EndSplineSet
EndChar

StartChar: slash
Encoding: 47 47 82
Width: 1040
Flags: MW
LayerCount: 2
Fore
SplineSet
874 1560 m 2
 919 1560 l 2
 957 1560 958 1555 948 1530 c 2
 231 -268 l 2
 220 -296 210 -300 169 -300 c 2
 137 -300 l 2
 88 -300 85 -289 97 -258 c 2
 818 1526 l 2
 829 1553 834 1560 874 1560 c 2
EndSplineSet
EndChar

StartChar: percent
Encoding: 37 37 83
Width: 1495
Flags: MW
LayerCount: 2
Fore
SplineSet
70 1080 m 0
 70 1366 174 1520 370 1520 c 0
 566 1520 670 1366 670 1080 c 0
 670 794 526 640 370 640 c 0
 174 640 70 794 70 1080 c 0
270 1080 m 0
 270 826 302 740 370 740 c 0
 438 740 470 826 470 1080 c 0
 470 1334 438 1420 370 1420 c 0
 302 1420 270 1334 270 1080 c 0
1105 1500 m 2
 1152 1500 l 2
 1187 1500 1185 1490 1171 1468 c 2
 440 28 l 2
 427 7 417 0 382 0 c 2
 339 0 l 2
 300 0 309 23 320 41 c 2
 1063 1478 l 2
 1071 1492 1082 1500 1105 1500 c 2
825 420 m 0
 825 706 929 860 1125 860 c 0
 1321 860 1425 706 1425 420 c 0
 1425 134 1281 -20 1125 -20 c 0
 929 -20 825 134 825 420 c 0
1025 420 m 0
 1025 166 1057 80 1125 80 c 0
 1193 80 1225 166 1225 420 c 0
 1225 674 1193 760 1125 760 c 0
 1057 760 1025 674 1025 420 c 0
EndSplineSet
EndChar

StartChar: hyphen
Encoding: 45 45 84
Width: 640
Flags: MW
LayerCount: 2
Fore
SplineSet
108 710 m 2
 534 710 l 2
 557 710 560 706 560 682 c 2
 560 603 l 2
 560 579 558 570 532 570 c 2
 106 570 l 2
 81 570 80 574 80 600 c 2
 80 682 l 2
 80 705 87 710 108 710 c 2
EndSplineSet
Substitution2: "Single Substitution lookup 8 subtable" hyphen.sc
EndChar

StartChar: plus
Encoding: 43 43 86
Width: 1060
Flags: MW
LayerCount: 2
Fore
SplineSet
620 836 m 2
 906 836 l 2
 929 836 940 832 940 808 c 2
 940 751 l 2
 940 734 939 726 922 726 c 2
 624 726 l 2
 592 726 584 723 584 692 c 2
 584 389 l 2
 584 372 577 370 559 370 c 2
 501 370 l 2
 481 370 476 370 476 390 c 2
 476 685 l 2
 476 720 475 726 440 726 c 2
 149 726 l 2
 124 726 120 731 120 755 c 2
 120 809 l 2
 120 831 129 836 150 836 c 2
 442 836 l 2
 469 836 476 841 476 870 c 2
 476 1160 l 2
 476 1183 480 1190 505 1190 c 2
 562 1190 l 2
 582 1190 584 1182 584 1161 c 2
 584 874 l 2
 584 842 589 836 620 836 c 2
EndSplineSet
EndChar

StartChar: equal
Encoding: 61 61 87
Width: 1120
Flags: MW
LayerCount: 2
Fore
SplineSet
157 680 m 2
 967 680 l 2
 997 680 1000 676 1000 652 c 2
 1000 603 l 2
 1000 579 998 570 964 570 c 2
 154 570 l 2
 122 570 120 574 120 600 c 2
 120 652 l 2
 120 675 130 680 157 680 c 2
157 980 m 2
 967 980 l 2
 997 980 1000 976 1000 952 c 2
 1000 903 l 2
 1000 879 998 870 964 870 c 2
 154 870 l 2
 122 870 120 874 120 900 c 2
 120 952 l 2
 120 975 130 980 157 980 c 2
EndSplineSet
EndChar

StartChar: less
Encoding: 60 60 88
Width: 1120
Flags: MW
LayerCount: 2
Fore
SplineSet
296 752 m 2
 962 495 l 2
 990 484 1000 477 1000 437 c 2
 1000 395 l 2
 1000 350 983 357 956 367 c 2
 152 678 l 2
 123 689 120 699 120 740 c 2
 120 820 l 2
 120 862 125 862 154 873 c 2
 966 1187 l 2
 991 1197 1000 1193 1000 1159 c 2
 1000 1113 l 2
 1000 1076 989 1066 964 1056 c 2
 298 799 l 2
 267 787 250 787 250 776 c 0
 250 765 263 765 296 752 c 2
EndSplineSet
EndChar

StartChar: greater
Encoding: 62 62 89
Width: 1120
Flags: MW
LayerCount: 2
Fore
SplineSet
824 798 m 2
 158 1055 l 2
 130 1066 120 1073 120 1113 c 2
 120 1155 l 2
 120 1200 137 1193 164 1183 c 2
 968 872 l 2
 997 861 1000 851 1000 810 c 2
 1000 730 l 2
 1000 688 995 688 966 677 c 2
 154 363 l 2
 129 353 120 357 120 391 c 2
 120 437 l 2
 120 474 131 484 156 494 c 2
 822 751 l 2
 853 763 870 763 870 774 c 0
 870 785 857 785 824 798 c 2
EndSplineSet
EndChar

StartChar: backslash
Encoding: 92 92 90
Width: 1040
Flags: MW
LayerCount: 2
Fore
SplineSet
208 1560 m 1
 960 -300 l 1
 822 -300 l 1
 80 1560 l 1
 208 1560 l 1
EndSplineSet
EndChar

StartChar: bracketleft
Encoding: 91 91 91
Width: 650
Flags: MW
LayerCount: 2
Fore
SplineSet
167 1560 m 2
 527 1560 l 2
 572 1560 590 1560 590 1511 c 2
 590 1488 l 2
 590 1456 586 1450 555 1450 c 2
 357 1450 l 2
 315 1450 290 1448 290 1401 c 2
 290 -150 l 2
 290 -188 298 -190 337 -190 c 2
 545 -190 l 2
 576 -190 590 -192 590 -226 c 2
 590 -262 l 2
 590 -295 584 -300 549 -300 c 2
 180 -300 l 2
 128 -300 110 -292 110 -231 c 2
 110 1500 l 2
 110 1544 115 1560 167 1560 c 2
EndSplineSet
EndChar

StartChar: braceleft
Encoding: 123 123 92
Width: 544
Flags: MW
LayerCount: 2
Fore
SplineSet
442 -299 m 0
 186 -289 110 -189 110 -20 c 0
 110 254 230 344 230 470 c 0
 230 537 190 555 142 570 c 0
 115 579 110 580 110 617 c 2
 110 651 l 2
 110 680 126 685 146 692 c 0
 192 707 230 727 230 792 c 0
 230 918 110 1008 110 1282 c 0
 110 1453 187 1552 450 1560 c 0
 481 1561 484 1555 484 1520 c 2
 484 1498 l 2
 484 1466 484 1467 454 1465 c 0
 350 1458 296 1409 296 1294 c 0
 296 1142 364 1062 364 862 c 0
 364 769 331 704 275 658 c 0
 255 642 245 642 245 630 c 0
 245 619 256 618 276 602 c 0
 331 557 364 493 364 400 c 0
 364 200 296 120 296 -32 c 0
 296 -142 345 -193 440 -204 c 0
 467 -207 484 -200 484 -233 c 2
 484 -261 l 2
 484 -297 475 -300 442 -299 c 0
EndSplineSet
EndChar

StartChar: bracketright
Encoding: 93 93 93
Width: 650
Flags: MW
LayerCount: 2
Fore
SplineSet
483 -300 m 2
 123 -300 l 2
 78 -300 60 -300 60 -251 c 2
 60 -228 l 2
 60 -196 64 -190 95 -190 c 2
 293 -190 l 2
 335 -190 360 -188 360 -141 c 2
 360 1410 l 2
 360 1448 352 1450 313 1450 c 2
 105 1450 l 2
 74 1450 60 1452 60 1486 c 2
 60 1522 l 2
 60 1555 66 1560 101 1560 c 2
 470 1560 l 2
 522 1560 540 1552 540 1491 c 2
 540 -240 l 2
 540 -284 535 -300 483 -300 c 2
EndSplineSet
EndChar

StartChar: braceright
Encoding: 125 125 94
Width: 544
Flags: MW
LayerCount: 2
Fore
SplineSet
102 1559 m 0
 358 1549 434 1449 434 1280 c 0
 434 1006 314 916 314 790 c 0
 314 723 354 705 402 690 c 0
 429 681 434 680 434 643 c 2
 434 609 l 2
 434 580 418 575 398 568 c 0
 352 553 314 533 314 468 c 0
 314 342 434 252 434 -22 c 0
 434 -193 357 -292 94 -300 c 0
 63 -301 60 -295 60 -260 c 2
 60 -238 l 2
 60 -206 60 -207 90 -205 c 0
 194 -198 248 -149 248 -34 c 0
 248 118 180 198 180 398 c 0
 180 491 213 556 269 602 c 0
 289 618 299 618 299 630 c 0
 299 641 288 642 268 658 c 0
 213 703 180 767 180 860 c 0
 180 1060 248 1140 248 1292 c 0
 248 1402 199 1453 104 1464 c 0
 77 1467 60 1460 60 1493 c 2
 60 1521 l 2
 60 1557 69 1560 102 1559 c 0
EndSplineSet
EndChar

StartChar: bar
Encoding: 124 124 95
Width: 600
Flags: MW
LayerCount: 2
Fore
SplineSet
257 1560 m 2
 339 1560 l 2
 384 1560 390 1555 390 1512 c 2
 390 -454 l 2
 390 -486 388 -500 353 -500 c 2
 257 -500 l 2
 216 -500 210 -495 210 -456 c 2
 210 1506 l 2
 210 1551 212 1560 257 1560 c 2
EndSplineSet
EndChar

StartChar: asciitilde
Encoding: 126 126 96
Width: 1376
Flags: MW
LayerCount: 2
Fore
SplineSet
456 874 m 0
 368 874 321 818 315 709 c 0
 314 687 307 686 284 686 c 2
 234 686 l 2
 208 686 200 689 201 714 c 0
 212 924 347 1020 498 1020 c 0
 738 1020 738 832 920 832 c 0
 1005 832 1053 885 1061 989 c 0
 1063 1014 1068 1020 1096 1020 c 2
 1142 1020 l 2
 1167 1020 1177 1019 1176 992 c 0
 1168 777 1031 686 878 686 c 0
 604 686 612 874 456 874 c 0
EndSplineSet
EndChar

StartChar: asciicircum
Encoding: 94 94 97
Width: 1090
Flags: MW
LayerCount: 2
Fore
SplineSet
508 1399 m 2
 192 1138 l 2
 172 1122 169 1121 145 1134 c 2
 120 1147 l 2
 99 1159 105 1165 120 1180 c 2
 460 1520 l 2
 472 1532 479 1540 504 1540 c 2
 580 1540 l 2
 609 1540 618 1532 632 1518 c 2
 970 1180 l 2
 985 1165 989 1159 967 1147 c 2
 947 1136 l 2
 923 1122 918 1121 898 1138 c 2
 585 1397 l 2
 547 1428 546 1430 508 1399 c 2
EndSplineSet
EndChar

StartChar: grave
Encoding: 96 96 98
Width: 790
Flags: MW
LayerCount: 2
Fore
SplineSet
180 1440 m 2
 142 1441 110 1472 110 1510 c 0
 110 1548 144 1589 200 1576 c 2
 637 1470 l 2
 662 1464 678 1460 675 1440 c 0
 673 1421 666 1420 641 1421 c 2
 180 1440 l 2
EndSplineSet
EndChar

StartChar: uni203E
Encoding: 8254 8254 99
Width: 719
Flags: MW
LayerCount: 2
Fore
SplineSet
33 1859 m 2
 998 1859 l 2
 1033 1859 1038 1855 1038 1831 c 2
 1038 1782 l 2
 1038 1758 1035 1749 995 1749 c 2
 30 1749 l 2
 -9 1749 -10 1753 -10 1779 c 2
 -10 1831 l 2
 -10 1854 1 1859 33 1859 c 2
EndSplineSet
EndChar

StartChar: uni2010
Encoding: 8208 8208 100
Width: 920
Flags: MW
LayerCount: 2
Fore
SplineSet
148 830 m 2
 774 830 l 2
 797 830 800 826 800 802 c 2
 800 753 l 2
 800 729 798 720 772 720 c 2
 146 720 l 2
 121 720 120 724 120 750 c 2
 120 802 l 2
 120 825 127 830 148 830 c 2
EndSplineSet
EndChar

StartChar: uni2011
Encoding: 8209 8209 101
Width: 920
Flags: MW
LayerCount: 2
Fore
SplineSet
148 830 m 2
 774 830 l 2
 797 830 800 826 800 802 c 2
 800 753 l 2
 800 729 798 720 772 720 c 2
 146 720 l 2
 121 720 120 724 120 750 c 2
 120 802 l 2
 120 825 127 830 148 830 c 2
EndSplineSet
EndChar

StartChar: endash
Encoding: 8211 8211 102
Width: 1432
Flags: MW
LayerCount: 2
Fore
SplineSet
169 830 m 2
 1267 830 l 2
 1307 830 1312 826 1312 802 c 2
 1312 753 l 2
 1312 729 1309 720 1263 720 c 2
 166 720 l 2
 122 720 120 724 120 750 c 2
 120 802 l 2
 120 825 132 830 169 830 c 2
EndSplineSet
EndChar

StartChar: figuredash
Encoding: 8210 8210 103
Width: 1224
Flags: MW
LayerCount: 2
Fore
SplineSet
160 830 m 2
 1066 830 l 2
 1099 830 1104 826 1104 802 c 2
 1104 753 l 2
 1104 729 1102 720 1064 720 c 2
 157 720 l 2
 121 720 120 724 120 750 c 2
 120 802 l 2
 120 825 130 830 160 830 c 2
EndSplineSet
EndChar

StartChar: emdash
Encoding: 8212 8212 104
Width: 2124
Flags: MW
LayerCount: 2
Fore
SplineSet
198 830 m 2
 1932 830 l 2
 1996 830 2004 826 2004 802 c 2
 2004 753 l 2
 2004 729 1999 720 1927 720 c 2
 192 720 l 2
 123 720 120 724 120 750 c 2
 120 802 l 2
 120 825 140 830 198 830 c 2
EndSplineSet
EndChar

StartChar: uni2015
Encoding: 8213 8213 105
Width: 2331
Flags: MW
LayerCount: 2
Fore
SplineSet
206 830 m 2
 2131 830 l 2
 2202 830 2211 826 2211 802 c 2
 2211 753 l 2
 2211 729 2205 720 2125 720 c 2
 200 720 l 2
 123 720 120 724 120 750 c 2
 120 802 l 2
 120 825 141 830 206 830 c 2
EndSplineSet
EndChar

StartChar: perthousand
Encoding: 8240 8240 106
Width: 2185
Flags: MW
LayerCount: 2
Fore
SplineSet
1515 420 m 0
 1515 706 1619 860 1815 860 c 0
 2011 860 2115 706 2115 420 c 0
 2115 134 1971 -20 1815 -20 c 0
 1619 -20 1515 134 1515 420 c 0
1715 420 m 0
 1715 166 1747 80 1815 80 c 0
 1883 80 1915 166 1915 420 c 0
 1915 674 1883 760 1815 760 c 0
 1747 760 1715 674 1715 420 c 0
70 1080 m 0
 70 1366 174 1520 370 1520 c 0
 566 1520 670 1366 670 1080 c 0
 670 794 526 640 370 640 c 0
 174 640 70 794 70 1080 c 0
270 1080 m 0
 270 826 302 740 370 740 c 0
 438 740 470 826 470 1080 c 0
 470 1334 438 1420 370 1420 c 0
 302 1420 270 1334 270 1080 c 0
1105 1500 m 2
 1152 1500 l 2
 1187 1500 1185 1490 1171 1468 c 2
 440 28 l 2
 427 7 417 0 382 0 c 2
 339 0 l 2
 300 0 309 23 320 41 c 2
 1063 1478 l 2
 1071 1492 1082 1500 1105 1500 c 2
825 420 m 0
 825 706 929 860 1125 860 c 0
 1321 860 1425 706 1425 420 c 0
 1425 134 1281 -20 1125 -20 c 0
 929 -20 825 134 825 420 c 0
1025 420 m 0
 1025 166 1057 80 1125 80 c 0
 1193 80 1225 166 1225 420 c 0
 1225 674 1193 760 1125 760 c 0
 1057 760 1025 674 1025 420 c 0
EndSplineSet
EndChar

StartChar: uni2031
Encoding: 8241 8241 107
Width: 2875
Flags: MW
LayerCount: 2
Fore
SplineSet
2205 420 m 0
 2205 706 2309 860 2505 860 c 0
 2701 860 2805 706 2805 420 c 0
 2805 134 2661 -20 2505 -20 c 0
 2309 -20 2205 134 2205 420 c 0
2405 420 m 0
 2405 166 2437 80 2505 80 c 0
 2573 80 2605 166 2605 420 c 0
 2605 674 2573 760 2505 760 c 0
 2437 760 2405 674 2405 420 c 0
1515 420 m 0
 1515 706 1619 860 1815 860 c 0
 2011 860 2115 706 2115 420 c 0
 2115 134 1971 -20 1815 -20 c 0
 1619 -20 1515 134 1515 420 c 0
1715 420 m 0
 1715 166 1747 80 1815 80 c 0
 1883 80 1915 166 1915 420 c 0
 1915 674 1883 760 1815 760 c 0
 1747 760 1715 674 1715 420 c 0
70 1080 m 0
 70 1366 174 1520 370 1520 c 0
 566 1520 670 1366 670 1080 c 0
 670 794 526 640 370 640 c 0
 174 640 70 794 70 1080 c 0
270 1080 m 0
 270 826 302 740 370 740 c 0
 438 740 470 826 470 1080 c 0
 470 1334 438 1420 370 1420 c 0
 302 1420 270 1334 270 1080 c 0
1105 1500 m 2
 1152 1500 l 2
 1187 1500 1185 1490 1171 1468 c 2
 440 28 l 2
 427 7 417 0 382 0 c 2
 339 0 l 2
 300 0 309 23 320 41 c 2
 1063 1478 l 2
 1071 1492 1082 1500 1105 1500 c 2
825 420 m 0
 825 706 929 860 1125 860 c 0
 1321 860 1425 706 1425 420 c 0
 1425 134 1281 -20 1125 -20 c 0
 929 -20 825 134 825 420 c 0
1025 420 m 0
 1025 166 1057 80 1125 80 c 0
 1193 80 1225 166 1225 420 c 0
 1225 674 1193 760 1125 760 c 0
 1057 760 1025 674 1025 420 c 0
EndSplineSet
EndChar

StartChar: uniFB00
Encoding: 64256 64256 108
Width: 1045
Flags: MW
LayerCount: 2
Fore
SplineSet
30 29 m 2
 30 75 l 2
 30 105 37 110 65 110 c 2
 82 110 l 2
 110 110 110 111 110 139 c 2
 110 898 l 2
 110 923 105 930 81 930 c 2
 52 930 l 2
 33 930 30 938 30 958 c 2
 30 1003 l 2
 30 1032 33 1040 61 1040 c 2
 82 1040 l 2
 103 1040 110 1044 110 1064 c 2
 110 1104 l 2
 110 1366 174 1540 434 1540 c 0
 544 1540 603 1510 642 1477 c 0
 654 1467 655 1461 662 1461 c 0
 670 1461 670 1469 681 1487 c 0
 724 1561 775 1600 914 1600 c 0
 1066 1600 1160 1492 1160 1378 c 0
 1160 1292 1112 1246 1042 1246 c 0
 972 1246 926 1286 926 1342 c 0
 926 1412 978 1414 978 1454 c 0
 978 1478 952 1510 888 1510 c 0
 698 1510 810 1234 810 1140 c 2
 810 1060 l 2
 810 1031 829 1040 855 1040 c 2
 961 1040 l 2
 982 1040 990 1037 990 1017 c 2
 990 959 l 2
 990 934 978 930 955 930 c 2
 845 930 l 2
 817 930 810 925 810 895 c 2
 810 146 l 2
 810 115 817 110 846 110 c 2
 921 110 l 2
 947 110 950 103 950 76 c 2
 950 36 l 2
 950 7 946 0 917 0 c 2
 572 0 l 2
 546 0 540 5 540 33 c 2
 540 83 l 2
 540 103 545 110 564 110 c 2
 605 110 l 2
 628 110 630 118 630 142 c 2
 630 908 l 2
 630 927 622 930 602 930 c 2
 325 930 l 2
 295 930 290 924 290 892 c 2
 290 140 l 2
 290 116 296 110 321 110 c 2
 401 110 l 2
 427 110 430 103 430 76 c 2
 430 25 l 2
 430 0 430 0 405 0 c 2
 53 0 l 2
 33 0 30 8 30 29 c 2
317 1040 m 2
 596 1040 l 2
 630 1040 630 1041 630 1075 c 2
 630 1170 l 2
 630 1205 619 1188 595 1185 c 0
 527 1176 486 1224 486 1282 c 0
 486 1342 528 1356 528 1396 c 0
 528 1420 492 1450 438 1450 c 0
 218 1450 290 1214 290 1070 c 0
 290 1047 295 1040 317 1040 c 2
EndSplineSet
LCarets2: 1 0
Ligature2: "'liga' Standard Ligatures lookup 4 subtable" f f
EndChar

StartChar: uniFB01
Encoding: 64257 64257 109
Width: 940
Flags: MW
LayerCount: 2
Fore
SplineSet
290 874 m 2
 290 158 l 2
 290 113 297 110 343 110 c 2
 389 110 l 2
 421 110 430 108 430 76 c 2
 430 35 l 2
 430 4 413 0 385 0 c 2
 67 0 l 2
 35 0 30 6 30 40 c 2
 30 72 l 2
 30 104 34 110 65 110 c 2
 72 110 l 2
 108 110 110 113 110 158 c 2
 110 884 l 2
 110 927 103 930 59 930 c 2
 57 930 l 2
 29 930 30 932 30 970 c 2
 30 1004 l 2
 30 1038 34 1040 55 1040 c 2
 63 1040 l 2
 103 1040 110 1045 110 1086 c 2
 110 1144 l 2
 110 1406 164 1580 464 1580 c 0
 706 1580 780 1472 780 1358 c 0
 780 1272 732 1226 662 1226 c 0
 592 1226 546 1266 546 1322 c 0
 546 1382 588 1396 588 1436 c 0
 588 1460 562 1490 468 1490 c 0
 188 1490 290 1314 290 1100 c 2
 290 1088 l 2
 290 1047 293 1040 333 1040 c 2
 791 1040 l 2
 828 1040 830 1032 830 994 c 2
 830 152 l 2
 830 111 839 110 881 110 c 2
 883 110 l 2
 908 110 910 102 910 76 c 2
 910 38 l 2
 910 8 905 0 873 0 c 2
 609 0 l 2
 571 0 570 9 570 48 c 2
 570 72 l 2
 570 104 574 110 605 110 c 2
 609 110 l 2
 645 110 650 116 650 154 c 2
 650 884 l 2
 650 920 649 930 613 930 c 2
 343 930 l 2
 295 930 290 924 290 874 c 2
EndSplineSet
LCarets2: 1 0
Ligature2: "'liga' Standard Ligatures lookup 4 subtable" f i
EndChar

StartChar: uniFB02
Encoding: 64258 64258 110
Width: 908
Flags: MW
LayerCount: 2
Fore
SplineSet
288 888 m 2
 288 156 l 2
 288 112 289 110 330 110 c 2
 396 110 l 2
 425 110 428 102 428 72 c 2
 428 36 l 2
 428 6 423 0 394 0 c 2
 60 0 l 2
 35 0 28 4 28 28 c 2
 28 80 l 2
 28 109 32 110 61 110 c 2
 68 110 l 2
 105 110 108 120 108 154 c 2
 108 896 l 2
 108 930 98 930 64 930 c 2
 63 930 l 2
 33 930 28 934 28 966 c 2
 28 1006 l 2
 28 1035 35 1040 62 1040 c 2
 66 1040 l 2
 103 1040 108 1046 108 1084 c 2
 108 1144 l 2
 108 1406 142 1580 392 1580 c 0
 480 1580 534 1558 592 1524 c 0
 643 1492 639 1477 688 1515 c 2
 744 1558 l 2
 786 1591 798 1589 798 1502 c 2
 798 160 l 2
 798 115 804 110 848 110 c 2
 854 110 l 2
 873 110 878 101 878 84 c 2
 878 36 l 2
 878 1 862 0 830 0 c 2
 574 0 l 2
 545 0 538 5 538 36 c 2
 538 72 l 2
 538 110 556 110 590 110 c 2
 592 110 l 2
 610 110 618 113 618 150 c 2
 618 1188 l 2
 618 1220 610 1226 578 1226 c 0
 514 1226 464 1266 464 1322 c 0
 464 1382 506 1396 506 1436 c 0
 506 1460 470 1490 396 1490 c 0
 176 1490 288 1274 288 1100 c 2
 288 1084 l 2
 288 1047 292 1040 328 1040 c 2
 427 1040 l 2
 463 1040 468 1034 468 996 c 2
 468 966 l 2
 468 935 461 930 432 930 c 2
 322 930 l 2
 289 930 288 921 288 888 c 2
EndSplineSet
LCarets2: 1 0
Ligature2: "'liga' Standard Ligatures lookup 4 subtable" f l
EndChar

StartChar: uniFB03
Encoding: 64259 64259 111
Width: 1358
Flags: MW
LayerCount: 2
Fore
SplineSet
321 1040 m 2
 571 1040 l 2
 606 1040 608 1049 608 1084 c 2
 610 1166 l 2
 611 1209 588 1185 557 1185 c 0
 496 1186 444 1228 444 1282 c 0
 444 1342 486 1356 486 1396 c 0
 486 1420 460 1450 396 1450 c 0
 166 1450 288 1214 288 1070 c 0
 288 1044 297 1040 321 1040 c 2
28 31 m 2
 28 77 l 2
 28 104 34 110 60 110 c 2
 63 110 l 2
 104 110 108 119 108 158 c 2
 108 894 l 2
 108 923 105 930 77 930 c 2
 57 930 l 2
 34 930 28 936 28 960 c 2
 28 1016 l 2
 28 1037 44 1040 62 1040 c 2
 74 1040 l 2
 102 1040 108 1045 108 1072 c 2
 109 1144 l 2
 111 1385 145 1540 392 1540 c 0
 484 1540 549 1514 593 1489 c 0
 625 1471 638 1477 654 1496 c 0
 715 1572 802 1600 912 1600 c 0
 1134 1600 1218 1472 1218 1358 c 0
 1218 1272 1170 1226 1100 1226 c 0
 1030 1226 984 1266 984 1322 c 0
 984 1412 1056 1416 1056 1456 c 0
 1056 1480 1000 1530 916 1530 c 0
 696 1530 788 1254 788 1100 c 2
 788 1074 l 2
 788 1041 806 1040 836 1040 c 2
 1209 1040 l 2
 1239 1040 1248 1036 1248 1004 c 2
 1248 149 l 2
 1248 117 1253 110 1287 110 c 2
 1301 110 l 2
 1323 110 1328 103 1328 80 c 2
 1328 39 l 2
 1328 8 1325 0 1295 0 c 2
 1022 0 l 2
 991 0 988 7 988 39 c 2
 988 83 l 2
 988 105 995 110 1018 110 c 2
 1033 110 l 2
 1063 110 1068 117 1068 145 c 2
 1068 894 l 2
 1068 930 1068 930 1032 930 c 2
 824 930 l 2
 793 930 788 924 788 892 c 2
 788 143 l 2
 788 111 797 110 830 110 c 2
 889 110 l 2
 913 110 928 108 928 81 c 2
 928 41 l 2
 928 6 924 0 890 0 c 2
 562 0 l 2
 532 0 528 7 528 38 c 2
 528 84 l 2
 528 105 534 110 557 110 c 2
 571 110 l 2
 600 110 608 115 608 146 c 2
 608 882 l 2
 608 927 598 930 555 930 c 2
 325 930 l 2
 293 930 288 924 288 890 c 2
 288 146 l 2
 288 111 297 110 332 110 c 2
 382 110 l 2
 411 110 428 109 428 77 c 2
 428 34 l 2
 428 4 420 0 392 0 c 2
 65 0 l 2
 36 0 28 3 28 31 c 2
EndSplineSet
LCarets2: 2 0 0
Ligature2: "'liga' Standard Ligatures lookup 4 subtable" f f i
EndChar

StartChar: uniFB04
Encoding: 64260 64260 112
Width: 1358
Flags: MW
LayerCount: 2
Fore
SplineSet
321 1040 m 2
 558 1040 l 2
 604 1040 608 1047 609 1091 c 2
 609 1136 l 2
 610 1192 616 1190 572 1186 c 0
 504 1179 444 1223 444 1282 c 0
 444 1342 486 1356 486 1396 c 0
 486 1420 460 1450 396 1450 c 0
 166 1450 288 1214 288 1070 c 0
 288 1044 297 1040 321 1040 c 2
28 45 m 2
 28 65 l 2
 28 100 31 110 68 110 c 2
 78 110 l 2
 98 110 108 111 108 151 c 2
 108 903 l 2
 108 925 100 930 80 930 c 2
 60 930 l 2
 34 930 28 935 28 963 c 2
 28 1009 l 2
 28 1038 36 1040 66 1040 c 2
 70 1040 l 2
 107 1040 108 1050 108 1087 c 2
 109 1144 l 2
 111 1385 145 1540 392 1540 c 0
 497 1540 561 1501 596 1465 c 0
 632 1428 623 1420 648 1468 c 0
 692 1554 767 1600 912 1600 c 0
 1022 1600 1105 1544 1114 1534 c 0
 1134 1512 1138 1514 1162 1533 c 2
 1204 1566 l 2
 1236 1591 1248 1617 1248 1549 c 2
 1248 163 l 2
 1248 120 1249 110 1292 110 c 2
 1296 110 l 2
 1321 110 1328 107 1328 83 c 2
 1328 43 l 2
 1328 5 1321 0 1284 0 c 2
 1028 0 l 2
 993 0 988 8 988 41 c 2
 988 61 l 2
 988 100 989 110 1028 110 c 2
 1038 110 l 2
 1062 110 1068 115 1068 161 c 2
 1068 1203 l 2
 1068 1238 1053 1230 1032 1242 c 0
 1002 1259 984 1287 984 1322 c 0
 984 1382 1026 1396 1026 1436 c 0
 1026 1460 990 1530 916 1530 c 0
 696 1530 788 1254 788 1100 c 2
 788 1087 l 2
 788 1050 789 1040 826 1040 c 2
 900 1040 l 2
 942 1040 958 1030 958 985 c 2
 958 971 l 2
 958 933 948 930 912 930 c 2
 820 930 l 2
 793 930 788 924 788 895 c 2
 788 173 l 2
 788 114 795 110 852 110 c 2
 884 110 l 2
 916 110 928 108 928 73 c 2
 928 35 l 2
 928 5 922 0 894 0 c 2
 568 0 l 2
 542 0 528 2 528 31 c 2
 528 71 l 2
 528 105 534 110 570 110 c 2
 573 110 l 2
 604 110 608 116 608 165 c 2
 608 883 l 2
 608 924 603 930 564 930 c 2
 338 930 l 2
 295 930 288 927 288 885 c 2
 288 163 l 2
 288 111 292 110 345 110 c 2
 382 110 l 2
 409 110 428 109 428 79 c 2
 428 45 l 2
 428 9 426 0 390 0 c 2
 68 0 l 2
 31 0 28 7 28 45 c 2
EndSplineSet
LCarets2: 2 0 0
Ligature2: "'liga' Standard Ligatures lookup 4 subtable" f f l
EndChar

StartChar: R.alt
Encoding: 65536 -1 113
Width: 1055
Flags: MW
LayerCount: 2
Back
SplineSet
1090 230 m 256
 1090 79 1069 -20 905 -20 c 256
 489 -20 918 690 525 690 c 258
 391 690 l 258
 347 690 345 682 345 638 c 258
 345 144 l 258
 345 113 353 110 385 110 c 258
 454 110 l 258
 482 110 485 103 485 74 c 258
 485 29 l 258
 485 4 478 0 452 0 c 258
 66 0 l 258
 41 0 35 6 35 32 c 258
 35 75 l 258
 35 105 43 110 71 110 c 258
 107 110 l 258
 148 110 155 113 155 153 c 258
 155 1342 l 258
 155 1385 148 1390 106 1390 c 258
 71 1390 l 258
 36 1390 35 1399 35 1435 c 258
 35 1466 l 258
 35 1492 38 1500 63 1500 c 258
 575 1500 l 258
 867 1500 945 1260 945 1090 c 256
 945 926 878 834 768 766 c 256
 733.603569797 744.736752238 741.343484142 718.495861561 782 690 c 256
 1006 533 817 110 967 110 c 256
 999 110 1025.2890625 142.091796875 1031 242 c 256
 1031.72976936 254.766720892 1036.51660156 258 1044 258 c 266
 1078 258 l 274
 1084.61230469 258 1090 254.824403497 1090 230 c 256
381 810 m 258
 554 810 l 258
 656 810 745 902 745 1100 c 256
 745 1298 656 1390 554 1390 c 258
 381 1390 l 258
 334 1390 345 1390 345 1343 c 258
 345 858 l 258
 345 817 338 810 381 810 c 258
EndSplineSet
Fore
SplineSet
403 810 m 2
 545 810 l 2
 697 810 745 902 745 1100 c 0
 745 1298 657 1390 545 1390 c 2
 391 1390 l 2
 350 1390 345 1384 345 1342 c 2
 345 862 l 2
 345 812 356 810 403 810 c 2
1009 0 m 2
 865 0 l 2
 479 0 918 690 525 690 c 2
 399 690 l 2
 354 690 345 689 345 644 c 2
 345 150 l 2
 345 118 349 110 383 110 c 2
 451 110 l 2
 480 110 485 104 485 74 c 2
 485 42 l 2
 485 3 474 0 437 0 c 2
 69 0 l 2
 40 0 35 6 35 36 c 2
 35 66 l 2
 35 104 40 110 77 110 c 2
 111 110 l 2
 151 110 155 118 155 156 c 2
 155 1354 l 2
 155 1381 154 1390 127 1390 c 2
 67 1390 l 2
 45 1390 35 1400 35 1422 c 2
 35 1466 l 2
 35 1492 38 1500 63 1500 c 2
 545 1500 l 2
 847 1500 945 1320 945 1100 c 0
 945 944 885 834 774 764 c 0
 746 746 738 731 765 717 c 0
 1034 577 757 110 967 110 c 2
 1007 110 l 2
 1033 110 1045 107 1045 78 c 2
 1045 36 l 2
 1045 5 1038 0 1009 0 c 2
EndSplineSet
EndChar

StartChar: zero.oldstyle
Encoding: 65537 -1 114
Width: 880
Flags: MW
LayerCount: 2
Back
SplineSet
80 750 m 0
 80 1316 194 1520 440 1520 c 0
 706 1520 800 1316 800 750 c 0
 800 184 666 -20 440 -20 c 0
 194 -20 80 184 80 750 c 0
300 750 m 0
 300 216 332 80 440 80 c 0
 568 80 580 216 580 750 c 0
 580 1284 568 1420 440 1420 c 0
 332 1420 300 1284 300 750 c 0
EndSplineSet
Fore
SplineSet
80 520 m 0
 80 886 194 1060 440 1060 c 0
 706 1060 800 886 800 520 c 0
 800 154 666 -20 440 -20 c 0
 194 -20 80 154 80 520 c 0
300 520 m 0
 300 236 342 80 440 80 c 0
 558 80 580 236 580 520 c 0
 580 804 558 960 440 960 c 0
 342 960 300 804 300 520 c 0
EndSplineSet
Substitution2: "'tnum' Tabular Numbers lookup 6 subtable" zero.oldtab
EndChar

StartChar: one.oldstyle
Encoding: 65538 -1 115
Width: 700
Flags: MW
LayerCount: 2
Fore
SplineSet
80 38 m 2
 80 80 l 2
 80 109 91 110 120 110 c 2
 228 110 l 2
 264 110 270 118 270 152 c 2
 270 723 l 2
 270 759 267 770 232 770 c 2
 128 770 l 2
 99 770 84 772 84 804 c 2
 84 834 l 2
 84 870 88 879 126 880 c 0
 200 881 305 895 352 1088 c 0
 358 1111 360 1130 394 1130 c 2
 422 1130 l 2
 447 1130 460 1129 460 1104 c 2
 460 162 l 2
 460 115 466 110 514 110 c 2
 586 110 l 2
 612 110 630 109 630 80 c 2
 630 40 l 2
 630 8 627 0 596 0 c 2
 114 0 l 2
 84 0 80 7 80 38 c 2
EndSplineSet
Substitution2: "'tnum' Tabular Numbers lookup 6 subtable" one.oldtab
EndChar

StartChar: two.oldstyle
Encoding: 65539 -1 116
Width: 834
Flags: MW
LayerCount: 2
Back
SplineSet
770 325 m 0
 785 63 723 -20 600 -20 c 0
 436 -20 396 100 300 100 c 0
 241 100 210 73 190 30 c 0
 183 13 178 0 151 0 c 2
 103 0 l 2
 82 0 80 10 80 29 c 0
 89 307 185 501 364 698 c 0
 466 810 554 942 554 1170 c 0
 554 1348 512 1426 384 1426 c 0
 277 1426 240 1358 240 1324 c 0
 240 1278 364 1258 364 1146 c 0
 364 1072 299 1030 245 1030 c 0
 187 1030 102 1086 102 1212 c 0
 102 1346 190 1520 454 1520 c 0
 686 1520 776 1390 776 1170 c 0
 776 930 648 755 414 580 c 0
 298 493 223 339 200 204 c 0
 193 163 170 134 186 134 c 0
 205 134 211 157 230 191 c 0
 256 238 300 269 380 269 c 0
 480 269 510 181 602 181 c 0
 659 181 668 235 675 327 c 0
 678 350 677 354 703 354 c 2
 744 354 l 2
 767 354 769 349 770 325 c 0
EndSplineSet
Fore
SplineSet
770 290 m 0
 764 19 733 -60 590 -60 c 0
 426 -60 416 60 310 60 c 0
 241 60 208 31 188 -14 c 0
 178 -37 172 -40 137 -40 c 2
 108 -40 l 2
 86 -40 79 -34 80 -14 c 0
 91 265 170 370 354 538 c 0
 450 626 484 712 484 840 c 0
 484 988 432 1056 364 1056 c 0
 286 1056 240 998 240 954 c 0
 240 908 354 888 354 816 c 0
 354 742 294 700 240 700 c 0
 182 700 112 756 112 852 c 0
 112 996 210 1140 394 1140 c 0
 586 1140 696 1040 696 840 c 0
 696 680 592 564 384 420 c 0
 292 356 241 279 225 214 c 0
 215 171 200 150 205 144 c 0
 210 138 223 162 262 177 c 0
 292 188 337 194 380 194 c 0
 480 194 500 126 572 126 c 0
 659 126 668 181 675 287 c 0
 677 312 682 314 709 314 c 2
 739 314 l 2
 763 314 770 314 770 290 c 0
EndSplineSet
Substitution2: "'tnum' Tabular Numbers lookup 6 subtable" two.oldtab
EndChar

StartChar: three.oldstyle
Encoding: 65540 -1 117
Width: 780
Flags: MW
LayerCount: 2
Fore
SplineSet
50 -212 m 0
 50 -116 100 -30 178 -30 c 0
 252 -30 292 -72 292 -146 c 0
 292 -258 188 -258 188 -304 c 0
 188 -358 254 -397 322 -397 c 0
 490 -397 528 -228 528 -80 c 0
 528 104 472 245 324 257 c 0
 278 261 234 243 234 302 c 2
 234 320 l 2
 234 379 279 363 324 366 c 0
 465 374 496 566 496 682 c 0
 496 830 470 976 332 976 c 0
 234 976 198 930 198 876 c 0
 198 830 322 840 322 728 c 0
 322 654 282 612 208 612 c 0
 130 612 80 698 80 794 c 0
 80 918 158 1060 382 1060 c 0
 604 1060 690 922 690 722 c 0
 690 436 601 421 532 374 c 0
 489 345 446 332 446 310 c 0
 446 294 483 286 526 273 c 0
 684 223 730 74 730 -80 c 0
 730 -300 604 -480 322 -480 c 0
 148 -480 50 -366 50 -212 c 0
EndSplineSet
Substitution2: "'tnum' Tabular Numbers lookup 6 subtable" three.oldtab
EndChar

StartChar: four.oldstyle
Encoding: 65541 -1 118
Width: 870
Flags: MW
LayerCount: 2
Fore
SplineSet
800 -376 m 2
 800 -434 l 2
 800 -457 793 -460 769 -460 c 2
 432 -460 l 2
 407 -460 400 -455 400 -428 c 2
 400 -383 l 2
 400 -357 405 -350 430 -350 c 2
 462 -350 l 2
 483 -350 490 -345 490 -325 c 2
 490 -38 l 2
 490 -7 487 0 457 0 c 2
 154 0 l 2
 124 0 117 3 103 17 c 2
 77 43 l 2
 58 62 63 68 74 95 c 0
 214 426 426 590 528 987 c 0
 536 1017 528 1040 569 1040 c 2
 678 1040 l 2
 719 1040 727 1036 722 999 c 0
 667 587 392 414 234 158 c 0
 215 127 223 110 280 110 c 2
 472 110 l 2
 493 110 490 115 490 135 c 2
 490 260 l 2
 490 293 498 292 515 305 c 0
 562 341 590 388 620 478 c 0
 626 495 623 510 648 510 c 2
 654 510 l 2
 680 510 680 503 680 479 c 2
 680 154 l 2
 680 116 685 110 722 110 c 2
 799 110 l 2
 826 110 830 103 830 75 c 2
 830 30 l 2
 830 3 822 0 794 0 c 2
 715 0 l 2
 684 0 680 -10 680 -39 c 2
 680 -314 l 2
 680 -345 686 -350 718 -350 c 2
 765 -350 l 2
 790 -350 800 -351 800 -376 c 2
EndSplineSet
Substitution2: "'tnum' Tabular Numbers lookup 6 subtable" four.oldtab
EndChar

StartChar: five.oldstyle
Encoding: 65542 -1 119
Width: 840
Flags: MW
LayerCount: 2
Fore
SplineSet
60 -202 m 0
 60 -96 130 -50 188 -50 c 0
 242 -50 302 -92 302 -166 c 0
 302 -238 208 -278 208 -324 c 0
 208 -358 254 -396 332 -396 c 0
 510 -396 568 -208 568 0 c 0
 568 268 560 442 422 442 c 0
 339 442 286 409 234 343 c 0
 219 323 211 314 173 314 c 2
 131 314 l 2
 93 314 96 328 100 358 c 2
 183 1002 l 2
 187 1033 194 1040 228 1040 c 2
 374 1040 l 2
 446 1040 538 1009 598 1076 c 0
 608 1087 612 1104 637 1104 c 2
 694 1104 l 2
 708 1104 711 1102 708 1090 c 2
 696 1040 l 2
 660 876 624 860 350 860 c 2
 306 860 l 2
 276 860 265 856 261 828 c 2
 219 506 l 2
 213 458 203 434 211 430 c 0
 224 424 233 442 266 474 c 0
 297 504 368 540 446 540 c 0
 718 540 770 320 770 40 c 0
 770 -260 634 -480 352 -480 c 0
 128 -480 60 -336 60 -202 c 0
EndSplineSet
Substitution2: "'tnum' Tabular Numbers lookup 6 subtable" five.oldtab
EndChar

StartChar: seven.oldstyle
Encoding: 65543 -1 120
Width: 818
Flags: MW
LayerCount: 2
Fore
SplineSet
50 702 m 0
 54 979 145 1060 300 1060 c 0
 414 1060 464 940 560 940 c 0
 634 940 666 973 686 1023 c 0
 691 1036 692 1040 711 1040 c 2
 780 1040 l 2
 803 1040 799 1034 796 1013 c 0
 772 863 650 548 546 276 c 0
 474 88 438 12 438 -76 c 0
 438 -222 504 -252 504 -344 c 0
 504 -418 464 -480 376 -480 c 0
 298 -480 244 -406 244 -268 c 0
 244 -90 336 94 428 302 c 0
 497 458 558 637 611 794 c 0
 618 816 625 831 620 836 c 0
 615 841 603 823 582 817 c 0
 556 809 526 806 490 806 c 0
 390 806 350 874 268 874 c 0
 167 874 148 821 144 706 c 0
 144 691 143 686 128 686 c 2
 72 686 l 2
 57 686 50 687 50 702 c 0
EndSplineSet
Substitution2: "'tnum' Tabular Numbers lookup 6 subtable" seven.oldtab
EndChar

StartChar: nine.oldstyle
Encoding: 65544 -1 121
Width: 840
Flags: MW
LayerCount: 2
Fore
SplineSet
284 -352 m 0
 284 -378 324 -396 372 -396 c 0
 534 -396 561 -153 577 140 c 0
 579 173 583 186 576 190 c 0
 568 194 563 181 547 161 c 0
 510 117 450 80 348 80 c 0
 146 80 40 240 40 570 c 0
 40 880 190 1060 402 1060 c 0
 654 1060 780 860 780 300 c 0
 780 -180 654 -480 352 -480 c 0
 218 -480 120 -386 120 -272 c 0
 120 -156 190 -110 248 -110 c 0
 302 -110 362 -152 362 -226 c 0
 362 -298 284 -326 284 -352 c 0
240 570 m 0
 240 342 304 178 412 178 c 0
 538 178 580 320 580 480 c 0
 580 778 560 970 402 970 c 0
 274 970 240 788 240 570 c 0
EndSplineSet
Substitution2: "'tnum' Tabular Numbers lookup 6 subtable" nine.oldtab
EndChar

StartChar: zero.oldtab
Encoding: 65545 -1 122
Width: 880
Flags: MW
LayerCount: 2
Fore
SplineSet
80 520 m 0
 80 886 194 1060 440 1060 c 0
 706 1060 800 886 800 520 c 0
 800 154 666 -20 440 -20 c 0
 194 -20 80 154 80 520 c 0
300 520 m 0
 300 236 342 80 440 80 c 0
 558 80 580 236 580 520 c 0
 580 804 558 960 440 960 c 0
 342 960 300 804 300 520 c 0
EndSplineSet
EndChar

StartChar: one.oldtab
Encoding: 65546 -1 123
Width: 880
Flags: MW
LayerCount: 2
Fore
SplineSet
170 38 m 2
 170 80 l 2
 170 109 181 110 210 110 c 2
 318 110 l 2
 354 110 360 118 360 152 c 2
 360 723 l 2
 360 759 357 770 322 770 c 2
 218 770 l 2
 189 770 174 772 174 804 c 2
 174 834 l 2
 174 870 178 879 216 880 c 0
 290 881 395 895 442 1088 c 0
 448 1111 450 1130 484 1130 c 2
 512 1130 l 2
 537 1130 550 1129 550 1104 c 2
 550 162 l 2
 550 115 556 110 604 110 c 2
 676 110 l 2
 702 110 720 109 720 80 c 2
 720 40 l 2
 720 8 717 0 686 0 c 2
 204 0 l 2
 174 0 170 7 170 38 c 2
EndSplineSet
EndChar

StartChar: two.oldtab
Encoding: 65547 -1 124
Width: 880
Flags: MW
LayerCount: 2
Fore
SplineSet
793 290 m 0
 787 19 756 -60 613 -60 c 0
 449 -60 439 60 333 60 c 0
 264 60 231 31 211 -14 c 0
 201 -37 195 -40 160 -40 c 2
 131 -40 l 2
 109 -40 102 -34 103 -14 c 0
 114 265 193 370 377 538 c 0
 473 626 507 712 507 840 c 0
 507 988 455 1056 387 1056 c 0
 309 1056 263 998 263 954 c 0
 263 908 377 888 377 816 c 0
 377 742 317 700 263 700 c 0
 205 700 135 756 135 852 c 0
 135 996 233 1140 417 1140 c 0
 609 1140 719 1040 719 840 c 0
 719 680 615 564 407 420 c 0
 315 356 264 279 248 214 c 0
 238 171 223 150 228 144 c 0
 233 138 246 162 285 177 c 0
 315 188 360 194 403 194 c 0
 503 194 523 126 595 126 c 0
 682 126 691 181 698 287 c 0
 700 312 705 314 732 314 c 2
 762 314 l 2
 786 314 793 314 793 290 c 0
EndSplineSet
EndChar

StartChar: three.oldtab
Encoding: 65548 -1 125
Width: 880
Flags: MW
LayerCount: 2
Fore
SplineSet
100 -212 m 0
 100 -116 150 -30 228 -30 c 0
 302 -30 342 -72 342 -146 c 0
 342 -258 238 -258 238 -304 c 0
 238 -358 304 -397 372 -397 c 0
 540 -397 578 -228 578 -80 c 0
 578 104 522 245 374 257 c 0
 328 261 284 243 284 302 c 2
 284 320 l 2
 284 379 329 363 374 366 c 0
 515 374 546 566 546 682 c 0
 546 830 520 976 382 976 c 0
 284 976 248 930 248 876 c 0
 248 830 372 840 372 728 c 0
 372 654 332 612 258 612 c 0
 180 612 130 698 130 794 c 0
 130 918 208 1060 432 1060 c 0
 654 1060 740 922 740 722 c 0
 740 436 651 421 582 374 c 0
 539 345 496 332 496 310 c 0
 496 294 533 286 576 273 c 0
 734 223 780 74 780 -80 c 0
 780 -300 654 -480 372 -480 c 0
 198 -480 100 -366 100 -212 c 0
EndSplineSet
EndChar

StartChar: four.oldtab
Encoding: 65549 -1 126
Width: 880
Flags: MW
LayerCount: 2
Fore
SplineSet
805 -376 m 2
 805 -434 l 2
 805 -457 798 -460 774 -460 c 2
 437 -460 l 2
 412 -460 405 -455 405 -428 c 2
 405 -383 l 2
 405 -357 410 -350 435 -350 c 2
 467 -350 l 2
 488 -350 495 -345 495 -325 c 2
 495 -38 l 2
 495 -7 492 0 462 0 c 2
 159 0 l 2
 129 0 122 3 108 17 c 2
 82 43 l 2
 63 62 68 68 79 95 c 0
 219 426 431 590 533 987 c 0
 541 1017 533 1040 574 1040 c 2
 683 1040 l 2
 724 1040 732 1036 727 999 c 0
 672 587 397 414 239 158 c 0
 220 127 228 110 285 110 c 2
 477 110 l 2
 498 110 495 115 495 135 c 2
 495 260 l 2
 495 293 503 292 520 305 c 0
 567 341 595 388 625 478 c 0
 631 495 628 510 653 510 c 2
 659 510 l 2
 685 510 685 503 685 479 c 2
 685 154 l 2
 685 116 690 110 727 110 c 2
 804 110 l 2
 831 110 835 103 835 75 c 2
 835 30 l 2
 835 3 827 0 799 0 c 2
 720 0 l 2
 689 0 685 -10 685 -39 c 2
 685 -314 l 2
 685 -345 691 -350 723 -350 c 2
 770 -350 l 2
 795 -350 805 -351 805 -376 c 2
EndSplineSet
EndChar

StartChar: five.oldtab
Encoding: 65550 -1 127
Width: 880
Flags: MW
LayerCount: 2
Fore
SplineSet
80 -202 m 0
 80 -96 150 -50 208 -50 c 0
 262 -50 322 -92 322 -166 c 0
 322 -238 228 -278 228 -324 c 0
 228 -358 274 -396 352 -396 c 0
 530 -396 588 -208 588 0 c 0
 588 268 580 442 442 442 c 0
 359 442 306 409 254 343 c 0
 239 323 231 314 193 314 c 2
 151 314 l 2
 113 314 116 328 120 358 c 2
 203 1002 l 2
 207 1033 214 1040 248 1040 c 2
 394 1040 l 2
 466 1040 558 1009 618 1076 c 0
 628 1087 632 1104 657 1104 c 2
 714 1104 l 2
 728 1104 731 1102 728 1090 c 2
 716 1040 l 2
 680 876 644 860 370 860 c 2
 326 860 l 2
 296 860 285 856 281 828 c 2
 239 506 l 2
 233 458 223 434 231 430 c 0
 244 424 253 442 286 474 c 0
 317 504 388 540 466 540 c 0
 738 540 790 320 790 40 c 0
 790 -260 654 -480 372 -480 c 0
 148 -480 80 -336 80 -202 c 0
EndSplineSet
EndChar

StartChar: seven.oldtab
Encoding: 65551 -1 128
Width: 880
Flags: MW
LayerCount: 2
Fore
SplineSet
81 702 m 0
 85 979 176 1060 331 1060 c 0
 445 1060 495 940 591 940 c 0
 665 940 697 973 717 1023 c 0
 722 1036 723 1040 742 1040 c 2
 811 1040 l 2
 834 1040 830 1034 827 1013 c 0
 803 863 681 548 577 276 c 0
 505 88 469 12 469 -76 c 0
 469 -222 535 -252 535 -344 c 0
 535 -418 495 -480 407 -480 c 0
 329 -480 275 -406 275 -268 c 0
 275 -90 367 94 459 302 c 0
 528 458 589 637 642 794 c 0
 649 816 656 831 651 836 c 0
 646 841 634 823 613 817 c 0
 587 809 557 806 521 806 c 0
 421 806 381 874 299 874 c 0
 198 874 179 821 175 706 c 0
 175 691 174 686 159 686 c 2
 103 686 l 2
 88 686 81 687 81 702 c 0
EndSplineSet
EndChar

StartChar: nine.oldtab
Encoding: 65552 -1 129
Width: 840
Flags: MW
LayerCount: 2
Fore
SplineSet
284 -352 m 0
 284 -378 324 -396 372 -396 c 0
 534 -396 561 -153 577 140 c 0
 579 173 583 186 576 190 c 0
 568 194 563 181 547 161 c 0
 510 117 450 80 348 80 c 0
 146 80 40 240 40 570 c 0
 40 880 190 1060 402 1060 c 0
 654 1060 780 860 780 300 c 0
 780 -180 654 -480 352 -480 c 0
 218 -480 120 -386 120 -272 c 0
 120 -156 190 -110 248 -110 c 0
 302 -110 362 -152 362 -226 c 0
 362 -298 284 -326 284 -352 c 0
240 570 m 0
 240 342 304 178 412 178 c 0
 538 178 580 320 580 480 c 0
 580 778 560 970 402 970 c 0
 274 970 240 788 240 570 c 0
EndSplineSet
EndChar

StartChar: uniFF10
Encoding: 65296 65296 130
Width: 880
Flags: MW
LayerCount: 2
Fore
SplineSet
80 750 m 0
 80 1316 194 1520 440 1520 c 0
 706 1520 800 1316 800 750 c 0
 800 184 666 -20 440 -20 c 0
 194 -20 80 184 80 750 c 0
300 750 m 0
 300 216 332 80 440 80 c 0
 568 80 580 216 580 750 c 0
 580 1284 568 1420 440 1420 c 0
 332 1420 300 1284 300 750 c 0
EndSplineSet
EndChar

StartChar: uniFF19
Encoding: 65305 65305 139
Width: 880
Flags: MW
LayerCount: 2
Fore
SplineSet
304 108 m 0
 304 82 344 64 392 64 c 0
 554 64 581 307 597 600 c 0
 599 633 603 646 596 650 c 0
 588 654 583 641 567 621 c 0
 530 577 470 540 368 540 c 0
 166 540 60 700 60 1030 c 0
 60 1340 210 1520 422 1520 c 0
 674 1520 800 1320 800 760 c 0
 800 280 674 -20 372 -20 c 0
 238 -20 140 74 140 188 c 0
 140 304 210 350 268 350 c 0
 322 350 382 308 382 234 c 0
 382 162 304 134 304 108 c 0
260 1030 m 0
 260 802 324 638 432 638 c 0
 558 638 600 780 600 940 c 0
 600 1238 580 1430 422 1430 c 0
 294 1430 260 1248 260 1030 c 0
EndSplineSet
EndChar

StartChar: dagger
Encoding: 8224 8224 152
Width: 1186
Flags: MW
LayerCount: 2
Fore
SplineSet
536 1074 m 0
 531 1207 512 1237 495 1361 c 0
 493 1375 493 1386 493 1398 c 0
 493 1476 534 1520 593 1520 c 0
 652 1520 693 1476 693 1398 c 0
 693 1386 693 1375 691 1361 c 0
 674 1238 656 1207 650 1078 c 0
 649 1048 641 1032 675 1035 c 0
 751 1042 815 1058 927 1074 c 0
 941 1076 952 1076 964 1076 c 0
 1042 1076 1086 1035 1086 976 c 0
 1086 917 1042 876 964 876 c 0
 952 876 941 876 927 878 c 0
 821 893 759 907 688 915 c 0
 657 918 647 925 648 889 c 0
 651 740 666 610 714 524 c 0
 729 497 725 495 714 465 c 0
 651 298 648 -17 648 -465 c 0
 648 -489 644 -500 618 -500 c 2
 564 -500 l 2
 543 -500 538 -492 538 -473 c 0
 538 -6 535 318 465 482 c 0
 455 506 466 511 477 533 c 0
 520 617 534 741 537 881 c 0
 538 924 531 919 493 915 c 0
 424 907 362 893 259 878 c 0
 245 876 234 876 222 876 c 0
 144 876 100 917 100 976 c 0
 100 1035 144 1076 222 1076 c 0
 234 1076 245 1076 259 1074 c 0
 359 1060 421 1046 487 1038 c 0
 529 1033 538 1028 536 1074 c 0
EndSplineSet
EndChar

StartChar: daggerdbl
Encoding: 8225 8225 153
Width: 1186
Flags: MW
LayerCount: 2
Fore
SplineSet
536 1056 m 0
 532 1204 513 1231 495 1361 c 0
 493 1375 493 1386 493 1398 c 0
 493 1476 534 1520 593 1520 c 0
 652 1520 693 1476 693 1398 c 0
 693 1386 693 1375 691 1361 c 0
 673 1231 654 1204 650 1056 c 0
 649 1033 650 1033 672 1035 c 0
 749 1042 813 1058 927 1074 c 0
 941 1076 952 1076 964 1076 c 0
 1042 1076 1086 1035 1086 976 c 0
 1086 917 1042 876 964 876 c 0
 952 876 941 876 927 878 c 0
 817 894 753 909 679 916 c 0
 655 918 647 924 648 896 c 0
 651 745 666 613 713 526 c 0
 727 500 727 501 713 474 c 0
 666 387 651 257 648 109 c 0
 647 80 649 80 676 83 c 0
 752 90 815 106 927 122 c 0
 941 124 952 124 964 124 c 0
 1042 124 1086 83 1086 24 c 0
 1086 -35 1042 -76 964 -76 c 0
 952 -76 941 -76 927 -74 c 0
 821 -59 758 -44 688 -36 c 0
 653 -32 649 -30 650 -68 c 0
 655 -206 673 -235 691 -361 c 0
 693 -375 693 -386 693 -398 c 0
 693 -476 652 -520 593 -520 c 0
 534 -520 493 -476 493 -398 c 0
 493 -386 493 -375 495 -361 c 0
 513 -233 531 -205 536 -60 c 0
 537 -27 527 -33 498 -36 c 0
 428 -44 365 -59 259 -74 c 0
 245 -76 234 -76 222 -76 c 0
 144 -76 100 -35 100 24 c 0
 100 83 144 124 222 124 c 0
 234 124 245 124 259 122 c 0
 366 107 429 92 501 84 c 0
 526 81 539 74 538 104 c 0
 535 260 519 397 467 484 c 0
 455 505 463 507 474 528 c 0
 519 614 534 741 537 886 c 0
 538 929 521 918 486 914 c 0
 420 906 359 892 259 878 c 0
 245 876 234 876 222 876 c 0
 144 876 100 917 100 976 c 0
 100 1035 144 1076 222 1076 c 0
 234 1076 245 1076 259 1074 c 0
 368 1058 431 1044 504 1036 c 0
 529 1033 537 1027 536 1056 c 0
EndSplineSet
EndChar

StartChar: gravecomb
Encoding: 768 768 156
Width: 0
Flags: MW
AnchorPoint: "Anchor-0" 571 1500 mark 0
LayerCount: 2
Fore
SplineSet
595 1669 m 2
 359 1807 l 2
 325 1827 303 1870 332 1920 c 256
 359 1966 427 1973 464 1936 c 2
 658 1747 l 2
 671 1734 672 1725 659 1711 c 2
 625 1675 l 2
 614 1663 610 1660 595 1669 c 2
EndSplineSet
EndChar

StartChar: acutecomb
Encoding: 769 769 157
Width: 0
Flags: MW
AnchorPoint: "Anchor-0" 429 1500 mark 0
LayerCount: 2
Fore
SplineSet
374 1677 m 2
 340 1713 l 2
 328 1726 328 1734 340 1745 c 2
 536 1936 l 2
 573 1973 641 1966 668 1920 c 256
 697 1870 675 1827 641 1807 c 2
 413 1674 l 2
 395 1663 389 1661 374 1677 c 2
EndSplineSet
EndChar

StartChar: uni0302
Encoding: 770 770 158
Width: 0
Flags: MW
AnchorPoint: "Anchor-0" 499 1500 mark 0
LayerCount: 2
Fore
SplineSet
242 1690 m 2
 220 1714 l 2
 205 1729 205 1729 220 1744 c 2
 408 1932 l 2
 422 1946 432 1949 461 1949 c 2
 546 1949 l 2
 572 1949 580 1944 592 1932 c 2
 784 1740 l 2
 794 1730 796 1730 785 1719 c 2
 752 1686 l 2
 737 1671 737 1673 720 1685 c 2
 525 1830 l 2
 507 1843 493 1844 475 1831 c 2
 278 1684 l 2
 263 1673 255 1677 242 1690 c 2
EndSplineSet
EndChar

StartChar: tildecomb
Encoding: 771 771 159
Width: 0
Flags: MW
AnchorPoint: "Anchor-0" 496 1500 mark 0
LayerCount: 2
Fore
SplineSet
646 1680 m 0
 562 1680 510 1717 468 1759 c 0
 435 1792 397 1838 337 1838 c 0
 262 1838 229 1794 226 1714 c 0
 225 1702 219 1700 206 1700 c 2
 174 1700 l 2
 151 1700 151 1710 153 1730 c 0
 165 1857 250 1954 374 1954 c 0
 458 1954 510 1918 549 1875 c 0
 578 1843 610 1796 663 1796 c 0
 736 1796 769 1837 774 1912 c 0
 775 1928 777 1934 796 1934 c 2
 829 1934 l 2
 847 1934 849 1928 848 1912 c 0
 843 1764 783 1680 646 1680 c 0
EndSplineSet
EndChar

StartChar: uni0304
Encoding: 772 772 160
Width: 0
Flags: MW
AnchorPoint: "Anchor-0" 500 1500 mark 0
LayerCount: 2
Fore
SplineSet
260 1712 m 2
 260 1745 l 2
 260 1764 262 1772 280 1772 c 2
 706 1772 l 2
 731 1772 740 1768 740 1741 c 2
 740 1710 l 2
 740 1689 739 1680 718 1680 c 2
 295 1680 l 2
 269 1680 260 1684 260 1712 c 2
EndSplineSet
EndChar

StartChar: uni0306
Encoding: 774 774 161
Width: 0
Flags: MW
AnchorPoint: "Anchor-0" 499 1500 mark 0
LayerCount: 2
Fore
SplineSet
499 1680 m 256
 327 1680 274 1775 271 1919 c 0
 271 1936 277 1938 294 1938 c 2
 313 1938 l 2
 327 1938 330 1935 331 1922 c 0
 338 1832 402 1790 499 1790 c 256
 591 1790 656 1828 668 1909 c 0
 671 1928 664 1938 688 1938 c 2
 710 1938 l 2
 731 1938 731 1934 730 1914 c 0
 725 1774 668 1680 499 1680 c 256
EndSplineSet
EndChar

StartChar: uni0307
Encoding: 775 775 162
Width: 0
Flags: MW
AnchorPoint: "Anchor-0" 500 920 mark 0
LayerCount: 2
Fore
SplineSet
501 1269 m 0
 436 1269 381 1325 381 1390 c 0
 381 1456 436 1510 501 1510 c 0
 567 1510 621 1456 621 1390 c 0
 621 1325 567 1269 501 1269 c 0
EndSplineSet
EndChar

StartChar: uni0308
Encoding: 776 776 163
Width: 0
Flags: MW
AnchorPoint: "Anchor-0" 501 1500 mark 0
LayerCount: 2
Fore
SplineSet
660 1690 m 256
 607 1690 564 1733 564 1786 c 256
 564 1839 607 1883 660 1883 c 256
 713 1883 756 1839 756 1786 c 256
 756 1733 713 1690 660 1690 c 256
340 1690 m 256
 287 1690 244 1733 244 1786 c 256
 244 1839 287 1883 340 1883 c 256
 393 1883 436 1839 436 1786 c 256
 436 1733 393 1690 340 1690 c 256
EndSplineSet
EndChar

StartChar: uni030A
Encoding: 778 778 164
Width: 0
Flags: MW
AnchorPoint: "Anchor-0" 500 1500 mark 0
LayerCount: 2
Fore
SplineSet
500 1680 m 0
 399 1680 321 1758 321 1859 c 0
 321 1960 399 2040 500 2040 c 0
 602 2040 680 1961 680 1859 c 0
 680 1758 601 1680 500 1680 c 0
500 1754 m 256
 560 1754 602 1795 602 1859 c 256
 602 1922 560 1967 500 1967 c 256
 440 1967 399 1922 399 1859 c 256
 399 1795 440 1754 500 1754 c 256
EndSplineSet
EndChar

StartChar: uni030B
Encoding: 779 779 165
Width: 0
Flags: MW
AnchorPoint: "Anchor-0" 424 1500 mark 0
LayerCount: 2
Fore
SplineSet
577 1680 m 2
 554 1705 l 2
 533 1727 530 1729 552 1750 c 2
 742 1936 l 2
 786 1979 846 1962 875 1924 c 256
 903 1887 890 1832 847 1807 c 2
 614 1671 l 2
 595 1660 592 1664 577 1680 c 2
160 1685 m 2
 139 1706 l 2
 118 1729 126 1736 147 1756 c 2
 331 1936 l 2
 375 1979 431 1965 460 1927 c 256
 488 1890 483 1835 436 1807 c 2
 226 1687 l 2
 194 1668 185 1658 160 1685 c 2
EndSplineSet
EndChar

StartChar: uni030C
Encoding: 780 780 166
Width: 0
Flags: MW
AnchorPoint: "Anchor-0" 499 1500 mark 0
LayerCount: 2
Fore
SplineSet
391 1721 m 2
 227 1887 l 2
 210 1904 204 1911 223 1926 c 2
 241 1940 l 2
 262 1957 266 1953 289 1938 c 2
 445 1836 l 2
 485 1810 512 1809 551 1836 c 2
 717 1952 l 2
 738 1967 743 1961 761 1943 c 2
 771 1935 l 2
 790 1917 794 1910 776 1892 c 2
 599 1714 l 2
 584 1699 581 1690 549 1690 c 2
 469 1690 l 2
 428 1690 410 1702 391 1721 c 2
EndSplineSet
EndChar

StartChar: uni0311
Encoding: 785 785 167
Width: 0
Flags: MW
AnchorPoint: "Anchor-0" 499 1500 mark 0
LayerCount: 2
Fore
SplineSet
502 1938 m 256
 674 1938 727 1843 730 1699 c 0
 730 1682 724 1680 707 1680 c 2
 688 1680 l 2
 674 1680 671 1683 670 1696 c 0
 663 1786 599 1828 502 1828 c 256
 410 1828 345 1790 333 1709 c 0
 330 1690 337 1680 313 1680 c 2
 291 1680 l 2
 270 1680 270 1684 271 1704 c 0
 276 1844 333 1938 502 1938 c 256
EndSplineSet
EndChar

StartChar: uni0312
Encoding: 786 786 168
Width: 0
Flags: MW
AnchorPoint: "Anchor-0" 497 920 mark 0
LayerCount: 2
Fore
SplineSet
610 1198 m 0
 610 1145 564 1103 503 1103 c 0
 441 1103 391 1153 391 1270 c 0
 391 1377 463 1513 595 1525 c 0
 607 1526 613 1527 613 1513 c 2
 613 1478 l 2
 613 1464 605 1462 593 1460 c 0
 520 1449 458 1375 467 1283 c 0
 469 1270 475 1276 484 1282 c 0
 497 1291 508 1292 525 1292 c 0
 578 1292 610 1251 610 1198 c 0
EndSplineSet
EndChar

StartChar: dotbelowcomb
Encoding: 803 803 169
Width: 0
Flags: MW
AnchorPoint: "Anchor-1" 500 0 mark 0
AnchorPoint: "Anchor-2" 500 0 mark 0
LayerCount: 2
Fore
SplineSet
501 -410 m 0
 436 -410 381 -354 381 -289 c 0
 381 -223 436 -169 501 -169 c 0
 567 -169 621 -223 621 -289 c 0
 621 -354 567 -410 501 -410 c 0
EndSplineSet
EndChar

StartChar: uni0326
Encoding: 806 806 170
Width: 0
Flags: MW
AnchorPoint: "Anchor-1" 496 0 mark 0
AnchorPoint: "Anchor-2" 496 0 mark 0
LayerCount: 2
Fore
SplineSet
393 -296 m 0
 393 -243 439 -201 500 -201 c 0
 562 -201 612 -251 612 -368 c 0
 612 -475 540 -611 408 -623 c 0
 396 -624 390 -625 390 -611 c 2
 390 -576 l 2
 390 -562 398 -560 410 -558 c 0
 483 -547 545 -473 536 -381 c 0
 534 -368 528 -374 519 -380 c 0
 506 -389 495 -390 478 -390 c 0
 425 -390 393 -349 393 -296 c 0
EndSplineSet
EndChar

StartChar: uni0327
Encoding: 807 807 171
Width: 0
Flags: MW
AnchorPoint: "Anchor-1" 528 0 mark 0
AnchorPoint: "Anchor-2" 528 0 mark 0
LayerCount: 2
Fore
SplineSet
345 -480 m 2
 345 -463 l 2
 345 -441 356 -437 376 -436 c 0
 457 -430 541 -402 541 -336 c 0
 541 -256 455 -237 365 -229 c 0
 326 -225 325 -218 338 -200 c 2
 489 2 l 2
 495 11 496 12 512 12 c 2
 563 12 l 2
 593 12 582 7 571 -8 c 2
 482 -126 l 2
 465 -149 465 -147 501 -150 c 0
 610 -160 683 -198 683 -310 c 0
 683 -455 526 -505 370 -509 c 0
 349 -510 345 -502 345 -480 c 2
EndSplineSet
EndChar

StartChar: uni0328
Encoding: 808 808 172
Width: 0
Flags: MW
AnchorPoint: "Anchor-2" 511 47 mark 0
AnchorPoint: "Anchor-3" 511 47 mark 0
LayerCount: 2
Fore
SplineSet
494 -372 m 0
 381 -372 278 -335 278 -220 c 0
 278 -108 426 -2 533 70 c 0
 555 85 573 90 581 80 c 0
 590 69 579 54 563 36 c 0
 517 -16 464 -89 464 -170 c 0
 464 -221 489 -275 559 -275 c 0
 608 -275 643 -246 665 -214 c 0
 675 -199 684 -199 694 -207 c 2
 708 -217 l 2
 721 -226 720 -230 712 -245 c 0
 672 -318 611 -372 494 -372 c 0
EndSplineSet
EndChar

StartChar: breve
Encoding: 728 728 173
Width: 1000
Flags: MW
AnchorPoint: "Anchor-0" 499 1500 mark 0
LayerCount: 2
Fore
SplineSet
499 1680 m 256
 327 1680 274 1775 271 1919 c 0
 271 1936 277 1938 294 1938 c 2
 313 1938 l 2
 327 1938 330 1935 331 1922 c 0
 338 1832 402 1790 499 1790 c 256
 591 1790 656 1828 668 1909 c 0
 671 1928 664 1938 688 1938 c 2
 710 1938 l 2
 731 1938 731 1934 730 1914 c 0
 725 1774 668 1680 499 1680 c 256
EndSplineSet
EndChar

StartChar: dotaccent
Encoding: 729 729 174
Width: 1000
Flags: MW
AnchorPoint: "Anchor-0" 497 1040 mark 0
LayerCount: 2
Fore
SplineSet
501 1269 m 0
 436 1269 381 1325 381 1390 c 0
 381 1456 436 1510 501 1510 c 0
 567 1510 621 1456 621 1390 c 0
 621 1325 567 1269 501 1269 c 0
EndSplineSet
EndChar

StartChar: ring
Encoding: 730 730 175
Width: 1000
Flags: MW
AnchorPoint: "Anchor-0" 500 1500 mark 0
LayerCount: 2
Fore
SplineSet
500 1680 m 0
 399 1680 321 1758 321 1859 c 0
 321 1960 399 2040 500 2040 c 0
 602 2040 680 1961 680 1859 c 0
 680 1758 601 1680 500 1680 c 0
500 1754 m 256
 560 1754 602 1795 602 1859 c 256
 602 1922 560 1967 500 1967 c 256
 440 1967 399 1922 399 1859 c 256
 399 1795 440 1754 500 1754 c 256
EndSplineSet
EndChar

StartChar: ogonek
Encoding: 731 731 176
Width: 1000
Flags: MW
AnchorPoint: "Anchor-2" 511 47 mark 0
AnchorPoint: "Anchor-3" 511 47 mark 0
LayerCount: 2
Fore
SplineSet
494 -372 m 0
 381 -372 278 -335 278 -220 c 0
 278 -108 426 -2 533 70 c 0
 555 85 573 90 581 80 c 0
 590 69 579 54 563 36 c 0
 517 -16 464 -89 464 -170 c 0
 464 -221 489 -275 559 -275 c 0
 608 -275 643 -246 665 -214 c 0
 675 -199 684 -199 694 -207 c 2
 708 -217 l 2
 721 -226 720 -230 712 -245 c 0
 672 -318 611 -372 494 -372 c 0
EndSplineSet
EndChar

StartChar: tilde
Encoding: 732 732 177
Width: 1000
Flags: MW
AnchorPoint: "Anchor-0" 496 1500 mark 0
LayerCount: 2
Fore
SplineSet
646 1680 m 0
 562 1680 510 1717 468 1759 c 0
 435 1792 397 1838 337 1838 c 0
 262 1838 229 1794 226 1714 c 0
 225 1702 219 1700 206 1700 c 2
 174 1700 l 2
 151 1700 151 1710 153 1730 c 0
 165 1857 250 1954 374 1954 c 0
 458 1954 510 1918 549 1875 c 0
 578 1843 610 1796 663 1796 c 0
 736 1796 769 1837 774 1912 c 0
 775 1928 777 1934 796 1934 c 2
 829 1934 l 2
 847 1934 849 1928 848 1912 c 0
 843 1764 783 1680 646 1680 c 0
EndSplineSet
EndChar

StartChar: hungarumlaut
Encoding: 733 733 178
Width: 1000
Flags: MW
AnchorPoint: "Anchor-0" 424 1500 mark 0
LayerCount: 2
Fore
SplineSet
577 1680 m 2
 554 1705 l 2
 533 1727 530 1729 552 1750 c 2
 742 1936 l 2
 786 1979 846 1962 875 1924 c 256
 903 1887 890 1832 847 1807 c 2
 614 1671 l 2
 595 1660 592 1664 577 1680 c 2
160 1685 m 2
 139 1706 l 2
 118 1729 126 1736 147 1756 c 2
 331 1936 l 2
 375 1979 431 1965 460 1927 c 256
 488 1890 483 1835 436 1807 c 2
 226 1687 l 2
 194 1668 185 1658 160 1685 c 2
EndSplineSet
EndChar

StartChar: exclamdown
Encoding: 161 161 187
Width: 638
Flags: MW
LayerCount: 2
Fore
SplineSet
438 942 m 0
 438 876 386 824 320 824 c 0
 254 824 202 876 202 942 c 0
 202 1008 254 1060 320 1060 c 0
 386 1060 438 1008 438 942 c 0
202 -278 m 0
 223 63 278 308 282 595 c 0
 282 617 282 624 306 624 c 2
 337 624 l 2
 356 624 358 618 358 600 c 0
 361 311 417 65 438 -278 c 0
 438 -292 438 -304 438 -316 c 0
 438 -408 414 -476 320 -476 c 0
 226 -476 200 -408 200 -316 c 0
 200 -304 202 -292 202 -278 c 0
EndSplineSet
EndChar

StartChar: cent
Encoding: 162 162 188
Width: 787
Flags: MW
LayerCount: 2
Fore
SplineSet
419 1230 m 2
 489 1230 l 2
 510 1230 513 1225 510 1205 c 2
 415 -146 l 2
 412 -164 404 -170 385 -170 c 2
 331 -170 l 2
 309 -170 305 -164 307 -147 c 2
 402 1216 l 2
 404 1229 404 1230 419 1230 c 2
EndSplineSet
Refer: 40 99 N 1 0 0 1 0 0 2
EndChar

StartChar: sterling
Encoding: 163 163 189
Width: 1270
Flags: MW
LayerCount: 2
Fore
SplineSet
111 -7 m 0
 99 251 368 399 368 522 c 0
 368 598 349 660 303 660 c 2
 27 660 l 2
 1 660 0 669 0 696 c 2
 0 740 l 2
 0 765 8 770 32 770 c 2
 269 770 l 2
 319 770 300 784 286 813 c 0
 246 899 206 986 206 1100 c 0
 206 1380 416 1520 738 1520 c 0
 1042 1520 1190 1376 1190 1212 c 0
 1190 1116 1120 1080 1062 1080 c 0
 1008 1080 948 1122 948 1196 c 0
 948 1268 1012 1278 1012 1324 c 0
 1012 1378 886 1436 738 1436 c 0
 500 1436 428 1268 428 1120 c 0
 428 998 470 901 503 809 c 0
 516 772 517 770 567 770 c 2
 873 770 l 2
 900 770 900 770 900 743 c 2
 900 682 l 2
 900 666 894 660 876 660 c 2
 571 660 l 2
 544 660 540 654 540 629 c 0
 539 402 407 341 307 223 c 0
 283 195 236 155 255 143 c 0
 263 138 278 171 326 184 c 0
 351 191 380 194 414 194 c 0
 614 194 694 126 846 126 c 0
 965 126 1068 183 1079 294 c 0
 1081 314 1079 314 1101 314 c 2
 1152 314 l 2
 1176 314 1174 300 1173 280 c 0
 1161 17 1005 -60 834 -60 c 0
 560 -60 470 60 344 60 c 0
 274 60 242 31 222 -15 c 0
 216 -28 218 -40 198 -40 c 2
 132 -40 l 2
 108 -40 112 -27 111 -7 c 0
EndSplineSet
EndChar

StartChar: currency
Encoding: 164 164 190
Width: 1140
Flags: MW
LayerCount: 2
Fore
SplineSet
121 248 m 1
 48 321 l 1
 206 479 l 1
 137 563 112 653 112 770 c 256
 112 887 137 977 206 1061 c 1
 48 1219 l 1
 121 1292 l 1
 279 1134 l 1
 351 1196 441 1229 571 1229 c 256
 701 1229 789 1196 862 1135 c 1
 1019 1292 l 1
 1092 1219 l 1
 934 1061 l 1
 1003 977 1028 887 1028 770 c 0
 1028 654 1004 563 935 478 c 1
 1092 321 l 1
 1019 248 l 1
 862 405 l 1
 790 344 700 310 571 310 c 256
 441 310 350 344 278 405 c 1
 121 248 l 1
571 433 m 0
 774 433 898 571 898 770 c 256
 898 969 773 1107 571 1107 c 0
 368 1107 242 969 242 770 c 256
 242 571 369 433 571 433 c 0
EndSplineSet
EndChar

StartChar: yen
Encoding: 165 165 191
Width: 1140
Flags: MW
LayerCount: 2
Fore
SplineSet
154 740 m 2
 966 740 l 2
 996 740 1000 736 1000 712 c 2
 1000 663 l 2
 1000 639 997 630 963 630 c 2
 151 630 l 2
 119 630 118 634 118 660 c 2
 118 712 l 2
 118 735 127 740 154 740 c 2
154 460 m 2
 966 460 l 2
 996 460 1000 456 1000 432 c 2
 1000 383 l 2
 1000 359 997 350 963 350 c 2
 151 350 l 2
 119 350 118 354 118 380 c 2
 118 432 l 2
 118 455 127 460 154 460 c 2
EndSplineSet
Refer: 36 89 N 1 0 0 1 0 0 2
EndChar

StartChar: brokenbar
Encoding: 166 166 192
Width: 479
Flags: MW
LayerCount: 2
Fore
SplineSet
200 818 m 1
 200 1560 l 1
 313 1560 l 1
 313 818 l 1
 200 818 l 1
200 -500 m 1
 200 332 l 1
 313 332 l 1
 313 -500 l 1
 200 -500 l 1
EndSplineSet
EndChar

StartChar: section
Encoding: 167 167 193
Width: 1068
Flags: MW
LayerCount: 2
Fore
SplineSet
714 1316 m 0
 714 1382 590 1418 486 1418 c 0
 360 1418 250 1362 250 1268 c 0
 250 1036 936 1076 936 750 c 0
 936 653 894 564 800 494 c 1
 871 447 920 382 920 284 c 0
 920 76 700 -20 490 -20 c 0
 274 -20 42 64 42 296 c 0
 42 392 112 448 170 448 c 0
 224 448 284 406 284 332 c 0
 284 260 220 250 220 204 c 0
 220 138 384 82 488 82 c 0
 614 82 764 138 764 232 c 0
 764 464 58 424 58 750 c 0
 58 885 117 940 213 1006 c 1
 142 1053 94 1118 94 1216 c 0
 94 1424 274 1520 464 1520 c 0
 680 1520 892 1436 892 1224 c 0
 892 1128 822 1072 764 1072 c 0
 710 1072 650 1114 650 1188 c 0
 650 1260 714 1270 714 1316 c 0
294 963 m 1
 279 932 250 879 250 814 c 0
 250 649 515 626 712 541 c 1
 747 583 764 635 764 686 c 0
 764 853 491 875 294 963 c 1
EndSplineSet
EndChar

StartChar: dieresis
Encoding: 168 168 194
Width: 1000
Flags: MW
AnchorPoint: "Anchor-0" 501 1500 mark 0
LayerCount: 2
Fore
SplineSet
660 1690 m 256
 607 1690 564 1733 564 1786 c 256
 564 1839 607 1883 660 1883 c 256
 713 1883 756 1839 756 1786 c 256
 756 1733 713 1690 660 1690 c 256
340 1690 m 256
 287 1690 244 1733 244 1786 c 256
 244 1839 287 1883 340 1883 c 256
 393 1883 436 1839 436 1786 c 256
 436 1733 393 1690 340 1690 c 256
EndSplineSet
EndChar

StartChar: copyright
Encoding: 169 169 195
Width: 1441
Flags: MW
LayerCount: 2
Fore
SplineSet
720 1520 m 256
 1164 1520 1341 1192 1341 750 c 256
 1341 306 1162 -20 720 -20 c 256
 276 -20 100 308 100 750 c 256
 100 1193 278 1520 720 1520 c 256
720 73 m 256
 1103 73 1246 349 1246 750 c 256
 1246 1151 1101 1427 720 1427 c 256
 337 1427 194 1151 194 750 c 256
 194 347 339 73 720 73 c 256
EndSplineSet
Refer: 14 67 N 0.6 0 0 0.6 354 290 2
EndChar

StartChar: ordfeminine
Encoding: 170 170 196
Width: 703
Flags: MW
LayerCount: 2
Fore
SplineSet
40 1112 m 0
 40 1225 145 1323 351 1323 c 2
 410 1323 l 2
 424 1323 425 1324 425 1338 c 2
 425 1404 l 2
 425 1484 404 1545 308 1545 c 0
 243 1545 179 1522 179 1498 c 0
 179 1476 213 1483 213 1436 c 0
 213 1395 188 1366 147 1366 c 0
 110 1366 76 1383 76 1436 c 0
 76 1540 211 1600 332 1600 c 0
 500 1600 533 1507 533 1410 c 2
 533 1049 l 2
 533 1025 547 1014 564 1014 c 0
 581 1014 600 1020 621 1053 c 0
 625 1060 629 1063 635 1058 c 1
 657 1044 l 2
 664 1040 664 1038 660 1030 c 0
 632 977 585 952 536 952 c 0
 535 952 l 0
 444 952 434 1009 429 1038 c 0
 427 1052 423 1053 412 1038 c 0
 393 1011 353 952 226 952 c 0
 119 952 40 1011 40 1112 c 0
162 1130 m 0
 162 1050 220 1019 280 1019 c 0
 362 1019 425 1084 425 1193 c 2
 425 1265 l 2
 425 1275 423 1277 413 1277 c 2
 351 1277 l 2
 212 1277 162 1222 162 1130 c 0
EndSplineSet
EndChar

StartChar: guillemotleft
Encoding: 171 171 197
Width: 1390
Flags: MW
LayerCount: 2
Fore
SplineSet
862 775 m 1
 1330 380 l 1
 1270 290 l 1
 610 750 l 1
 610 800 l 1
 1270 1260 l 1
 1330 1170 l 1
 862 775 l 1
302 775 m 1
 770 380 l 1
 710 290 l 1
 50 750 l 1
 50 800 l 1
 710 1260 l 1
 770 1170 l 1
 302 775 l 1
EndSplineSet
EndChar

StartChar: logicalnot
Encoding: 172 172 198
Width: 971
Flags: MW
LayerCount: 2
Fore
SplineSet
739 406 m 1
 739 716 l 1
 120 716 l 1
 120 830 l 1
 852 830 l 1
 852 406 l 1
 739 406 l 1
EndSplineSet
EndChar

StartChar: registered
Encoding: 174 174 200
Width: 1439
Flags: MW
LayerCount: 2
Fore
SplineSet
720 1520 m 256
 1164 1520 1341 1192 1341 750 c 256
 1341 306 1162 -20 720 -20 c 256
 276 -20 100 308 100 750 c 256
 100 1193 278 1520 720 1520 c 256
720 73 m 256
 1103 73 1246 349 1246 750 c 256
 1246 1151 1101 1427 720 1427 c 256
 337 1427 194 1151 194 750 c 256
 194 347 339 73 720 73 c 256
EndSplineSet
Refer: 29 82 N 0.6 0 0 0.6 403 306 2
EndChar

StartChar: degree
Encoding: 176 176 202
Width: 639
Flags: MW
LayerCount: 2
Fore
SplineSet
320 1120 m 256
 184 1120 80 1223 80 1359 c 256
 80 1495 184 1600 320 1600 c 256
 457 1600 561 1496 561 1359 c 256
 561 1223 456 1120 320 1120 c 256
320 1230 m 0
 394 1230 450 1286 450 1359 c 0
 450 1433 394 1490 320 1490 c 0
 247 1490 189 1433 189 1359 c 0
 189 1286 247 1230 320 1230 c 0
EndSplineSet
EndChar

StartChar: plusminus
Encoding: 177 177 203
Width: 1059
Flags: MW
LayerCount: 2
Fore
SplineSet
473 361 m 1
 473 716 l 1
 120 716 l 1
 120 828 l 1
 473 828 l 1
 473 1180 l 1
 586 1180 l 1
 586 828 l 1
 939 828 l 1
 939 716 l 1
 586 716 l 1
 586 361 l 1
 473 361 l 1
121 -15 m 1
 121 97 l 1
 940 97 l 1
 940 -15 l 1
 121 -15 l 1
EndSplineSet
EndChar

StartChar: uni00B2
Encoding: 178 178 204
Width: 675
Flags: MW
LayerCount: 2
Fore
SplineSet
634 1109 m 0
 643 952 570 902 466 902 c 0
 338 902 260 974 172 974 c 0
 137 974 118 958 106 932 c 0
 102 922 99 914 83 914 c 2
 54 914 l 2
 41 914 40 920 40 931 c 0
 45 1098 133 1216 300 1333 c 0
 389 1395 492 1479 492 1616 c 0
 492 1723 431 1776 324 1776 c 0
 229 1776 154 1722 154 1690 c 0
 154 1662 210 1657 210 1602 c 0
 210 1558 171 1532 139 1532 c 0
 104 1532 59 1553 59 1611 c 0
 59 1721 166 1826 342 1826 c 0
 511 1826 626 1754 626 1598 c 0
 626 1454 500 1358 330 1262 c 0
 215 1197 148 1117 116 1036 c 0
 107 1013 94 994 104 994 c 0
 115 994 114 1012 130 1029 c 0
 158 1057 196 1075 244 1075 c 0
 334 1075 382 1023 473 1023 c 0
 543 1023 573 1055 577 1110 c 0
 579 1124 578 1126 594 1126 c 2
 618 1126 l 2
 632 1126 633 1123 634 1109 c 0
EndSplineSet
EndChar

StartChar: uni00B3
Encoding: 179 179 205
Width: 638
Flags: MW
LayerCount: 2
Fore
SplineSet
40 1093 m 0
 40 1151 82 1172 117 1172 c 0
 149 1172 185 1146 185 1102 c 0
 185 1059 147 1054 147 1026 c 0
 147 994 198 952 299 952 c 0
 430 952 477 1053 477 1142 c 0
 477 1222 449 1325 294 1344 c 0
 266 1348 240 1336 240 1371 c 2
 240 1382 l 2
 240 1417 267 1406 294 1410 c 0
 445 1433 453 1553 453 1623 c 0
 453 1712 406 1776 299 1776 c 0
 222 1776 183 1736 183 1704 c 0
 183 1676 221 1670 221 1627 c 0
 221 1583 185 1557 153 1557 c 0
 118 1557 76 1578 76 1636 c 0
 76 1734 153 1826 323 1826 c 0
 444 1826 574 1767 574 1623 c 0
 574 1541 553 1451 449 1402 c 0
 404 1381 398 1389 398 1376 c 0
 398 1366 421 1369 446 1360 c 0
 565 1318 598 1234 598 1142 c 0
 598 1010 492 902 311 902 c 0
 129 902 40 995 40 1093 c 0
EndSplineSet
EndChar

StartChar: acute
Encoding: 180 180 206
Width: 790
Flags: MW
LayerCount: 2
Fore
SplineSet
605 1440 m 2
 144 1421 l 2
 119 1420 112 1421 110 1440 c 0
 107 1460 123 1464 148 1470 c 2
 585 1576 l 2
 641 1589 675 1548 675 1510 c 0
 675 1472 643 1441 605 1440 c 2
EndSplineSet
EndChar

StartChar: mu
Encoding: 181 181 207
Width: 1233
Flags: MW
LayerCount: 2
Fore
SplineSet
232 847 m 1
 232 -242 l 2
 232 -413 326 -423 334 -415 c 0
 341 -407 321 -406 321 -352 c 0
 321 -297 379 -246 444 -246 c 0
 514 -246 567 -308 567 -380 c 0
 567 -471 500 -520 400 -520 c 0
 238 -520 120 -409 120 -242 c 2
 120 847 l 1
 232 847 l 1
EndSplineSet
Refer: 58 117 N 1 0 0 1 0 0 2
EndChar

StartChar: paragraph
Encoding: 182 182 208
Width: 1072
Flags: MW
LayerCount: 2
Fore
SplineSet
465 -270 m 2
 465 -246 l 2
 465 -197 466 -187 515 -187 c 2
 523 -187 l 2
 555 -187 565 -186 565 -154 c 2
 565 740 l 2
 565 775 556 779 523 779 c 2
 446 779 l 2
 189 779 76 892 76 1139 c 0
 76 1386 188 1500 446 1500 c 2
 979 1500 l 2
 1007 1500 1016 1496 1016 1466 c 2
 1016 1428 l 2
 1016 1390 1008 1387 969 1387 c 2
 959 1387 l 2
 917 1387 916 1378 916 1336 c 2
 916 -132 l 2
 916 -166 919 -187 957 -187 c 2
 981 -187 l 2
 1007 -187 1016 -188 1016 -214 c 2
 1016 -259 l 2
 1016 -293 1010 -300 977 -300 c 2
 511 -300 l 2
 485 -300 465 -299 465 -270 c 2
803 -144 m 2
 803 1358 l 2
 803 1386 794 1387 765 1387 c 2
 721 1387 l 2
 683 1387 678 1381 678 1342 c 2
 678 -136 l 2
 678 -169 678 -187 715 -187 c 2
 751 -187 l 2
 793 -187 803 -186 803 -144 c 2
EndSplineSet
EndChar

StartChar: cedilla
Encoding: 184 184 210
Width: 1000
Flags: MW
LayerCount: 2
Fore
SplineSet
345 -480 m 2
 345 -463 l 2
 345 -441 356 -437 376 -436 c 0
 457 -430 541 -402 541 -336 c 0
 541 -256 455 -237 365 -229 c 0
 326 -225 325 -218 338 -200 c 2
 489 2 l 2
 495 11 496 12 512 12 c 2
 563 12 l 2
 593 12 582 7 571 -8 c 2
 482 -126 l 2
 465 -149 465 -147 501 -150 c 0
 610 -160 683 -198 683 -310 c 0
 683 -455 526 -505 370 -509 c 0
 349 -510 345 -502 345 -480 c 2
EndSplineSet
EndChar

StartChar: uni00B9
Encoding: 185 185 211
Width: 630
Flags: MW
LayerCount: 2
Fore
SplineSet
60 935 m 2
 60 960 l 2
 60 977 67 978 84 978 c 2
 239 978 l 2
 261 978 264 983 264 1003 c 2
 264 1616 l 2
 264 1638 262 1644 241 1644 c 2
 107 1644 l 2
 90 1644 80 1645 80 1664 c 2
 80 1682 l 2
 80 1704 83 1710 106 1710 c 0
 222 1711 261 1719 313 1835 c 0
 319 1848 318 1860 338 1860 c 2
 355 1860 l 2
 370 1860 378 1859 378 1844 c 2
 378 1009 l 2
 378 981 381 978 410 978 c 2
 544 978 l 2
 560 978 570 977 570 960 c 2
 570 936 l 2
 570 917 569 912 550 912 c 2
 80 912 l 2
 62 912 60 916 60 935 c 2
EndSplineSet
EndChar

StartChar: ordmasculine
Encoding: 186 186 212
Width: 654
Flags: MW
LayerCount: 2
Fore
SplineSet
166 1286 m 0
 166 1137 196 1004 327 1004 c 0
 458 1004 488 1137 488 1262 c 0
 488 1411 458 1544 327 1544 c 0
 196 1544 166 1411 166 1286 c 0
40 1262 m 0
 40 1454 134 1598 327 1598 c 0
 520 1598 614 1454 614 1286 c 0
 614 1094 520 950 327 950 c 0
 134 950 40 1094 40 1262 c 0
EndSplineSet
EndChar

StartChar: guillemotright
Encoding: 187 187 213
Width: 1390
Flags: MW
LayerCount: 2
Fore
SplineSet
528 775 m 1
 60 1170 l 1
 120 1260 l 1
 780 800 l 1
 780 750 l 1
 120 290 l 1
 60 380 l 1
 528 775 l 1
1088 775 m 1
 620 1170 l 1
 680 1260 l 1
 1340 800 l 1
 1340 750 l 1
 680 290 l 1
 620 380 l 1
 1088 775 l 1
EndSplineSet
EndChar

StartChar: onequarter
Encoding: 188 188 214
Width: 1196
Flags: MW
LayerCount: 2
Fore
SplineSet
910 1440 m 1
 1008 1440 l 1
 286 -60 l 1
 178 -60 l 1
 910 1440 l 1
EndSplineSet
Refer: 6 52 N 0.6 0 0 0.6 628 4 2
Refer: 3 49 N 0.6 0 0 0.6 12 632 2
EndChar

StartChar: onehalf
Encoding: 189 189 215
Width: 1348
Flags: MW
LayerCount: 2
Fore
SplineSet
910 1440 m 1
 1008 1440 l 1
 286 -60 l 1
 178 -60 l 1
 910 1440 l 1
EndSplineSet
Refer: 4 50 N 0.6 0 0 0.6 822 -16 2
Refer: 3 49 N 0.6 0 0 0.6 14 632 2
EndChar

StartChar: threequarters
Encoding: 190 190 216
Width: 1268
Flags: MW
LayerCount: 2
Fore
SplineSet
960 1440 m 1
 1058 1440 l 1
 336 -60 l 1
 228 -60 l 1
 960 1440 l 1
EndSplineSet
Refer: 6 52 N 0.6 0 0 0.6 710 4 2
Refer: 5 51 N 0.6 0 0 0.6 30 614 2
EndChar

StartChar: questiondown
Encoding: 191 191 217
Width: 1100
Flags: MW
LayerCount: 2
Fore
SplineSet
792 -284 m 0
 792 -224 730 -222 730 -120 c 0
 730 -36 796 0 866 0 c 0
 936 0 1000 -46 1000 -142 c 0
 1000 -306 852 -480 568 -480 c 0
 246 -480 90 -320 90 -60 c 0
 90 139 243 337 489 400 c 0
 521 408 536 410 536 453 c 2
 536 589 l 2
 536 619 544 622 575 622 c 2
 612 622 l 2
 647 622 656 620 656 585 c 2
 656 389 l 2
 656 346 647 340 617 329 c 0
 423 257 292 93 292 -100 c 0
 292 -248 370 -396 568 -396 c 0
 736 -396 792 -328 792 -284 c 0
677 940 m 0
 677 874 623 820 557 820 c 0
 491 820 437 874 437 940 c 0
 437 1006 491 1060 557 1060 c 0
 623 1060 677 1006 677 940 c 0
EndSplineSet
EndChar

StartChar: multiply
Encoding: 215 215 254
Width: 1003
Flags: MW
LayerCount: 2
Fore
SplineSet
525 886 m 2
 727 1088 l 2
 743 1104 754 1109 771 1092 c 2
 812 1052 l 2
 824 1040 829 1033 817 1021 c 2
 606 811 l 2
 583 788 580 780 602 758 c 2
 816 544 l 2
 828 532 825 526 812 513 c 2
 771 472 l 2
 757 458 753 454 739 468 c 2
 530 677 l 2
 505 702 501 705 476 680 c 2
 270 475 l 2
 252 457 246 458 229 475 c 2
 191 513 l 2
 175 529 178 538 193 553 c 2
 399 760 l 2
 418 779 420 787 399 808 c 2
 194 1013 l 2
 178 1029 176 1037 194 1055 c 2
 234 1095 l 2
 248 1109 255 1105 270 1090 c 2
 473 887 l 2
 496 864 503 864 525 886 c 2
EndSplineSet
EndChar

StartChar: Thorn
Encoding: 222 222 255
Width: 1006
Flags: MW
LayerCount: 2
Fore
SplineSet
398 454 m 2
 508 454 l 2
 660 454 748 526 748 764 c 0
 748 1002 660 1074 508 1074 c 2
 377 1074 l 2
 351 1074 348 1062 348 1035 c 2
 348 498 l 2
 348 456 356 454 398 454 c 2
348 288 m 2
 348 173 l 2
 348 118 352 110 406 110 c 2
 436 110 l 2
 467 110 468 101 468 70 c 2
 468 48 l 2
 468 8 466 0 426 0 c 2
 92 0 l 2
 51 0 38 2 38 46 c 2
 38 82 l 2
 38 106 45 110 70 110 c 2
 112 110 l 2
 153 110 158 120 158 158 c 2
 158 1364 l 2
 158 1387 150 1390 126 1390 c 2
 63 1390 l 2
 39 1390 38 1399 38 1423 c 2
 38 1464 l 2
 38 1495 46 1500 75 1500 c 2
 414 1500 l 2
 455 1500 468 1498 468 1454 c 2
 468 1418 l 2
 468 1394 461 1390 436 1390 c 2
 394 1390 l 2
 353 1390 348 1380 348 1342 c 2
 348 1222 l 2
 348 1190 354 1184 385 1184 c 2
 528 1184 l 2
 870 1184 968 1024 968 764 c 0
 968 504 870 344 528 344 c 2
 412 344 l 2
 357 344 348 343 348 288 c 2
EndSplineSet
EndChar

StartChar: dotlessi
Encoding: 305 305 256
Width: 420
Flags: MW
AnchorPoint: "Anchor-0" 229 1040 basechar 0
AnchorPoint: "Anchor-1" 227 0 basechar 0
AnchorPoint: "Anchor-2" 227 0 basechar 0
LayerCount: 2
Fore
SplineSet
106 930 m 2
 71 930 l 2
 51 930 50 934 50 954 c 2
 50 1014 l 2
 50 1034 55 1040 74 1040 c 2
 291 1040 l 2
 307 1040 310 1036 310 1019 c 2
 310 134 l 2
 310 117 315 110 331 110 c 2
 366 110 l 2
 385 110 390 109 390 90 c 2
 390 24 l 2
 390 5 390 0 371 0 c 2
 81 0 l 2
 58 0 50 2 50 24 c 2
 50 80 l 2
 50 106 59 110 83 110 c 2
 107 110 l 2
 129 110 130 116 130 138 c 2
 130 906 l 2
 130 926 124 930 106 930 c 2
EndSplineSet
EndChar

StartChar: germandbls
Encoding: 223 223 257
Width: 1042
Flags: MW
LayerCount: 2
Fore
SplineSet
1002 290 m 0
 1002 120 906 -20 704 -20 c 0
 551 -20 426 67 426 231 c 0
 426 313 480 362 550 362 c 0
 611 362 658 322 658 250 c 0
 658 215 642 186 617 166 c 0
 595 149 581 129 591 112 c 0
 600 96 625 73 683 73 c 0
 771 73 840 132 840 230 c 0
 840 525 477 557 477 767 c 0
 477 987 750 1025 750 1243 c 0
 750 1418 664 1463 506 1463 c 0
 188 1463 291 1196 291 962 c 2
 291 37 l 2
 291 5 285 0 251 0 c 2
 60 0 l 2
 32 0 29 8 29 37 c 2
 29 80 l 2
 29 108 37 113 63 113 c 2
 73 113 l 2
 109 113 110 128 110 161 c 2
 110 982 l 2
 110 1328 120 1570 536 1570 c 0
 792 1570 933 1458 933 1272 c 0
 933 1023 634 940 634 833 c 0
 634 707 1002 627 1002 290 c 0
EndSplineSet
EndChar

StartChar: AE
Encoding: 198 198 258
Width: 1603
Flags: MW
LayerCount: 2
Fore
SplineSet
0 42 m 2
 0 84 l 2
 0 104 6 110 28 110 c 2
 44 110 l 2
 86 110 96 120 115 150 c 2
 682 1349 l 2
 712 1391 695 1390 624 1390 c 2
 606 1390 l 2
 581 1390 580 1394 580 1420 c 2
 580 1472 l 2
 580 1495 587 1500 608 1500 c 2
 1124 1500 l 2
 1147 1500 1150 1496 1150 1472 c 2
 1150 1423 l 2
 1150 1399 1148 1390 1122 1390 c 2
 858 1390 l 2
 804 1390 821 1381 799 1351 c 2
 444 578 l 2
 431 557 436 550 472 550 c 2
 874 550 l 1
 854 440 l 1
 431 440 l 2
 395 440 382 428 364 400 c 2
 256 158 l 2
 235 124 243 110 287 110 c 2
 328 110 l 2
 352 110 360 105 360 80 c 2
 360 32 l 2
 360 0 360 0 328 0 c 2
 50 0 l 2
 13 0 0 2 0 42 c 2
EndSplineSet
Refer: 16 69 N 1 0 0 1 590 0 2
EndChar

StartChar: ae
Encoding: 230 230 259
Width: 1254
Flags: MW
LayerCount: 2
Fore
SplineSet
724 608 m 2
 976 608 l 2
 1002 608 1005 610 1005 624 c 0
 1005 756 1032 972 870 972 c 0
 685 972 696 790 696 633 c 0
 696 613 700 608 724 608 c 2
492 447 m 2
 492 494 491 522 462 522 c 2
 458 522 l 2
 316 522 254 430 254 276 c 0
 254 142 290 92 370 92 c 0
 466 92 492 200 492 382 c 2
 492 447 l 2
50 246 m 0
 50 434 139 598 463 598 c 2
 466 598 l 2
 489 598 492 600 492 624 c 2
 492 734 l 2
 492 868 476 968 366 968 c 0
 288 968 262 930 262 900 c 0
 262 864 338 864 338 786 c 0
 338 718 296 670 228 670 c 0
 166 670 110 728 110 816 c 0
 110 910 184 1060 386 1060 c 0
 528 1060 575 1000 604 960 c 0
 624 932 625 919 647 948 c 0
 685 999 756 1060 870 1060 c 0
 1196 1060 1204 788 1204 551 c 0
 1204 524 1196 522 1168 522 c 2
 725 522 l 2
 703 522 692 516 692 493 c 0
 692 272 673 78 880 78 c 0
 1038 78 1083 215 1096 322 c 0
 1098 337 1103 346 1123 346 c 2
 1181 346 l 2
 1201 346 1202 340 1201 325 c 0
 1186 165 1113 -20 867 -20 c 0
 703 -20 643 94 622 134 c 0
 611 155 588 161 574 133 c 0
 552 88 531 -20 340 -20 c 0
 162 -20 50 78 50 246 c 0
EndSplineSet
EndChar

StartChar: Eth
Encoding: 208 208 260
Width: 1124
Flags: MW
LayerCount: 2
Fore
SplineSet
74 840 m 2
 536 840 l 2
 564 840 567 836 567 812 c 2
 567 763 l 2
 567 739 565 730 533 730 c 2
 72 730 l 2
 42 730 40 734 40 760 c 2
 40 812 l 2
 40 835 48 840 74 840 c 2
EndSplineSet
Refer: 15 68 N 1 0 0 1 0 0 2
EndChar

StartChar: Oslash
Encoding: 216 216 261
Width: 1050
Flags: MW
LayerCount: 2
Fore
SplineSet
871 1660 m 2
 916 1660 l 2
 916 1660 955 1655 945 1630 c 2
 228 -168 l 2
 217 -196 207 -200 166 -200 c 2
 134 -200 l 2
 85 -200 82 -189 94 -158 c 2
 815 1626 l 2
 826 1653 831 1660 871 1660 c 2
EndSplineSet
Refer: 26 79 N 1 0 0 1 0 0 2
EndChar

StartChar: eth
Encoding: 240 240 262
Width: 1240
Flags: MW
LayerCount: 2
Fore
SplineSet
561 1233 m 2
 957 1508 l 2
 980 1524 985 1522 999 1502 c 2
 1026 1462 l 2
 1040 1442 1043 1434 1017 1416 c 2
 622 1142 l 2
 597 1125 593 1127 578 1148 c 2
 549 1191 l 2
 536 1210 540 1218 561 1233 c 2
521 1552 m 0
 764 1448 1140 1187 1140 700 c 0
 1140 190 934 -20 612 -20 c 0
 290 -20 100 190 100 510 c 0
 100 840 316 1060 588 1060 c 0
 770 1060 850 973 907 909 c 0
 924 890 928 876 936 880 c 0
 943 884 939 897 937 930 c 0
 922 1258 658 1366 485 1454 c 0
 469 1462 460 1462 468 1480 c 2
 493 1541 l 2
 500 1557 506 1558 521 1552 c 0
300 510 m 0
 300 292 374 70 592 70 c 0
 790 70 940 361 940 650 c 0
 940 810 798 962 632 962 c 0
 424 962 300 738 300 510 c 0
EndSplineSet
EndChar

StartChar: divide
Encoding: 247 247 269
Width: 1119
Flags: MW
LayerCount: 2
Fore
SplineSet
135 836 m 2
 994 836 l 2
 1014 836 1020 830 1020 808 c 2
 1020 742 l 2
 1020 727 1012 724 996 724 c 2
 132 724 l 2
 106 724 100 729 100 754 c 2
 100 796 l 2
 100 829 103 836 135 836 c 2
439 430 m 0
 439 496 495 550 561 550 c 0
 627 550 680 496 680 430 c 0
 680 364 627 310 561 310 c 0
 495 310 439 364 439 430 c 0
439 1140 m 0
 439 1206 495 1260 561 1260 c 0
 627 1260 680 1206 680 1140 c 0
 680 1074 627 1020 561 1020 c 0
 495 1020 439 1074 439 1140 c 0
EndSplineSet
EndChar

StartChar: thorn
Encoding: 254 254 270
Width: 920
Flags: MW
AnchorPoint: "Anchor-0" 798 1040 basechar 0
AnchorPoint: "Anchor-1" 877 0 basechar 0
AnchorPoint: "Anchor-2" 877 0 basechar 0
LayerCount: 2
Fore
SplineSet
292 520 m 256
 292 192 366 84 488 84 c 256
 606 84 668 192 668 520 c 256
 668 848 606 956 488 956 c 256
 376 956 292 848 292 520 c 256
32 1490 m 258
 32 1528 l 258
 32 1557 43 1560 69 1560 c 258
 255 1560 l 258
 286 1560 292 1556 292 1526 c 258
 292 952 l 258
 292 902 298 903 310 926 c 256
 355 1014 439 1060 544 1060 c 256
 762 1060 868 860 868 520 c 256
 868 180 762 -18 544 -18 c 256
 440 -18 379 19 332 78 c 256
 298 120 292 124 292 18 c 258
 292 -344 l 258
 292 -385 299 -390 329 -390 c 258
 337 -390 l 258
 367 -390 372 -396 372 -428 c 258
 372 -469 l 258
 372 -498 369 -500 341 -500 c 258
 63 -500 l 258
 36 -500 32 -489 32 -464 c 258
 32 -424 l 258
 32 -398 34 -390 59 -390 c 258
 83 -390 l 258
 110 -390 112 -382 112 -344 c 258
 112 1412 l 258
 112 1447 100 1450 87 1450 c 258
 47 1450 l 258
 35 1450 32 1460 32 1490 c 258
EndSplineSet
EndChar

StartChar: oslash
Encoding: 248 248 277
Width: 860
Flags: MW
LayerCount: 2
Fore
SplineSet
786 1215 m 2
 831 1215 l 2
 869 1215 870 1211 860 1192 c 2
 143 -165 l 2
 132 -186 122 -189 81 -189 c 2
 49 -189 l 2
 0 -189 -3 -181 9 -158 c 2
 730 1189 l 2
 741 1209 746 1215 786 1215 c 2
EndSplineSet
Refer: 52 111 N 1 0 0 1 0 0 2
EndChar

StartChar: dcroat
Encoding: 273 273 304
Width: 924
Flags: MW
LayerCount: 2
Fore
SplineSet
543 1300 m 2
 867 1300 l 2
 892 1300 894 1296 894 1272 c 2
 894 1223 l 2
 894 1199 892 1190 864 1190 c 2
 541 1190 l 2
 514 1190 513 1194 513 1220 c 2
 513 1272 l 2
 513 1295 521 1300 543 1300 c 2
EndSplineSet
Refer: 41 100 N 1 0 0 1 -0 0 2
EndChar

StartChar: Dcroat
Encoding: 272 272 305
Width: 1124
Flags: MW
LayerCount: 2
Fore
SplineSet
74 840 m 2
 536 840 l 2
 564 840 567 836 567 812 c 2
 567 763 l 2
 567 739 565 730 533 730 c 2
 72 730 l 2
 42 730 40 734 40 760 c 2
 40 812 l 2
 40 835 48 840 74 840 c 2
EndSplineSet
Refer: 15 68 N 1 0 0 1 0 0 2
EndChar

StartChar: Hbar
Encoding: 294 294 307
Width: 1196
Flags: MW
LayerCount: 2
Fore
SplineSet
106 1190 m 2
 1096 1190 l 2
 1151 1190 1158 1186 1158 1162 c 2
 1158 1113 l 2
 1158 1089 1153 1080 1091 1080 c 2
 101 1080 l 2
 41 1080 39 1084 39 1110 c 2
 39 1162 l 2
 39 1185 56 1190 106 1190 c 2
EndSplineSet
Refer: 19 72 N 1 0 0 1 0 0 2
EndChar

StartChar: hbar
Encoding: 295 295 308
Width: 922
Flags: MW
LayerCount: 2
Fore
SplineSet
60 1290 m 2
 402 1290 l 2
 430 1290 433 1286 433 1262 c 2
 433 1213 l 2
 433 1189 431 1180 399 1180 c 2
 58 1180 l 2
 28 1180 26 1184 26 1210 c 2
 26 1262 l 2
 26 1285 34 1290 60 1290 c 2
EndSplineSet
Refer: 45 104 N 1 0 0 1 0 0 2
EndChar

StartChar: uni0237
Encoding: 567 567 330
Width: 409
Flags: MW
AnchorPoint: "Anchor-0" 209 1040 basechar 0
AnchorPoint: "Anchor-1" 56 -565 basechar 0
AnchorPoint: "Anchor-2" 56 -565 basechar 0
LayerCount: 2
Fore
SplineSet
124 930 m 2
 87 930 l 2
 68 930 64 931 64 950 c 2
 64 1017 l 2
 64 1037 67 1040 87 1040 c 2
 300 1040 l 2
 318 1040 324 1037 324 1018 c 2
 324 22 l 2
 324 -278 302 -520 90 -520 c 0
 -88 -520 -152 -404 -152 -280 c 0
 -152 -204 -104 -138 -34 -138 c 0
 34 -138 82 -184 82 -250 c 0
 82 -320 24 -328 24 -368 c 0
 24 -394 36 -432 90 -432 c 0
 272 -432 144 20 144 248 c 2
 144 911 l 2
 144 926 138 930 124 930 c 2
EndSplineSet
EndChar

StartChar: kgreenlandic
Encoding: 312 312 335
Width: 894
Flags: MW
LayerCount: 2
Fore
SplineSet
73 930 m 2
 58 930 l 2
 34 930 32 933 32 956 c 2
 32 1004 l 2
 32 1032 34 1040 61 1040 c 2
 245 1040 l 2
 275 1040 292 1034 292 1001 c 2
 292 648 l 2
 292 612 292 587 311 610 c 2
 551 899 l 2
 566 917 569 930 541 930 c 2
 483 930 l 2
 451 930 450 939 450 972 c 2
 450 1010 l 2
 450 1033 453 1040 475 1040 c 2
 787 1040 l 2
 810 1040 816 1034 816 1010 c 2
 816 960 l 2
 816 932 808 930 779 930 c 2
 751 930 l 2
 721 930 704 925 691 910 c 2
 469 643 l 2
 459 631 468 617 485 592 c 2
 800 134 l 2
 817 116 822 110 859 110 c 2
 871 110 l 2
 889 110 894 104 894 85 c 2
 894 38 l 2
 894 6 885 0 855 0 c 2
 509 0 l 2
 481 0 480 9 480 38 c 2
 480 75 l 2
 480 104 483 110 511 110 c 2
 560 110 l 2
 604 110 597 118 580 136 c 2
 311 546 l 2
 299 564 292 554 292 518 c 2
 292 146 l 2
 292 119 296 110 325 110 c 2
 345 110 l 2
 366 110 382 107 382 84 c 2
 382 22 l 2
 382 2 374 0 353 0 c 2
 57 0 l 2
 36 0 32 11 32 30 c 2
 32 92 l 2
 32 109 41 110 59 110 c 2
 77 110 l 2
 104 110 112 112 112 138 c 2
 112 898 l 2
 112 927 100 930 73 930 c 2
EndSplineSet
EndChar

StartChar: Lslash
Encoding: 321 321 344
Width: 976
Flags: MW
LayerCount: 2
Fore
SplineSet
67 736 m 2
 551 1089 l 2
 571 1102 584 1123 584 1082 c 2
 584 1033 l 2
 584 998 582 994 561 981 c 2
 73 625 l 2
 53 613 43 594 43 634 c 2
 43 695 l 2
 43 725 50 725 67 736 c 2
EndSplineSet
Refer: 23 76 N 1 0 0 1 0 0 2
EndChar

StartChar: lslash
Encoding: 322 322 345
Width: 404
Flags: MW
LayerCount: 2
Fore
SplineSet
60 810 m 2
 350 1005 l 2
 371 1019 374 1025 374 988 c 2
 374 928 l 2
 374 891 370 890 348 876 c 2
 68 687 l 2
 48 674 44 665 44 701 c 2
 44 775 l 2
 44 799 46 801 60 810 c 2
EndSplineSet
Refer: 49 108 N 1 0 0 1 0 0 2
EndChar

StartChar: eng
Encoding: 331 331 353
Width: 925
Flags: MW
LayerCount: 2
Fore
SplineSet
104 930 m 2
 69 930 l 2
 52 930 48 937 48 955 c 2
 48 1017 l 2
 48 1033 52 1040 67 1040 c 2
 277 1040 l 2
 299 1040 308 1023 308 1005 c 2
 308 928 l 2
 308 876 312 891 328 911 c 0
 392 988 441 1060 574 1060 c 0
 768 1060 828 952 828 738 c 2
 828 22 l 2
 828 -278 836 -520 554 -520 c 0
 376 -520 272 -404 272 -280 c 0
 272 -204 320 -138 390 -138 c 0
 458 -138 506 -184 506 -250 c 0
 506 -320 468 -318 468 -358 c 0
 468 -384 480 -432 554 -432 c 0
 776 -432 648 -20 648 208 c 2
 648 716 l 2
 648 864 600 936 528 936 c 0
 392 936 308 802 308 596 c 2
 308 151 l 2
 308 120 319 110 350 110 c 2
 353 110 l 2
 380 110 388 105 388 76 c 2
 388 30 l 2
 388 6 383 0 360 0 c 2
 76 0 l 2
 52 0 48 7 48 32 c 2
 48 78 l 2
 48 106 58 110 84 110 c 2
 94 110 l 2
 120 110 128 113 128 138 c 2
 128 913 l 2
 128 928 120 930 104 930 c 2
EndSplineSet
EndChar

StartChar: Eng
Encoding: 330 330 354
Width: 1135
Flags: MW
LayerCount: 2
Fore
SplineSet
134 1390 m 2
 59 1390 l 2
 42 1390 38 1397 38 1415 c 2
 38 1477 l 2
 38 1493 42 1500 57 1500 c 2
 317 1500 l 2
 339 1500 348 1483 348 1465 c 2
 348 1328 l 2
 348 1276 357 1288 368 1311 c 0
 420 1418 501 1520 674 1520 c 0
 928 1520 1038 1372 1038 1098 c 2
 1038 22 l 2
 1038 -278 1046 -520 764 -520 c 0
 586 -520 482 -404 482 -280 c 0
 482 -204 530 -138 600 -138 c 0
 668 -138 716 -184 716 -250 c 0
 716 -320 678 -318 678 -358 c 0
 678 -384 690 -432 764 -432 c 0
 986 -432 848 -20 848 208 c 2
 848 1056 l 2
 848 1264 810 1386 628 1386 c 0
 432 1386 348 1122 348 916 c 2
 348 151 l 2
 348 120 359 110 390 110 c 2
 453 110 l 2
 480 110 488 105 488 76 c 2
 488 30 l 2
 488 6 483 0 460 0 c 2
 66 0 l 2
 42 0 38 7 38 32 c 2
 38 78 l 2
 38 106 48 110 74 110 c 2
 124 110 l 2
 150 110 158 113 158 138 c 2
 158 1373 l 2
 158 1388 150 1390 134 1390 c 2
EndSplineSet
EndChar

StartChar: OE
Encoding: 338 338 361
Width: 1580
Flags: MW
LayerCount: 2
Fore
SplineSet
778 1500 m 1
 778 1390 l 1
 608 1390 l 2
 350 1390 268 1214 268 750 c 0
 268 286 360 110 608 110 c 2
 778 110 l 1
 778 0 l 1
 608 0 l 2
 262 0 38 224 38 750 c 0
 38 1276 292 1500 608 1500 c 2
 778 1500 l 1
EndSplineSet
Refer: 16 69 N 1 0 0 1 567 0 2
EndChar

StartChar: Tbar
Encoding: 358 358 404
Width: 1128
Flags: MW
LayerCount: 2
Fore
SplineSet
188 820 m 2
 950 820 l 2
 978 820 981 816 981 792 c 2
 981 743 l 2
 981 719 979 710 947 710 c 2
 186 710 l 2
 156 710 154 714 154 740 c 2
 154 792 l 2
 154 815 162 820 188 820 c 2
EndSplineSet
Refer: 31 84 N 1 0 0 1 0 0 2
EndChar

StartChar: tbar
Encoding: 359 359 405
Width: 515
Flags: MW
LayerCount: 2
Fore
SplineSet
43 720 m 2
 432 720 l 2
 454 720 458 716 458 692 c 2
 458 643 l 2
 458 619 455 610 430 610 c 2
 41 610 l 2
 17 610 16 614 16 640 c 2
 16 692 l 2
 16 715 23 720 43 720 c 2
EndSplineSet
Refer: 57 116 N 1 0 0 1 0 0 2
EndChar

StartChar: longs
Encoding: 383 383 406
Width: 523
Flags: MW
LayerCount: 2
Fore
SplineSet
288 146 m 2
 288 114 289 110 321 110 c 2
 389 110 l 2
 408 110 428 109 428 88 c 2
 428 30 l 2
 428 5 420 0 396 0 c 2
 51 0 l 2
 30 0 28 4 28 26 c 2
 28 88 l 2
 28 108 38 110 56 110 c 2
 86 110 l 2
 107 110 108 117 108 137 c 2
 108 1144 l 2
 108 1406 132 1580 392 1580 c 0
 554 1580 638 1472 638 1358 c 0
 638 1272 590 1226 520 1226 c 0
 450 1226 404 1266 404 1322 c 0
 404 1382 456 1396 456 1436 c 0
 456 1460 450 1490 366 1490 c 0
 186 1490 288 1254 288 1100 c 2
 288 146 l 2
EndSplineSet
EndChar

StartChar: uni1E9E
Encoding: 7838 7838 423
Width: 1432
Flags: MW
LayerCount: 2
Fore
SplineSet
705 271 m 1
 705 151 817 97 933 97 c 0
 1071 97 1172 222 1172 410 c 0
 1172 558 1135 735 837 735 c 1
 837 848 l 1
 1279 848 1382 631 1382 410 c 0
 1382 150 1194 -20 972 -20 c 0
 718 -20 570 126 570 271 c 0
 570 353 621 412 701 412 c 0
 772 412 819 362 819 290 c 0
 819 226 765 180 706 180 c 0
 645 180 572 221 572 271 c 1
 705 271 l 1
50 110 m 1
 411 110 l 1
 411 0 l 1
 50 0 l 1
 50 110 l 1
1037 820 m 1
 996 831 904 838 837 848 c 1
 1130 1298 l 1
 1050 1363 905 1407 797 1407 c 0
 419 1407 331 1205 331 861 c 2
 331 0 l 1
 131 0 l 1
 131 882 l 2
 131 1288 361 1520 797 1520 c 0
 1054 1520 1302 1388 1363 1322 c 1
 1037 820 l 1
EndSplineSet
EndChar

StartChar: guilsinglleft
Encoding: 8249 8249 426
Width: 830
Flags: MW
LayerCount: 2
Fore
SplineSet
302 775 m 1
 770 380 l 1
 710 290 l 1
 50 750 l 1
 50 800 l 1
 710 1260 l 1
 770 1170 l 1
 302 775 l 1
EndSplineSet
EndChar

StartChar: guilsinglright
Encoding: 8250 8250 427
Width: 830
Flags: MW
LayerCount: 2
Fore
SplineSet
528 775 m 1
 60 1170 l 1
 120 1260 l 1
 780 800 l 1
 780 750 l 1
 120 290 l 1
 60 380 l 1
 528 775 l 1
EndSplineSet
EndChar

StartChar: uni2074
Encoding: 8308 8308 428
Width: 757
Flags: MW
LayerCount: 2
Fore
SplineSet
659 969 m 2
 659 935 l 2
 659 921 654 919 640 919 c 2
 360 919 l 2
 345 919 341 922 341 938 c 2
 341 965 l 2
 341 981 344 985 359 985 c 2
 438 985 l 2
 451 985 455 988 455 1000 c 2
 455 1172 l 2
 455 1191 453 1195 435 1195 c 2
 133 1195 l 2
 115 1195 111 1197 103 1205 c 2
 87 1221 l 2
 76 1232 78 1236 85 1252 c 0
 169 1451 417 1549 478 1787 c 0
 483 1805 477 1819 502 1819 c 2
 568 1819 l 2
 593 1819 597 1816 594 1794 c 0
 561 1547 276 1444 181 1290 c 0
 170 1271 175 1261 209 1261 c 2
 444 1261 l 2
 457 1261 455 1264 455 1276 c 2
 455 1351 l 2
 455 1371 460 1370 470 1378 c 0
 498 1400 515 1428 533 1482 c 0
 537 1492 535 1501 550 1501 c 2
 553 1501 l 2
 569 1501 569 1496 569 1482 c 2
 569 1287 l 2
 569 1264 572 1261 594 1261 c 2
 658 1261 l 2
 674 1261 677 1257 677 1240 c 2
 677 1213 l 2
 677 1197 672 1195 655 1195 c 2
 590 1195 l 2
 571 1195 569 1189 569 1172 c 2
 569 1007 l 2
 569 988 573 985 592 985 c 2
 638 985 l 2
 653 985 659 984 659 969 c 2
EndSplineSet
EndChar

StartChar: Euro
Encoding: 8364 8364 429
Width: 1359
Flags: MW
LayerCount: 2
Fore
SplineSet
890 1404 m 0
 592 1404 500 1114 500 750 c 0
 500 386 582 98 830 98 c 0
 1131 98 1181 325 1188 464 c 0
 1189 476 1194 480 1208 480 c 2
 1278 480 l 2
 1292 480 1299 479 1299 466 c 0
 1294 266 1191 -20 810 -20 c 0
 484 -20 270 304 270 750 c 0
 270 1196 524 1520 880 1520 c 0
 1144 1520 1262 1356 1262 1152 c 0
 1262 1056 1192 1020 1134 1020 c 0
 1080 1020 1020 1062 1020 1136 c 0
 1020 1208 1114 1228 1114 1274 c 0
 1114 1328 1058 1404 890 1404 c 0
EndSplineSet
Refer: 87 61 N 1 0 0 1 -70 -30 2
EndChar

StartChar: partialdiff
Encoding: 8706 8706 430
Width: 1100
Flags: MW
LayerCount: 2
Fore
SplineSet
354 1382 m 0
 354 1356 402 1338 402 1266 c 0
 402 1192 342 1150 288 1150 c 0
 230 1150 160 1186 160 1282 c 0
 160 1446 308 1520 472 1520 c 0
 794 1520 1000 1220 1000 740 c 0
 1000 170 844 -20 522 -20 c 0
 240 -20 60 150 60 470 c 0
 60 800 246 960 468 960 c 0
 600 960 700 913 767 839 c 0
 784 820 788 806 796 810 c 0
 803 814 799 827 797 860 c 0
 781 1203 694 1436 462 1436 c 0
 384 1436 354 1408 354 1382 c 0
260 470 m 0
 260 252 324 70 502 70 c 0
 700 70 800 262 800 560 c 0
 800 720 678 862 512 862 c 0
 354 862 260 698 260 470 c 0
EndSplineSet
EndChar

StartChar: emptyset
Encoding: 8709 8709 431
Width: 1140
Flags: MW
LayerCount: 2
Fore
SplineSet
48 311 m 1
 1019 1282 l 1
 1102 1209 l 1
 131 238 l 1
 48 311 l 1
242 770 m 0
 242 592 358 433 571 433 c 0
 784 433 898 592 898 770 c 0
 898 948 784 1107 571 1107 c 0
 358 1107 242 948 242 770 c 0
112 770 m 0
 112 1020 289 1229 571 1229 c 0
 853 1229 1028 1020 1028 770 c 0
 1028 520 853 310 571 310 c 0
 289 310 112 520 112 770 c 0
EndSplineSet
EndChar

StartChar: summation
Encoding: 8721 8721 432
Width: 1305
Flags: MW
LayerCount: 2
Fore
SplineSet
66 1500 m 1
 1170 1500 l 1
 1170 1090 l 1
 1056 1090 l 1
 1056 1304 1031 1387 797 1387 c 2
 296 1387 l 1
 702 813 l 1
 252 113 l 1
 776 113 l 2
 1049 113 1076 196 1076 450 c 1
 1189 450 l 1
 1189 0 l 1
 56 0 l 1
 528 750 l 1
 66 1387 l 1
 66 1500 l 1
EndSplineSet
EndChar

StartChar: minus
Encoding: 8722 8722 433
Width: 1224
Flags: MW
LayerCount: 2
Fore
SplineSet
160 830 m 2
 1066 830 l 2
 1099 830 1104 826 1104 802 c 2
 1104 753 l 2
 1104 729 1102 720 1064 720 c 2
 157 720 l 2
 121 720 120 724 120 750 c 2
 120 802 l 2
 120 825 130 830 160 830 c 2
EndSplineSet
EndChar

StartChar: uni2219
Encoding: 8729 8729 435
Width: 440
Flags: MW
LayerCount: 2
Fore
SplineSet
100 770 m 0
 100 836 154 890 220 890 c 0
 286 890 340 836 340 770 c 0
 340 704 286 650 220 650 c 0
 154 650 100 704 100 770 c 0
EndSplineSet
EndChar

StartChar: product
Encoding: 8719 8719 436
Width: 1770
Flags: MW
LayerCount: 2
Fore
SplineSet
485 1347 m 2
 485 150 l 2
 485 119 490 110 523 110 c 2
 692 110 l 2
 719 110 725 105 725 76 c 2
 725 50 l 2
 725 5 719 0 675 0 c 2
 115 0 l 2
 82 0 75 5 75 40 c 2
 75 68 l 2
 75 104 81 110 116 110 c 2
 254 110 l 2
 286 110 295 112 295 144 c 2
 295 1351 l 2
 295 1383 286 1390 256 1390 c 2
 110 1390 l 2
 76 1390 75 1401 75 1436 c 2
 75 1462 l 2
 75 1494 85 1500 115 1500 c 2
 1655 1500 l 2
 1687 1500 1695 1496 1695 1462 c 2
 1695 1424 l 2
 1695 1396 1686 1390 1656 1390 c 2
 1530 1390 l 2
 1486 1390 1475 1388 1475 1344 c 2
 1475 144 l 2
 1475 116 1482 110 1512 110 c 2
 1656 110 l 2
 1683 110 1695 107 1695 78 c 2
 1695 44 l 2
 1695 2 1684 0 1645 0 c 2
 1085 0 l 2
 1049 0 1045 7 1045 44 c 2
 1045 74 l 2
 1045 102 1047 110 1074 110 c 2
 1243 110 l 2
 1282 110 1285 123 1285 160 c 2
 1285 1338 l 2
 1285 1382 1279 1390 1236 1390 c 2
 532 1390 l 2
 490 1390 485 1384 485 1347 c 2
EndSplineSet
EndChar

StartChar: radical
Encoding: 8730 8730 437
Width: 1130
Flags: MW
LayerCount: 2
Fore
SplineSet
966 1390 m 1
 657 -20 l 1
 539 -20 l 1
 263 421 l 1
 151 363 l 1
 111 450 l 1
 342 580 l 1
 586 160 l 1
 889 1500 l 1
 1130 1500 l 1
 1130 1390 l 1
 966 1390 l 1
EndSplineSet
EndChar

StartChar: infinity
Encoding: 8734 8734 438
Width: 1813
Flags: MW
LayerCount: 2
Fore
SplineSet
1622 780 m 0
 1622 948 1517 1047 1364 1047 c 0
 1237 1047 1126 945 1031 825 c 0
 1004 791 992 784 1020 748 c 0
 1117 623 1232 513 1364 513 c 0
 1517 513 1622 622 1622 780 c 0
1763 780 m 0
 1763 540 1606 401 1364 401 c 0
 1209 401 1061 508 946 644 c 0
 906 691 910 696 870 648 c 0
 754 510 606 401 449 401 c 0
 207 401 50 550 50 780 c 0
 50 1020 207 1159 449 1159 c 0
 611 1159 763 1044 881 899 c 0
 906 868 904 864 930 896 c 0
 1048 1043 1201 1159 1364 1159 c 0
 1606 1159 1763 1020 1763 780 c 0
786 820 m 0
 688 942 568 1047 439 1047 c 0
 286 1047 191 928 191 780 c 0
 191 622 286 513 439 513 c 0
 569 513 691 621 789 744 c 0
 818 780 815 784 786 820 c 0
EndSplineSet
EndChar

StartChar: integral
Encoding: 8747 8747 439
Width: 782
Flags: MW
LayerCount: 2
Fore
SplineSet
222 1144 m 2
 222 1406 356 1580 616 1580 c 0
 818 1580 952 1472 952 1358 c 0
 952 1272 904 1226 834 1226 c 0
 764 1226 718 1266 718 1322 c 0
 718 1382 760 1396 760 1436 c 0
 760 1460 724 1490 620 1490 c 0
 460 1490 402 1354 402 1100 c 2
 402 -85 l 2
 402 -347 268 -521 8 -521 c 0
 -194 -521 -328 -413 -328 -299 c 0
 -328 -213 -280 -167 -210 -167 c 0
 -140 -167 -94 -207 -94 -263 c 0
 -94 -323 -136 -337 -136 -377 c 0
 -136 -401 -100 -431 4 -431 c 0
 164 -431 222 -295 222 -41 c 2
 222 1144 l 2
EndSplineSet
EndChar

StartChar: approxequal
Encoding: 8776 8776 440
Width: 1200
Flags: MW
LayerCount: 2
Fore
SplineSet
798 864 m 0
 680 864 597 942 542 1007 c 0
 493 1065 441 1091 388 1091 c 0
 281 1091 232 1036 232 957 c 0
 232 941 234 925 238 907 c 2
 238 907 239 905 239 904 c 0
 240 893 230 882 219 882 c 2
 136 882 l 2
 127 882 119 888 117 897 c 0
 80 1028 169 1164 307 1203 c 0
 333 1210 359 1214 388 1214 c 0
 513 1214 596 1133 650 1071 c 0
 699 1014 737 987 788 987 c 0
 877 987 918 1035 918 1110 c 0
 918 1129 916 1149 910 1171 c 0
 910 1172 909 1173 909 1174 c 0
 908 1185 918 1196 929 1196 c 2
 1012 1196 l 2
 1020 1196 1029 1190 1031 1181 c 0
 1065 1038 975 900 849 870 c 0
 832 866 816 864 798 864 c 0
798 364 m 0
 680 364 597 442 542 507 c 0
 493 565 441 591 388 591 c 0
 281 591 232 536 232 457 c 0
 232 441 234 425 238 407 c 2
 238 407 239 405 239 404 c 0
 240 393 230 382 219 382 c 2
 136 382 l 2
 127 382 119 388 117 397 c 0
 80 528 169 664 307 703 c 0
 333 710 359 714 388 714 c 0
 513 714 596 633 650 571 c 0
 699 514 737 487 788 487 c 0
 877 487 918 535 918 610 c 0
 918 629 916 649 910 671 c 0
 910 672 909 673 909 674 c 0
 908 685 918 696 929 696 c 2
 1012 696 l 2
 1020 696 1029 690 1031 681 c 0
 1065 538 975 400 849 370 c 0
 832 366 816 364 798 364 c 0
EndSplineSet
EndChar

StartChar: notequal
Encoding: 8800 8800 441
Width: 1119
Flags: MW
LayerCount: 2
Fore
SplineSet
157 980 m 2
 967 980 l 2
 997 980 1000 976 1000 952 c 2
 1000 903 l 2
 1000 879 998 870 964 870 c 2
 154 870 l 2
 122 870 120 874 120 900 c 2
 120 952 l 2
 120 975 130 980 157 980 c 2
157 680 m 2
 967 680 l 2
 997 680 1000 676 1000 652 c 2
 1000 603 l 2
 1000 579 998 570 964 570 c 2
 154 570 l 2
 122 570 120 574 120 600 c 2
 120 652 l 2
 120 675 130 680 157 680 c 2
190 282 m 2
 859 1239 l 2
 884 1274 890 1276 906 1265 c 2
 938 1243 l 2
 954 1232 957 1225 929 1185 c 2
 259 228 l 2
 232 190 229 191 212 203 c 2
 178 226 l 2
 163 237 168 250 190 282 c 2
EndSplineSet
EndChar

StartChar: lessequal
Encoding: 8804 8804 442
Width: 1119
Flags: MW
LayerCount: 2
Fore
SplineSet
296 752 m 2
 962 495 l 2
 990 484 1000 477 1000 437 c 2
 1000 395 l 2
 1000 350 983 357 956 367 c 2
 152 678 l 2
 123 689 120 699 120 740 c 2
 120 820 l 2
 120 862 125 862 154 873 c 2
 966 1187 l 2
 991 1197 1000 1193 1000 1159 c 2
 1000 1113 l 2
 1000 1076 989 1066 964 1056 c 2
 298 799 l 2
 267 787 250 787 250 776 c 0
 250 765 263 765 296 752 c 2
156 170 m 2
 966 170 l 2
 996 170 1000 166 1000 142 c 2
 1000 93 l 2
 1000 69 998 60 964 60 c 2
 153 60 l 2
 121 60 120 64 120 90 c 2
 120 142 l 2
 120 165 129 170 156 170 c 2
EndSplineSet
EndChar

StartChar: greaterequal
Encoding: 8805 8805 443
Width: 1119
Flags: MW
LayerCount: 2
Fore
SplineSet
824 798 m 2
 158 1055 l 2
 130 1066 120 1073 120 1113 c 2
 120 1155 l 2
 120 1200 137 1193 164 1183 c 2
 968 872 l 2
 997 861 1000 851 1000 810 c 2
 1000 730 l 2
 1000 688 995 688 966 677 c 2
 154 363 l 2
 129 353 120 357 120 391 c 2
 120 437 l 2
 120 474 131 484 156 494 c 2
 822 751 l 2
 853 763 870 763 870 774 c 0
 870 785 857 785 824 798 c 2
156 170 m 2
 966 170 l 2
 996 170 1000 166 1000 142 c 2
 1000 93 l 2
 1000 69 998 60 964 60 c 2
 153 60 l 2
 121 60 120 64 120 90 c 2
 120 142 l 2
 120 165 129 170 156 170 c 2
EndSplineSet
EndChar

StartChar: lozenge
Encoding: 9674 9674 444
Width: 1200
Flags: MW
LayerCount: 2
Fore
SplineSet
612 30 m 257
 1000 712 l 257
 612 1392 l 257
 200 712 l 257
 612 30 l 257
612 250 m 257
 340 712 l 257
 612 1172 l 257
 868 712 l 257
 612 250 l 257
EndSplineSet
EndChar

StartChar: uniF8E8
Encoding: 63720 63720 445
Width: 1125
Flags: MW
LayerCount: 2
Fore
SplineSet
562 1592 m 256
 828 1592 1025 1395 1025 1130 c 256
 1025 864 827 668 562 668 c 256
 296 668 100 865 100 1130 c 256
 100 1396 297 1592 562 1592 c 256
562 724 m 256
 792 724 968 889 968 1130 c 256
 968 1371 791 1536 562 1536 c 256
 332 1536 157 1371 157 1130 c 256
 157 888 333 724 562 724 c 256
855 932 m 0
 842 888 811 856 752 856 c 0
 584 856 750 1112 565 1112 c 2
 473 1112 l 2
 457 1112 457 1109 457 1093 c 2
 457 915 l 2
 457 904 459 903 471 903 c 2
 525 903 l 2
 535 903 536 900 536 890 c 2
 536 874 l 2
 536 865 533 864 524 864 c 2
 320 864 l 2
 311 864 309 866 309 875 c 2
 309 891 l 2
 309 902 312 903 322 903 c 2
 371 903 l 2
 386 903 388 905 388 919 c 2
 388 1347 l 2
 388 1362 386 1364 371 1364 c 2
 322 1364 l 2
 309 1364 309 1367 309 1380 c 2
 309 1391 l 2
 309 1400 310 1404 319 1404 c 2
 594 1404 l 2
 724 1404 774 1339 774 1260 c 0
 774 1201 749 1157 681 1136 c 0
 667 1132 667 1127 683 1119 c 0
 789 1062 699 903 778 903 c 0
 791 903 805 915 816 940 c 0
 819 946 821 951 828 948 c 2
 846 942 l 2
 853 939 857 938 855 932 c 0
474 1155 m 2
 594 1155 l 2
 649 1155 702 1189 702 1260 c 0
 702 1331 649 1364 594 1364 c 2
 474 1364 l 2
 457 1364 457 1364 457 1347 c 2
 457 1172 l 2
 457 1157 459 1155 474 1155 c 2
EndSplineSet
EndChar

StartChar: uniF8E9
Encoding: 63721 63721 446
Width: 1125
Flags: MW
LayerCount: 2
Fore
SplineSet
562 1592 m 256
 828 1592 1025 1395 1025 1130 c 256
 1025 864 827 668 562 668 c 256
 296 668 100 865 100 1130 c 256
 100 1396 297 1592 562 1592 c 256
562 724 m 256
 792 724 968 889 968 1130 c 256
 968 1371 791 1536 562 1536 c 256
 332 1536 157 1371 157 1130 c 256
 157 888 333 724 562 724 c 256
292 1124 m 0
 292 1285 420 1401 566 1401 c 0
 635 1401 690 1372 726 1334 c 0
 733 1326 736 1327 740 1340 c 2
 755 1391 l 2
 756 1396 756 1398 763 1398 c 2
 782 1398 l 2
 788 1398 789 1397 789 1391 c 2
 789 1220 l 2
 789 1212 787 1210 779 1210 c 2
 757 1210 l 2
 748 1210 749 1213 748 1221 c 0
 736 1291 669 1359 570 1359 c 0
 445 1359 375 1255 375 1124 c 0
 375 993 437 889 562 889 c 0
 678 889 746 975 756 1061 c 0
 756 1065 758 1066 763 1066 c 2
 788 1066 l 2
 793 1066 796 1066 796 1061 c 0
 787 939 699 847 555 847 c 0
 402 847 292 963 292 1124 c 0
EndSplineSet
EndChar

StartChar: uniF8EA
Encoding: 63722 63722 447
Width: 1426
Flags: MW
LayerCount: 2
Fore
SplineSet
221 990 m 2
 221 1002 l 2
 221 1014 225 1015 236 1015 c 2
 295 1015 l 2
 312 1015 315 1016 315 1034 c 2
 315 1463 l 2
 315 1477 312 1479 299 1479 c 2
 264 1479 l 2
 170 1479 144 1447 142 1346 c 0
 142 1335 140 1331 128 1331 c 2
 118 1331 l 2
 106 1331 106 1339 106 1350 c 2
 106 1496 l 2
 106 1513 107 1515 123 1515 c 2
 577 1515 l 2
 591 1515 592 1512 592 1498 c 2
 592 1343 l 2
 592 1333 589 1331 578 1331 c 2
 570 1331 l 2
 557 1331 556 1336 556 1348 c 0
 553 1448 528 1479 434 1479 c 2
 397 1479 l 2
 384 1479 383 1477 383 1464 c 2
 383 1035 l 2
 383 1017 385 1015 403 1015 c 2
 462 1015 l 2
 476 1015 477 1012 477 997 c 2
 477 990 l 2
 477 976 469 975 456 975 c 2
 238 975 l 2
 224 975 221 976 221 990 c 2
720 1475 m 2
 665 1475 l 2
 655 1475 653 1477 653 1486 c 2
 653 1503 l 2
 653 1515 658 1515 668 1515 c 2
 816 1515 l 2
 832 1515 830 1509 834 1498 c 2
 969 1089 l 2
 974 1075 974 1065 978 1065 c 0
 981 1065 982 1070 986 1082 c 2
 1125 1503 l 2
 1128 1513 1127 1515 1140 1515 c 2
 1291 1515 l 2
 1301 1515 1304 1513 1304 1502 c 2
 1304 1493 l 2
 1304 1478 1303 1475 1288 1475 c 2
 1242 1475 l 2
 1229 1475 1227 1468 1227 1456 c 2
 1245 1030 l 2
 1245 1018 1247 1015 1260 1015 c 2
 1312 1015 l 2
 1326 1015 1326 1015 1326 1001 c 2
 1326 990 l 2
 1326 978 1325 975 1313 975 c 2
 1109 975 l 2
 1098 975 1092 977 1092 989 c 2
 1092 997 l 2
 1092 1011 1092 1015 1106 1015 c 2
 1163 1015 l 2
 1176 1015 1177 1018 1177 1030 c 2
 1164 1396 l 2
 1163 1415 1165 1456 1162 1456 c 0
 1154 1456 1146 1418 1139 1397 c 2
 999 981 l 2
 996 972 994 968 982 968 c 2
 965 968 l 2
 948 968 946 975 942 987 c 2
 796 1417 l 2
 791 1432 789 1465 780 1465 c 0
 777 1465 777 1457 776 1435 c 2
 759 1038 l 2
 758 1018 762 1015 783 1015 c 2
 827 1015 l 2
 841 1015 844 1013 844 999 c 2
 844 989 l 2
 844 976 838 975 825 975 c 2
 647 975 l 2
 634 975 631 976 631 989 c 2
 631 999 l 2
 631 1012 633 1015 646 1015 c 2
 696 1015 l 2
 708 1015 713 1020 713 1030 c 2
 733 1461 l 2
 733 1471 731 1475 720 1475 c 2
EndSplineSet
EndChar

StartChar: circumflex
Encoding: 710 710 448
Width: 1000
Flags: MW
LayerCount: 2
Fore
SplineSet
241 1690 m 2
 219 1714 l 2
 204 1729 204 1729 219 1744 c 2
 407 1932 l 2
 421 1946 431 1949 460 1949 c 2
 545 1949 l 2
 571 1949 579 1944 591 1932 c 2
 783 1740 l 2
 793 1730 795 1730 784 1719 c 2
 751 1686 l 2
 736 1671 736 1673 719 1685 c 2
 524 1830 l 2
 506 1843 492 1844 474 1831 c 2
 277 1684 l 2
 262 1673 254 1677 241 1690 c 2
EndSplineSet
EndChar

StartChar: quotesinglbase
Encoding: 8218 8218 449
Width: 508
Flags: MW
LayerCount: 2
Fore
SplineSet
119 98 m 0
 119 164 177 216 253 216 c 0
 331 216 393 154 393 8 c 0
 393 -126 303 -296 138 -311 c 0
 123 -312 115 -313 115 -296 c 2
 115 -253 l 2
 115 -235 125 -232 140 -230 c 0
 231 -216 309 -124 298 -9 c 0
 296 7 287 -1 276 -8 c 0
 260 -19 246 -20 225 -20 c 0
 159 -20 119 32 119 98 c 0
EndSplineSet
EndChar

StartChar: quotedblbase
Encoding: 8222 8222 451
Width: 878
Flags: MW
LayerCount: 2
Fore
SplineSet
104 98 m 0
 104 164 162 216 238 216 c 0
 316 216 378 154 378 8 c 0
 378 -126 288 -296 123 -311 c 0
 108 -312 100 -313 100 -296 c 2
 100 -253 l 2
 100 -235 110 -232 125 -230 c 0
 216 -216 294 -124 283 -9 c 0
 281 7 272 -1 261 -8 c 0
 245 -19 231 -20 210 -20 c 0
 144 -20 104 32 104 98 c 0
504 98 m 0
 504 164 562 216 638 216 c 0
 716 216 778 154 778 8 c 0
 778 -126 688 -296 523 -311 c 0
 508 -312 500 -313 500 -296 c 2
 500 -253 l 2
 500 -235 510 -232 525 -230 c 0
 616 -216 694 -124 683 -9 c 0
 681 7 672 -1 661 -8 c 0
 645 -19 631 -20 610 -20 c 0
 544 -20 504 32 504 98 c 0
EndSplineSet
EndChar

StartChar: a.sc
Encoding: 65554 -1 452
Width: 1304
Flags: MW
AnchorPoint: "Anchor-0" 589 1039 basechar 0
AnchorPoint: "Anchor-1" 552 0 basechar 0
AnchorPoint: "Anchor-2" 967 0 basechar 0
LayerCount: 2
Fore
SplineSet
0 48 m 2
 0 87 l 2
 0 106 5 119 27 119 c 2
 115 119 l 2
 139 119 143 122 150 137 c 2
 598 1050 l 2
 602 1059 611 1059 623 1059 c 2
 691 1059 l 2
 706 1059 715 1058 720 1047 c 2
 1136 140 l 2
 1143 126 1154 119 1168 119 c 2
 1279 119 l 2
 1306 119 1305 108 1305 83 c 2
 1305 41 l 2
 1305 13 1306 0 1275 0 c 2
 866 0 l 2
 839 0 827 6 827 38 c 2
 827 82 l 2
 827 109 836 119 865 119 c 2
 936 119 l 2
 947 119 955 121 952 129 c 2
 896 263 l 1
 885 285 879 289 846 289 c 2
 404 289 l 2
 373 289 366 288 359 271 c 2
 299 135 l 2
 294 124 298 119 313 119 c 2
 377 119 l 2
 402 119 412 112 412 84 c 2
 412 38 l 2
 412 3 411 0 377 0 c 2
 42 0 l 2
 8 0 0 9 0 48 c 2
426 426 m 2
 420 415 433 418 444 418 c 2
 795 418 l 2
 824 418 833 417 822 439 c 2
 638 845 l 2
 636 850 634 853 631 853 c 256
 628 853 626 852 625 850 c 2
 426 426 l 2
EndSplineSet
EndChar

StartChar: b.sc
Encoding: 65564 -1 462
Width: 1152
Flags: MW
AnchorPoint: "Anchor-0" 516 1040 basechar 0
AnchorPoint: "Anchor-1" 539 0 basechar 0
LayerCount: 2
Fore
SplineSet
683 0 m 2
 81 0 l 2
 57 0 52 3 52 30 c 2
 52 72 l 2
 52 97 56 104 78 104 c 2
 177 104 l 2
 195 104 205 106 205 124 c 2
 205 911 l 2
 205 935 199 936 174 936 c 2
 81 936 l 2
 55 936 52 941 52 970 c 2
 52 1010 l 2
 52 1033 55 1040 75 1040 c 2
 646 1040 l 2
 765 1040 860 1017 932 972 c 0
 1004 927 1040 860 1040 770 c 0
 1040 653 971 579 833 550 c 0
 820 547 814 544 814 540 c 0
 814 536 820 533 831 531 c 0
 916 514 982 487 1028 448 c 0
 1074 409 1097 357 1097 291 c 0
 1097 187 1060 113 986 68 c 0
 912 23 811 0 683 0 c 2
429 588 m 2
 642 588 l 2
 695 588 743 602 786 629 c 0
 829 656 851 701 851 762 c 256
 851 823 829 868 786 895 c 0
 743 922 695 936 642 936 c 2
 419 936 l 2
 397 936 395 929 395 908 c 2
 395 613 l 2
 395 588 402 588 429 588 c 2
662 104 m 2
 723 104 777 120 822 154 c 0
 867 188 889 236 889 297 c 256
 889 358 867 405 822 436 c 0
 777 467 723 483 662 483 c 2
 430 483 l 2
 400 483 395 478 395 449 c 2
 395 128 l 2
 395 105 404 104 428 104 c 2
 662 104 l 2
EndSplineSet
EndChar

StartChar: c.sc
Encoding: 65565 -1 463
Width: 1215
Flags: MW
AnchorPoint: "Anchor-0" 659 1050 basechar 0
AnchorPoint: "Anchor-1" 660 -11 basechar 0
LayerCount: 2
Fore
SplineSet
76 520 m 0
 76 694 150 825 245 914 c 0
 338 1001 471 1069 640 1069 c 0
 693 1069 740 1061 782 1044 c 0
 824 1027 865 1008 904 985 c 0
 927 972 947 968 964 974 c 0
 993 985 1016 1015 1028 1039 c 2
 1030 1044 l 2
 1034 1053 1034 1060 1050 1060 c 2
 1101 1060 l 2
 1114 1060 1120 1054 1120 1041 c 2
 1120 701 l 2
 1120 684 1112 681 1093 681 c 2
 1035 681 l 2
 1011 681 1017 684 1012 700 c 0
 1000 763 960 827 914 868 c 0
 856 919 773 958 669 958 c 0
 544 958 451 905 391 831 c 0
 331 757 294 645 294 520 c 256
 294 396 327 284 384 210 c 0
 442 135 531 83 657 83 c 0
 771 83 857 123 919 180 c 0
 975 232 1023 316 1033 402 c 0
 1034 409 1040 413 1052 413 c 2
 1118 413 l 2
 1132 413 1139 410 1138 403 c 0
 1129 277 1072 168 995 98 c 0
 910 20 787 -30 630 -30 c 0
 523 -30 428 -6 344 41 c 0
 260 88 194 153 147 236 c 0
 100 319 76 414 76 520 c 0
EndSplineSet
EndChar

StartChar: d.sc
Encoding: 65571 -1 469
Width: 1238
Flags: MW
AnchorPoint: "Anchor-0" 523 1040 basechar 0
AnchorPoint: "Anchor-1" 522 0 basechar 0
LayerCount: 2
Fore
SplineSet
52 32 m 2
 52 68 l 2
 52 95 52 104 76 104 c 2
 183 104 l 2
 204 104 205 109 205 130 c 2
 205 907 l 2
 205 930 205 936 181 936 c 2
 92 936 l 2
 61 936 52 937 52 970 c 2
 52 1013 l 2
 52 1036 68 1040 90 1040 c 2
 611 1040 l 2
 788 1040 925 982 1017 891 c 0
 1102 807 1162 675 1162 520 c 0
 1162 366 1098 234 1012 150 c 0
 920 61 782 0 611 0 c 2
 76 0 l 2
 53 0 52 8 52 32 c 2
413 104 m 2
 614 104 l 2
 740 104 820 144 874 216 c 0
 928 288 954 398 954 520 c 0
 954 637 928 741 878 812 c 0
 824 888 741 936 614 936 c 2
 415 936 l 2
 389 936 385 933 385 907 c 2
 385 126 l 2
 385 104 391 104 413 104 c 2
EndSplineSet
EndChar

StartChar: e.sc
Encoding: 65573 -1 471
Width: 1154
Flags: MW
AnchorPoint: "Anchor-0" 599 1040 basechar 0
AnchorPoint: "Anchor-1" 580 0 basechar 0
AnchorPoint: "Anchor-2" 909 0 basechar 0
LayerCount: 2
Fore
SplineSet
171 936 m 2
 77 936 l 2
 52 936 52 950 52 976 c 2
 52 1004 l 2
 52 1030 52 1040 76 1040 c 2
 1003 1040 l 2
 1042 1040 1045 1036 1045 995 c 2
 1045 735 l 2
 1045 711 1047 710 1018 710 c 2
 980 710 l 2
 955 710 952 713 950 733 c 0
 946 889 895 936 733 936 c 2
 417 936 l 2
 392 936 385 933 385 908 c 2
 385 603 l 2
 385 584 389 575 409 575 c 2
 503 575 l 2
 602 575 661 616 669 700 c 0
 670 713 679 720 694 720 c 2
 726 720 l 2
 745 720 755 714 755 701 c 2
 755 372 l 2
 755 350 749 347 725 347 c 2
 694 347 l 2
 678 347 670 351 668 368 c 0
 659 452 603 498 503 498 c 2
 411 498 l 2
 387 498 385 493 385 470 c 2
 385 132 l 2
 385 107 391 104 417 104 c 2
 721 104 l 2
 906 104 965 156 969 336 c 0
 969 349 977 356 992 356 c 2
 1028 356 l 2
 1052 356 1064 350 1064 337 c 2
 1064 32 l 2
 1064 8 1062 0 1039 0 c 2
 80 0 l 2
 56 0 52 7 52 34 c 2
 52 78 l 2
 52 102 55 104 77 104 c 2
 167 104 l 2
 201 104 205 107 205 140 c 2
 205 905 l 2
 205 933 200 936 171 936 c 2
EndSplineSet
EndChar

StartChar: f.sc
Encoding: 65583 -1 481
Width: 1098
Flags: MW
AnchorPoint: "Anchor-0" 578 1040 basechar 0
AnchorPoint: "Anchor-1" 301 0 basechar 0
LayerCount: 2
Fore
SplineSet
185 936 m 2
 69 936 l 2
 54 936 52 940 52 957 c 2
 52 1022 l 2
 52 1034 55 1040 62 1040 c 2
 1010 1040 l 2
 1023 1040 1029 1031 1029 1013 c 2
 1029 724 l 2
 1029 715 1020 711 1002 711 c 2
 953 711 l 2
 937 711 934 712 934 726 c 0
 933 890 883 936 717 936 c 2
 410 936 l 2
 393 936 385 928 385 913 c 2
 385 590 l 2
 385 568 390 565 412 565 c 2
 516 565 l 2
 615 565 673 581 683 682 c 0
 684 691 691 696 707 696 c 2
 739 696 l 2
 758 696 768 691 768 681 c 2
 768 349 l 2
 768 336 765 332 750 332 c 2
 701 332 l 2
 685 332 685 333 683 346 c 0
 678 434 618 469 517 469 c 2
 406 469 l 2
 387 469 385 465 385 446 c 2
 385 129 l 2
 385 107 388 104 411 104 c 2
 532 104 l 2
 547 104 551 102 551 85 c 2
 551 28 l 2
 551 5 548 0 528 0 c 2
 69 0 l 2
 54 0 52 2 52 19 c 2
 52 87 l 2
 52 102 57 104 71 104 c 2
 186 104 l 2
 199 104 205 111 205 124 c 2
 205 916 l 2
 205 935 204 936 185 936 c 2
EndSplineSet
EndChar

StartChar: g.sc
Encoding: 65584 -1 482
Width: 1319
Flags: MW
AnchorPoint: "Anchor-0" 659 1040 basechar 0
AnchorPoint: "Anchor-1" 639 5 basechar 0
LayerCount: 2
Fore
SplineSet
812 543 m 2
 1264 543 l 2
 1296 543 1298 536 1298 499 c 2
 1298 452 l 2
 1298 427 1297 420 1273 420 c 2
 1182 420 l 2
 1160 420 1159 415 1159 394 c 2
 1159 332 l 2
 1159 315 1159 316 1159 300 c 0
 1159 290 1158 279 1155 270 c 0
 1144 229 1119 186 1079 142 c 0
 1039 98 982 61 910 31 c 0
 838 1 748 -14 641 -14 c 256
 534 -14 437 9 352 55 c 0
 267 101 199 165 150 246 c 0
 101 327 76 419 76 522 c 0
 76 694 152 821 248 907 c 0
 344 992 482 1059 652 1059 c 0
 696 1059 737 1055 774 1046 c 0
 839 1030 875 1007 932 979 c 0
 956 967 980 959 1000 955 c 0
 1020 951 1032 957 1036 973 c 2
 1045 1011 l 2
 1050 1030 1059 1040 1073 1040 c 2
 1115 1040 l 2
 1132 1040 1140 1032 1140 1015 c 2
 1140 723 l 2
 1140 706 1137 696 1117 696 c 2
 1071 696 l 2
 1041 696 1037 698 1032 719 c 0
 1022 776 991 836 951 872 c 0
 889 927 807 953 682 953 c 0
 559 953 463 899 401 827 c 0
 339 755 294 645 294 522 c 256
 294 400 328 289 384 216 c 0
 440 142 526 90 648 90 c 0
 735 90 802 107 852 142 c 0
 902 177 936 213 953 251 c 0
 958 261 960 273 960 287 c 2
 960 400 l 2
 960 419 951 420 932 420 c 2
 815 420 l 2
 789 420 787 426 787 454 c 2
 787 507 l 2
 787 534 788 543 812 543 c 2
EndSplineSet
EndChar

StartChar: h.sc
Encoding: 65588 -1 486
Width: 1324
Flags: MW
AnchorPoint: "Anchor-0" 656 1040 basechar 0
AnchorPoint: "Anchor-1" 656 0 basechar 0
LayerCount: 2
Fore
SplineSet
385 909 m 2
 385 624 l 2
 385 590 389 588 425 588 c 2
 903 588 l 2
 939 588 940 593 940 628 c 2
 940 904 l 2
 940 932 939 936 910 936 c 2
 797 936 l 2
 781 936 773 948 773 973 c 2
 773 1000 l 2
 773 1031 774 1040 801 1040 c 2
 1245 1040 l 2
 1271 1040 1273 1033 1273 1004 c 2
 1273 968 l 2
 1273 944 1269 936 1246 936 c 2
 1158 936 l 2
 1128 936 1120 936 1120 906 c 2
 1120 126 l 2
 1120 111 1129 104 1146 104 c 2
 1246 104 l 2
 1268 104 1273 98 1273 74 c 2
 1273 42 l 2
 1273 6 1269 0 1238 0 c 2
 801 0 l 2
 773 0 773 11 773 42 c 2
 773 70 l 2
 773 93 773 104 794 104 c 2
 911 104 l 2
 937 104 940 111 940 135 c 2
 940 453 l 2
 940 480 934 483 906 483 c 2
 418 483 l 2
 391 483 385 482 385 457 c 2
 385 129 l 2
 385 109 390 104 411 104 c 2
 529 104 l 2
 550 104 551 96 551 72 c 2
 551 47 l 2
 551 9 551 0 517 0 c 2
 80 0 l 2
 54 0 52 9 52 38 c 2
 52 64 l 2
 52 95 54 104 81 104 c 2
 176 104 l 2
 198 104 205 104 205 126 c 2
 205 911 l 2
 205 933 199 936 178 936 c 2
 76 936 l 2
 49 936 52 950 52 979 c 2
 52 1004 l 2
 52 1031 56 1040 80 1040 c 2
 524 1040 l 2
 546 1040 551 1034 551 1010 c 2
 551 972 l 2
 551 945 551 936 526 936 c 2
 412 936 l 2
 388 936 385 932 385 909 c 2
EndSplineSet
EndChar

StartChar: hyphen.sc
Encoding: 65590 -1 488
Width: 920
Flags: MW
LayerCount: 2
Fore
SplineSet
148 600 m 2
 774 600 l 2
 785 600 793 598 796 595 c 128
 799 592 800 584 800 572 c 2
 800 523 l 2
 800 511 799 503 796 498 c 128
 793 493 785 490 772 490 c 2
 146 490 l 2
 133 490 126 492 124 496 c 128
 122 500 120 507 120 520 c 2
 120 572 l 2
 120 583 122 590 126 594 c 128
 130 598 137 600 148 600 c 2
EndSplineSet
EndChar

StartChar: i.sc
Encoding: 65591 -1 489
Width: 623
Flags: MW
AnchorPoint: "Anchor-0" 306 1040 basechar 0
AnchorPoint: "Anchor-1" 303 0 basechar 0
AnchorPoint: "Anchor-2" 303 0 basechar 0
LayerCount: 2
Fore
SplineSet
395 913 m 2
 395 133 l 2
 395 114 404 104 422 104 c 2
 546 104 l 2
 556 104 561 94 561 74 c 2
 561 30 l 2
 561 10 552 0 534 0 c 2
 90 0 l 2
 71 0 62 10 62 30 c 2
 62 78 l 2
 62 100 71 104 94 104 c 2
 168 104 l 2
 194 104 215 108 215 136 c 2
 215 914 l 2
 215 933 215 936 195 936 c 2
 86 936 l 2
 70 936 62 945 62 964 c 2
 62 1015 l 2
 62 1037 64 1040 83 1040 c 2
 536 1040 l 2
 560 1040 561 1035 561 1008 c 2
 561 976 l 2
 561 949 555 936 532 936 c 2
 422 936 l 2
 401 936 395 935 395 913 c 2
EndSplineSet
EndChar

StartChar: j.sc
Encoding: 65600 -1 498
Width: 915
Flags: MW
AnchorPoint: "Anchor-0" 570 1040 basechar 0
AnchorPoint: "Anchor-1" 362 5 basechar 0
LayerCount: 2
Fore
SplineSet
14 208 m 0
 14 253 28 287 56 310 c 0
 84 333 116 344 151 344 c 0
 182 344 208 337 230 323 c 0
 252 309 263 290 263 267 c 0
 263 239 258 220 248 210 c 0
 238 200 228 192 218 186 c 0
 208 180 202 168 202 149 c 0
 202 138 210 126 227 112 c 0
 244 98 280 90 337 90 c 0
 400 90 450 110 485 149 c 0
 520 188 538 253 538 344 c 2
 538 898 l 2
 538 928 536 936 505 936 c 2
 375 936 l 2
 342 936 343 946 343 983 c 2
 343 1002 l 2
 343 1036 348 1040 378 1040 c 2
 856 1040 l 2
 876 1040 884 1037 884 1014 c 2
 884 968 l 2
 884 945 885 936 864 936 c 2
 749 936 l 2
 719 936 718 931 718 901 c 2
 718 363 l 2
 718 255 686 166 622 94 c 0
 558 22 460 -14 330 -14 c 0
 256 -14 196 -3 150 20 c 0
 104 43 69 72 47 106 c 0
 25 140 14 175 14 208 c 0
EndSplineSet
EndChar

StartChar: k.sc
Encoding: 65602 -1 500
Width: 1288
Flags: MW
AnchorPoint: "Anchor-0" 649 1040 basechar 0
AnchorPoint: "Anchor-1" 666 0 basechar 0
LayerCount: 2
Fore
SplineSet
52 44 m 2
 52 82 l 2
 52 107 62 119 82 119 c 2
 194 119 l 2
 216 119 215 120 215 141 c 2
 215 908 l 2
 215 917 210 921 201 921 c 2
 73 921 l 2
 53 921 52 935 52 955 c 2
 52 1005 l 2
 52 1028 61 1040 79 1040 c 2
 539 1040 l 2
 558 1040 568 1028 568 1005 c 2
 568 969 l 2
 568 935 561 921 528 921 c 2
 416 921 l 2
 394 921 390 917 390 893 c 2
 390 469 l 2
 390 434 418 469 444 493 c 2
 886 900 l 2
 900 913 903 921 885 921 c 2
 802 921 l 2
 770 921 766 937 766 969 c 2
 766 999 l 2
 766 1026 779 1040 805 1040 c 2
 1167 1040 l 2
 1195 1040 1199 1023 1199 995 c 2
 1199 971 l 2
 1199 938 1196 921 1164 921 c 2
 1108 921 l 2
 1076 921 1070 918 1054 902 c 2
 744 597 l 2
 736 589 735 581 742 572 c 2
 1114 139 l 2
 1128 122 1131 119 1161 119 c 2
 1254 119 l 2
 1283 119 1289 104 1289 74 c 2
 1289 40 l 2
 1289 7 1288 0 1258 0 c 2
 848 0 l 2
 827 0 816 13 816 40 c 2
 816 70 l 2
 816 101 820 119 851 119 c 2
 922 119 l 2
 940 119 947 120 937 133 c 2
 645 482 l 2
 626 505 633 503 610 484 c 2
 404 313 l 2
 388 300 390 299 390 270 c 2
 390 136 l 2
 390 125 397 119 412 119 c 2
 535 119 l 2
 563 119 568 104 568 76 c 2
 568 46 l 2
 568 16 562 0 533 0 c 2
 84 0 l 2
 56 0 52 16 52 44 c 2
EndSplineSet
EndChar

StartChar: l.sc
Encoding: 65603 -1 501
Width: 1083
Flags: MW
AnchorPoint: "Anchor-0" 289 1040 basechar 0
AnchorPoint: "Anchor-1" 524 0 basechar 0
AnchorPoint: "Anchor-3" 637 645 basechar 0
LayerCount: 2
Fore
SplineSet
176 936 m 2
 74 936 l 2
 54 936 52 946 52 968 c 2
 52 1013 l 2
 52 1035 55 1040 75 1040 c 2
 509 1040 l 2
 535 1040 538 1036 538 1008 c 2
 538 968 l 2
 538 944 534 936 513 936 c 2
 413 936 l 2
 392 936 385 933 385 911 c 2
 385 131 l 2
 385 111 394 110 414 110 c 2
 697 110 l 2
 877 110 932 174 933 346 c 0
 933 360 937 364 953 364 c 2
 993 364 l 2
 1016 364 1028 367 1028 346 c 2
 1028 43 l 2
 1028 11 1028 0 998 0 c 2
 82 0 l 2
 57 0 52 6 52 34 c 2
 52 80 l 2
 52 100 51 110 69 110 c 2
 172 110 l 2
 198 110 205 110 205 136 c 2
 205 911 l 2
 205 933 199 936 176 936 c 2
EndSplineSet
EndChar

StartChar: lcaron.sc
Encoding: 65605 -1 503
Width: 1083
Flags: MW
LayerCount: 2
Fore
SplineSet
743 1002 m 0
 743 1068 801 1120 877 1120 c 0
 955 1120 1017 1058 1017 912 c 0
 1017 778 927 608 762 593 c 0
 747 592 739 591 739 608 c 2
 739 651 l 2
 739 669 749 672 764 674 c 0
 855 688 933 780 922 895 c 0
 920 911 911 903 900 896 c 0
 884 885 870 884 849 884 c 0
 783 884 743 936 743 1002 c 0
EndSplineSet
Refer: 501 -1 N 1 0 0 1 0 0 3
EndChar

StartChar: m.sc
Encoding: 65606 -1 504
Width: 1618
Flags: MW
AnchorPoint: "Anchor-0" 832 1040 basechar 0
AnchorPoint: "Anchor-1" 818 4 basechar 0
LayerCount: 2
Fore
SplineSet
157 936 m 2
 46 936 l 2
 25 936 22 941 22 964 c 2
 22 1008 l 2
 22 1035 27 1040 51 1040 c 2
 425 1040 l 2
 458 1040 453 1032 462 1009 c 2
 795 259 l 2
 800 246 804 236 806 227 c 128
 808 218 810 214 814 214 c 0
 817 214 823 225 830 246 c 2
 1159 1008 l 2
 1170 1033 1163 1040 1196 1040 c 2
 1564 1040 l 2
 1587 1040 1589 1032 1589 1006 c 2
 1589 983 l 2
 1589 946 1590 936 1557 936 c 2
 1467 936 l 2
 1437 936 1427 928 1429 901 c 2
 1433 131 l 2
 1434 109 1437 104 1462 104 c 2
 1563 104 l 2
 1593 104 1590 101 1590 68 c 2
 1590 40 l 2
 1590 12 1590 0 1565 0 c 2
 1110 0 l 2
 1084 0 1074 8 1074 36 c 2
 1074 59 l 2
 1074 93 1073 104 1104 104 c 2
 1218 104 l 2
 1246 104 1254 107 1254 132 c 2
 1262 798 l 2
 1262 809 1265 824 1264 841 c 128
 1263 852 1265 908 1251 908 c 0
 1237 908 1225 853 1213 823 c 128
 1200 790 1186 739 1159 676 c 2
 876 15 l 2
 869 -4 866 -14 840 -14 c 2
 806 -14 l 2
 770 -14 770 2 758 27 c 2
 406 792 l 2
 398 812 389 835 380 862 c 128
 371 889 364 902 360 902 c 0
 357 902 354 889 353 863 c 2
 360 146 l 2
 360 106 374 104 418 104 c 2
 517 104 l 2
 549 104 551 97 551 62 c 2
 551 38 l 2
 551 7 542 0 513 0 c 2
 61 0 l 2
 33 0 31 7 31 38 c 2
 31 64 l 2
 31 95 32 104 60 104 c 2
 155 104 l 2
 176 104 187 114 188 133 c 2
 192 910 l 2
 193 927 181 936 157 936 c 2
EndSplineSet
EndChar

StartChar: n.sc
Encoding: 65607 -1 505
Width: 1280
Flags: MW
AnchorPoint: "Anchor-0" 655 1040 basechar 0
AnchorPoint: "Anchor-1" 606 4 basechar 0
LayerCount: 2
Fore
SplineSet
161 937 m 2
 83 937 l 2
 62 937 58 972 58 992 c 2
 58 1013 l 2
 58 1038 60 1044 85 1044 c 2
 327 1044 l 2
 383 1044 383 1036 408 1006 c 2
 932 346 l 2
 957 316 968 334 968 380 c 2
 968 905 l 1
 969 936 962 938 931 938 c 2
 891 938 l 2
 868 938 840 936 840 960 c 2
 840 1004 l 2
 840 1033 845 1044 875 1044 c 2
 1212 1044 l 2
 1230 1044 1248 1044 1248 1024 c 2
 1248 969 l 2
 1248 944 1247 938 1222 938 c 2
 1130 938 l 2
 1099 938 1095 933 1095 902 c 2
 1095 12 l 2
 1095 -6 1094 -20 1075 -20 c 2
 1050 -20 l 2
 1027 -20 1020 -15 1010 -2 c 2
 365 802 l 2
 337 835 327 816 327 761 c 2
 327 134 l 2
 327 107 331 104 359 104 c 2
 450 104 l 2
 472 104 475 97 475 75 c 2
 475 21 l 2
 475 -3 468 -6 444 -6 c 2
 89 -6 l 2
 64 -6 58 -5 58 20 c 2
 58 78 l 2
 58 102 69 104 92 104 c 2
 162 104 l 2
 195 104 202 107 202 140 c 2
 202 903 l 2
 202 936 195 937 161 937 c 2
EndSplineSet
EndChar

StartChar: o.sc
Encoding: 65611 -1 509
Width: 1267
Flags: MW
AnchorPoint: "Anchor-0" 631 1048 basechar 0
AnchorPoint: "Anchor-1" 631 -9 basechar 0
LayerCount: 2
Fore
SplineSet
76 520 m 0
 76 848 302 1067 634 1067 c 0
 967 1067 1191 848 1191 520 c 0
 1191 198 958 -28 634 -28 c 0
 302 -28 76 193 76 520 c 0
294 520 m 0
 294 275 390 68 634 68 c 0
 888 68 973 268 973 520 c 0
 973 766 880 971 634 971 c 0
 388 971 294 766 294 520 c 0
EndSplineSet
EndChar

StartChar: p.sc
Encoding: 65620 -1 518
Width: 1060
Flags: MW
AnchorPoint: "Anchor-0" 517 1040 basechar 0
AnchorPoint: "Anchor-1" 297 0 basechar 0
LayerCount: 2
Fore
SplineSet
183 936 m 2
 69 936 l 2
 50 936 52 947 52 967 c 2
 52 1006 l 2
 52 1032 55 1040 78 1040 c 2
 595 1040 l 2
 839 1040 1009 960 1009 742 c 256
 1009 528 849 444 613 444 c 2
 434 444 l 2
 395 444 385 446 385 409 c 2
 385 143 l 2
 385 108 389 104 425 104 c 2
 515 104 l 2
 539 104 538 92 538 66 c 2
 538 45 l 2
 538 11 539 0 508 0 c 2
 90 0 l 2
 56 0 52 5 52 43 c 2
 52 78 l 2
 52 99 55 104 74 104 c 2
 173 104 l 2
 201 104 205 108 205 135 c 2
 205 919 l 2
 205 930 198 936 183 936 c 2
420 549 m 2
 593 549 l 2
 717 549 801 623 801 742 c 256
 801 861 717 936 593 936 c 2
 405 936 l 2
 388 936 385 929 385 912 c 2
 385 576 l 2
 385 549 392 549 420 549 c 2
EndSplineSet
EndChar

StartChar: q.sc
Encoding: 65621 -1 519
Width: 1282
Flags: MW
AnchorPoint: "Anchor-0" 631 1048 basechar 0
LayerCount: 2
Fore
SplineSet
86 520 m 0
 86 848 302 1067 634 1067 c 0
 962 1067 1181 860 1181 538 c 0
 1181 323 1063 173 913 91 c 0
 883 76 875 76 898 49 c 0
 923 15 957 -29 1005 -29 c 0
 1094 -29 1146 27 1152 103 c 0
 1153 112 1161 117 1178 117 c 2
 1212 117 l 2
 1236 117 1247 118 1247 98 c 0
 1247 -55 1170 -197 1022 -197 c 0
 909 -197 863 -105 824 -24 c 0
 813 7 805 -1 772 -10 c 0
 730 -22 686 -28 639 -28 c 0
 306 -28 86 192 86 520 c 0
876 157 m 0
 940 240 973 367 973 512 c 0
 973 759 881 971 634 971 c 0
 386 971 294 755 294 506 c 0
 294 392 315 294 356 211 c 0
 364 196 375 188 377 210 c 0
 383 318 439 394 560 394 c 0
 709 394 777 269 830 158 c 0
 842 133 857 133 876 157 c 0
563 267 m 0
 491 267 429 242 432 180 c 0
 433 156 441 131 464 114 c 0
 509 81 573 68 634 68 c 0
 668 68 699 71 727 77 c 0
 764 83 757 95 752 110 c 24
 726 189 665 267 563 267 c 0
EndSplineSet
EndChar

StartChar: r.sc
Encoding: 65622 -1 520
Width: 1197
Flags: MW
AnchorPoint: "Anchor-0" 593 1040 basechar 0
AnchorPoint: "Anchor-1" 614 0 basechar 0
LayerCount: 2
Fore
SplineSet
1228 146 m 0
 1201 50 1135 -19 1011 -19 c 0
 846 -19 807 81 788 222 c 0
 770 353 747 462 594 462 c 2
 430 462 l 2
 399 462 395 459 395 430 c 2
 395 125 l 2
 395 105 403 104 423 104 c 2
 516 104 l 2
 537 104 537 93 537 70 c 2
 537 27 l 2
 537 5 536 0 515 0 c 2
 74 0 l 2
 54 0 52 8 52 30 c 2
 52 71 l 2
 52 96 55 104 77 104 c 2
 172 104 l 2
 200 104 205 105 205 132 c 2
 205 905 l 2
 205 934 200 936 171 936 c 2
 77 936 l 2
 50 936 52 950 52 979 c 2
 52 1008 l 2
 52 1030 51 1040 71 1040 c 2
 652 1040 l 2
 868 1040 1045 973 1045 771 c 0
 1045 630 952 569 817 539 c 0
 791 533 797 516 820 508 c 0
 902 477 942 421 948 327 c 0
 954 228 928 104 1039 104 c 0
 1074 104 1103 125 1128 167 c 0
 1134 177 1138 188 1157 181 c 2
 1204 168 l 2
 1223 163 1231 155 1228 146 c 0
428 577 m 2
 597 577 l 2
 735 577 856 624 856 756 c 256
 856 873 760 936 648 936 c 2
 428 936 l 2
 396 936 395 938 395 907 c 2
 395 607 l 2
 395 580 400 577 428 577 c 2
EndSplineSet
EndChar

StartChar: s.sc
Encoding: 65625 -1 523
Width: 1079
Flags: MW
AnchorPoint: "Anchor-0" 530 1040 basechar 0
AnchorPoint: "Anchor-1" 550 8 basechar 0
LayerCount: 2
Fore
SplineSet
832 707 m 0
 821 846 711 942 561 942 c 0
 440 942 338 904 338 787 c 0
 338 651 511 629 628 602 c 0
 813 561 1014 513 1014 288 c 0
 1014 68 817 -21 579 -21 c 0
 467 -21 370 18 306 70 c 0
 279 93 250 109 235 65 c 2
 224 32 l 2
 213 -1 208 -2 166 -2 c 2
 136 -2 l 2
 103 -2 90 3 90 40 c 2
 90 356 l 2
 90 385 111 384 136 384 c 2
 176 384 l 2
 203 384 213 378 217 353 c 0
 232 200 370 96 545 96 c 256
 692 96 823 150 823 284 c 0
 823 437 645 462 515 490 c 0
 344 529 147 567 147 777 c 0
 147 979 322 1059 525 1059 c 0
 631 1059 717 1023 783 952 c 0
 798 937 806 953 813 975 c 2
 829 1022 l 2
 834 1039 841 1040 860 1040 c 2
 921 1040 l 2
 950 1040 957 1031 957 1002 c 2
 957 701 l 2
 957 675 940 673 915 673 c 2
 873 673 l 2
 835 673 835 677 832 707 c 0
EndSplineSet
EndChar

StartChar: t.sc
Encoding: 65630 -1 528
Width: 1174
Flags: MW
AnchorPoint: "Anchor-0" 578 1040 basechar 0
AnchorPoint: "Anchor-1" 579 0 basechar 0
LayerCount: 2
Fore
SplineSet
317 39 m 2
 317 71 l 2
 317 99 321 104 346 104 c 2
 460 104 l 2
 494 104 497 106 497 140 c 2
 497 896 l 2
 497 922 493 925 467 925 c 2
 400 925 l 2
 219 925 168 861 164 684 c 0
 162 661 156 658 128 658 c 2
 102 658 l 2
 74 658 69 666 69 691 c 2
 69 990 l 2
 69 1031 68 1040 106 1040 c 2
 1073 1040 l 2
 1106 1040 1105 1031 1105 995 c 2
 1105 678 l 2
 1105 656 1094 658 1069 658 c 2
 1046 658 l 2
 1015 658 1011 662 1009 688 c 0
 1005 863 952 925 774 925 c 2
 704 925 l 2
 680 925 677 920 677 897 c 2
 677 141 l 2
 677 107 681 104 715 104 c 2
 828 104 l 2
 859 104 858 92 858 58 c 2
 858 40 l 2
 858 6 847 0 817 0 c 2
 349 0 l 2
 319 0 317 6 317 39 c 2
EndSplineSet
EndChar

StartChar: u.sc
Encoding: 65632 -1 530
Width: 1244
Flags: MW
AnchorPoint: "Anchor-0" 656 1040 basechar 0
AnchorPoint: "Anchor-1" 642 8 basechar 0
AnchorPoint: "Anchor-2" 729 8 basechar 0
LayerCount: 2
Fore
SplineSet
914 936 m 2
 790 936 l 2
 770 936 769 945 769 967 c 2
 769 1003 l 2
 769 1031 772 1040 797 1040 c 2
 1179 1040 l 2
 1207 1040 1210 1034 1210 1003 c 2
 1210 971 l 2
 1210 942 1206 936 1180 936 c 2
 1087 936 l 2
 1062 936 1057 935 1057 910 c 2
 1057 404 l 2
 1057 109 928 -21 630 -21 c 0
 339 -21 188 121 188 404 c 2
 188 908 l 2
 188 934 178 936 153 936 c 2
 58 936 l 2
 33 936 35 949 35 977 c 2
 35 1007 l 2
 35 1035 39 1040 64 1040 c 2
 502 1040 l 2
 529 1040 534 1035 534 1005 c 2
 534 979 l 2
 534 945 532 936 501 936 c 2
 402 936 l 2
 373 936 368 935 368 907 c 2
 368 437 l 2
 368 226 444 93 659 93 c 0
 881 93 943 197 943 424 c 2
 943 907 l 2
 943 933 940 936 914 936 c 2
EndSplineSet
EndChar

